<?xml version="1.0" encoding="UTF-8"?>
<svg width="232px" height="80px" viewBox="0 0 232 80" version="1.1" xmlns="http://www.w3.org/2000/svg" xmlns:xlink="http://www.w3.org/1999/xlink">
    <!-- Generator: Sketch 44.1 (41455) - http://www.bohemiancoding.com/sketch -->
    <title>y media labs</title>
    <desc>Created with Sketch.</desc>
    <defs></defs>
    <g id="Page-1" stroke="none" stroke-width="1" fill="none" fill-rule="evenodd">
        <g id="y-media-labs" fill-rule="nonzero" fill="#15BCF9">
            <g id="Group" transform="translate(47.000000, 26.000000)">
                <path d="M33.7871528,8.04484838 C33.7871528,7.94501565 33.8701211,7.86272537 33.971491,7.86272537 L36.5396349,7.86272537 C36.6413275,7.86272537 36.7678785,7.93225745 36.821146,8.01741831 L39.8819345,12.8817934 C39.9355249,12.9669543 40.0233357,12.9669543 40.0769261,12.8817934 L43.1377146,8.01741831 C43.1909822,7.93225745 43.3178559,7.86272537 43.4195486,7.86272537 L45.9873696,7.86272537 C46.0887395,7.86272537 46.171385,7.94501565 46.171385,8.04484838 L46.171385,19.9166538 C46.171385,20.0164866 46.0887395,20.0984578 45.9873696,20.0984578 L43.6487607,20.0984578 C43.5477136,20.0984578 43.4647454,20.0164866 43.4647454,19.9166538 L43.4647454,12.2923655 C43.4647454,12.1922137 43.4192257,12.1784987 43.3633755,12.2623838 L40.0808002,17.1848085 C40.0246271,17.2683746 39.9632886,17.3363119 39.9439186,17.3363119 C39.9245485,17.3363119 39.8632101,17.2683746 39.807037,17.1848085 L36.5602962,12.3146923 C36.504446,12.2311262 36.4586035,12.2448413 36.4586035,12.3449929 L36.4586035,19.9166538 C36.4586035,20.0164866 36.3756352,20.0984578 36.2745882,20.0984578 L33.971491,20.0984578 C33.8701211,20.0984578 33.7871528,20.0164866 33.7871528,19.9166538 L33.7871528,8.04484838" id="Fill-1"></path>
                <path d="M48.6133008,8.04484838 C48.6133008,7.94501565 48.6962691,7.86272537 48.7979618,7.86272537 L57.770485,7.86272537 C57.8718549,7.86272537 57.955146,7.94501565 57.955146,8.04484838 L57.955146,10.0749938 C57.955146,10.1754645 57.8718549,10.2574357 57.770485,10.2574357 L51.5049242,10.2574357 C51.4032316,10.2574357 51.3205861,10.3390881 51.3205861,10.4395588 L51.3205861,12.5574166 C51.3205861,12.6575684 51.4032316,12.7395397 51.5049242,12.7395397 L56.9743766,12.7395397 C57.0760692,12.7395397 57.1590376,12.821511 57.1590376,12.9216627 L57.1590376,14.952446 C57.1590376,15.0522788 57.0760692,15.134569 56.9743766,15.134569 L51.5049242,15.134569 C51.4032316,15.134569 51.3205861,15.2162214 51.3205861,15.3160541 L51.3205861,17.5219434 C51.3205861,17.6214573 51.4032316,17.7040664 51.5049242,17.7040664 L57.8592644,17.7040664 C57.9606342,17.7040664 58.0429569,17.7860378 58.0429569,17.8865084 L58.0429569,19.9166538 C58.0429569,20.0164866 57.9606342,20.0984578 57.8592644,20.0984578 L48.7979618,20.0984578 C48.6962691,20.0984578 48.6133008,20.0164866 48.6133008,19.9166538 L48.6133008,8.04484838" id="Fill-2"></path>
                <path d="M63.1262998,10.4395588 L63.1262998,17.4543251 C63.1262998,17.5650023 63.2073311,17.6345343 63.3116065,17.6345343 L65.2321454,17.6345343 C67.4609909,17.6345343 68.9644282,16.1488443 68.9644282,13.9812296 L68.9644282,13.9461445 C68.9644282,11.7788487 67.4609909,10.2580737 65.2321454,10.2580737 L63.3116065,10.2580737 C63.2073311,10.2580737 63.1262998,10.3448293 63.1262998,10.4395588 L63.1262998,10.4395588 Z M60.5859197,7.82827831 L65.2321454,7.82827831 C69.1239082,7.82827831 71.8124692,10.4676268 71.8124692,13.9110595 L71.8124692,13.9461445 C71.8124692,17.3898962 69.1239082,20.0646487 65.2321454,20.0646487 L60.5859197,20.0646487 C60.4780932,20.0646487 60.4019044,19.978212 60.4019044,19.8783792 L60.4019044,8.01072026 C60.4019044,7.8962156 60.507471,7.82827831 60.5859197,7.82827831 L60.5859197,7.82827831 Z" id="Fill-3"></path>
                <path d="M73.5657804,8.04484838 C73.5657804,7.94501565 73.6490715,7.86272537 73.7501189,7.86272537 L76.1061606,7.86272537 C76.2072074,7.86272537 76.2901759,7.94501565 76.2901759,8.04484838 L76.2901759,19.9166538 C76.2901759,20.0164866 76.2072074,20.0984578 76.1061606,20.0984578 L73.7501189,20.0984578 C73.6490715,20.0984578 73.5657804,20.0164866 73.5657804,19.9166538 L73.5657804,8.04484838" id="Fill-4"></path>
                <path d="M85.5180607,14.9773244 C85.6194306,14.9773244 85.6710843,14.9010943 85.6326666,14.8085975 L84.1269695,11.1773005 C84.0885524,11.0848037 84.0255995,11.0848037 83.987505,11.1773005 L82.4811621,14.8085975 C82.4437134,14.9010943 82.4947213,14.9773244 82.5960906,14.9773244 L85.5180607,14.9773244 L85.5180607,14.9773244 Z M82.7636418,7.94278297 C82.8043186,7.85092407 82.9195704,7.77565078 83.0209404,7.77565078 L85.1645576,7.77565078 C85.2652818,7.77565078 85.3811793,7.85092407 85.4208878,7.94278297 L90.5839705,19.9316447 C90.623679,20.0231846 90.5729944,20.0984578 90.4716244,20.0984578 L87.991614,20.0984578 C87.8908904,20.0984578 87.7762838,20.0228657 87.7381894,19.9297309 L86.7451528,17.5225814 C86.7064125,17.4304035 86.5921291,17.3538544 86.4914049,17.3538544 L81.6230696,17.3538544 C81.521377,17.3538544 81.4077394,17.4304035 81.3689992,17.5225814 L80.3759619,19.9297309 C80.3375449,20.0228657 80.2232615,20.0984578 80.1218915,20.0984578 L77.7138735,20.0984578 C77.612181,20.0984578 77.5614957,20.0231846 77.6012042,19.9316447 L82.7636418,7.94278297 L82.7636418,7.94278297 Z" id="Fill-5"></path>
                <path d="M95.751896,8.04484838 C95.751896,7.94501565 95.8348645,7.86272537 95.9362345,7.86272537 L98.2922763,7.86272537 C98.3939688,7.86272537 98.4766148,7.94501565 98.4766148,8.04484838 L98.4766148,17.4699538 C98.4766148,17.5694676 98.5592601,17.6517579 98.6606301,17.6517579 L104.466798,17.6517579 C104.568491,17.6517579 104.650814,17.7340482 104.650814,17.833562 L104.650814,19.9166538 C104.650814,20.0164866 104.568491,20.0984578 104.466798,20.0984578 L95.9362345,20.0984578 C95.8348645,20.0984578 95.751896,20.0164866 95.751896,19.9166538 L95.751896,8.04484838" id="Fill-6"></path>
                <path d="M113.596219,14.9773244 C113.696943,14.9773244 113.748919,14.9010943 113.710179,14.8085975 L112.205127,11.1773005 C112.166064,11.0848037 112.103757,11.0848037 112.065017,11.1773005 L110.558997,14.8085975 C110.521226,14.9010943 110.572556,14.9773244 110.673603,14.9773244 L113.596219,14.9773244 L113.596219,14.9773244 Z M110.842122,7.94278297 C110.881508,7.85092407 110.997083,7.77565078 111.098775,7.77565078 L113.241747,7.77565078 C113.343762,7.77565078 113.458691,7.85092407 113.498077,7.94278297 L118.661806,19.9316447 C118.701191,20.0231846 118.650829,20.0984578 118.550105,20.0984578 L116.069449,20.0984578 C115.968402,20.0984578 115.853796,20.0228657 115.816025,19.9297309 L114.822988,17.5225814 C114.78457,17.4304035 114.669964,17.3538544 114.569563,17.3538544 L109.700904,17.3538544 C109.598889,17.3538544 109.484928,17.4304035 109.447157,17.5225814 L108.453474,19.9297309 C108.41538,20.0228657 108.301419,20.0984578 108.200049,20.0984578 L105.79074,20.0984578 C105.689693,20.0984578 105.63933,20.0231846 105.679039,19.9316447 L110.842122,7.94278297 L110.842122,7.94278297 Z" id="Fill-7"></path>
                <path d="M125.740262,15.0471755 L122.778261,15.0471755 C122.670111,15.0471755 122.590694,15.134888 122.590694,15.2292985 L122.590694,17.5535199 C122.590694,17.6409134 122.673663,17.7385135 122.778261,17.7385135 L125.829041,17.7385135 C127.032244,17.7385135 127.757974,17.3194073 127.757974,16.4107059 L127.757974,16.375302 C127.757974,15.5536752 127.13781,15.0471755 125.740262,15.0471755 L125.740262,15.0471755 Z M127.068078,11.4809452 C127.068078,10.6771799 126.430158,10.2220318 125.279901,10.2220318 L122.778261,10.2220318 C122.654293,10.2220318 122.590694,10.3266489 122.590694,10.4041549 L122.590694,12.625035 C122.590694,12.7242298 122.682379,12.8093907 122.778261,12.8093907 L125.103634,12.8093907 C126.306836,12.8093907 127.068078,12.4250505 127.068078,11.5160302 L127.068078,11.4809452 L127.068078,11.4809452 Z M120.120047,7.86272537 L125.687318,7.86272537 C127.103267,7.86272537 128.217689,8.24738454 128.925665,8.94653276 C129.490624,9.50629795 129.774718,10.1875847 129.774718,11.026754 L129.774718,11.061839 C129.774718,12.442593 129.030909,13.2112733 128.146666,13.7011875 C129.579726,14.2430912 130.464936,15.0637611 130.464936,16.7073336 L130.464936,16.7427376 C130.464936,18.9798844 128.62446,20.0984578 125.829041,20.0984578 L120.121983,20.0984578 C120.021905,20.0984578 119.937645,20.0117023 119.937645,19.9125074 L119.937645,8.04516739 C119.937645,7.93544704 120.02933,7.86272537 120.120047,7.86272537 L120.120047,7.86272537 Z" id="Fill-8"></path>
                <path d="M131.312699,18.4344723 C131.265565,18.3949219 131.204549,18.2775466 131.288163,18.1799465 C131.625525,17.7809345 132.596609,16.6304656 132.661821,16.5526407 C132.741562,16.4588681 132.879411,16.487255 132.928159,16.5242538 C133.999646,17.3659747 135.127304,17.8951202 136.481593,17.8951202 C137.596015,17.8938444 138.268478,17.4575146 138.268155,16.7411428 L138.268155,16.7057389 C138.268155,16.0234952 137.842983,15.6736021 135.773618,15.1501977 C133.27908,14.5215384 131.668784,13.8392948 131.668462,11.4098184 L131.668784,11.3747334 C131.668462,9.15481006 133.472457,7.68634357 136.003476,7.68634357 C137.738708,7.68634357 139.225681,8.20847205 140.458906,9.12961267 C140.52541,9.17968851 140.579646,9.27409904 140.510883,9.37233704 C140.477308,9.42113709 139.607916,10.6669734 139.296381,11.1125528 C139.228586,11.2101529 139.117209,11.2213163 139.040697,11.1702835 C137.995683,10.4762386 136.964552,10.0635114 135.967318,10.0635114 C134.923273,10.0635114 134.375101,10.5355641 134.375101,11.1294574 L134.375101,11.1651803 C134.375424,11.9686267 134.90584,12.2311262 137.04752,12.772392 C139.559168,13.4192317 140.975118,14.3110285 140.975441,16.4429203 L140.975118,16.4780053 C140.975763,18.9081197 139.100744,20.2713312 136.428971,20.2716501 C134.611416,20.2719691 132.777719,19.6643608 131.312699,18.4344723" id="Fill-10"></path>
                <path d="M19.8872154,8.29714143 L18.5561711,6.98400576 C18.3795809,6.80985658 18.0696604,6.81017553 17.8940388,6.98400576 L13.6029302,11.2171699 C13.519639,11.2991411 13.3691985,11.2991411 13.2862302,11.2171699 L8.99673582,6.98400576 C8.81949997,6.80985658 8.51087074,6.80985658 8.3342806,6.98400576 L7.00323629,8.29714143 C6.91477984,8.38485391 6.86667753,8.50095336 6.86667753,8.62502665 C6.86667753,8.74878098 6.91542548,8.86488044 7.00323629,8.95131707 L11.8257295,13.7149025 C11.9367843,13.8239849 12.0336345,14.0558649 12.0336345,14.2099199 L12.0336345,20.0260552 C12.0336345,20.2802619 12.2441222,20.4885392 12.5020665,20.4885392 L14.3880623,20.4885392 C14.6463295,20.4885392 14.8564944,20.2802619 14.8564944,20.0260552 L14.8564944,14.2099199 C14.8564944,14.055227 14.9533446,13.8239849 15.0637537,13.7149025 L19.8865697,8.95131707 C19.9750262,8.86488044 20.0237742,8.74878098 20.0237742,8.62502665 C20.0237742,8.50095336 19.9750262,8.38485391 19.8872154,8.29714143" id="Fill-11"></path>
                <path d="M24.1137571,23.5482697 C24.1137571,23.9153863 23.8128759,24.212333 23.4416169,24.212333 L3.41558292,24.212333 C3.04496957,24.212333 2.74408836,23.9153863 2.74408836,23.5482697 L2.74408836,3.76288426 C2.74408836,3.39672449 3.04496957,3.09945891 3.41558292,3.09945891 L23.4416169,3.09945891 C23.8128759,3.09945891 24.1137571,3.39672449 24.1137571,3.76288426 L24.1137571,23.5482697 L24.1137571,23.5482697 Z M25.867391,0.387707755 L0.997879657,0.387707755 C0.446802151,0.387707755 0,0.829140782 0,1.37391507 L0,25.943937 C0,26.4883923 0.446802151,26.9301442 0.997879657,26.9301442 L25.867391,26.9301442 C26.4184685,26.9301442 26.8649478,26.4883923 26.8649478,25.943937 L26.8649478,1.37391507 C26.8649478,0.829140782 26.4184685,0.387707755 25.867391,0.387707755 L25.867391,0.387707755 Z" id="Fill-12"></path>
            </g>
        </g>
    </g>
</svg>