<?xml version="1.0" encoding="UTF-8"?>
<svg width="232px" height="80px" viewBox="0 0 232 80" version="1.1" xmlns="http://www.w3.org/2000/svg" xmlns:xlink="http://www.w3.org/1999/xlink">
    <!-- Generator: Sketch 44.1 (41455) - http://www.bohemiancoding.com/sketch -->
    <title>euclid analytics</title>
    <desc>Created with Sketch.</desc>
    <defs></defs>
    <g id="Page-1" stroke="none" stroke-width="1" fill="none" fill-rule="evenodd">
        <g id="euclid-analytics" fill-rule="nonzero">
            <g id="Group" transform="translate(63.000000, 22.000000)">
                <path d="M35.2007279,17.6888292 C35.2007279,27.3532557 27.3586897,35.1433692 17.6298453,35.1433692 C7.90100091,35.1433692 0.0589626934,27.3532557 0.0589626934,17.6888292 C0.0589626934,8.02440263 7.90100091,0.234289128 17.6298453,0.234289128 C27.3586897,0.234289128 35.2007279,8.02440263 35.2007279,17.6888292" id="Shape" fill="#00548B"></path>
                <path d="M32.6063694,20.0317204 C32.6063694,28.2318399 25.8846224,34.90908 17.6298453,34.90908 C9.37506824,34.90908 2.6533212,28.2318399 2.6533212,20.0317204 C2.6533212,11.831601 9.37506824,5.15436081 17.6298453,5.15436081 C25.8846224,5.15436081 32.6063694,11.831601 32.6063694,20.0317204" id="Shape" fill="#0075C9"></path>
                <path d="M29.8351228,22.6674731 C29.8351228,29.4032855 24.3515924,34.7919355 17.6298453,34.7919355 C10.8491356,34.7919355 5.42456779,29.3447133 5.42456779,22.6674731 C5.42456779,15.9316607 10.9080983,10.5430108 17.6298453,10.5430108 C24.3515924,10.5430108 29.8351228,15.9316607 29.8351228,22.6674731" id="Shape" fill="#4597CB"></path>
                <path d="M26.7101001,25.4789427 C26.7101001,30.5161589 22.5827116,34.6162186 17.5119199,34.6162186 C12.4411283,34.6162186 8.31373976,30.5161589 8.31373976,25.4789427 C8.31373976,20.4417264 12.4411283,16.3416667 17.5119199,16.3416667 C22.5827116,16.4002389 26.7101001,20.4417264 26.7101001,25.4789427" id="Shape" fill="#9ACAEB"></path>
                <path d="M40.566333,5.03721625 L38.9153776,5.03721625 L38.9153776,2.81146953 L49.6465878,2.81146953 C50.8258417,2.81146953 51.2975432,3.28004779 51.2975432,4.45149343 L51.2975432,6.73581243 L48.9390355,6.73581243 L48.9390355,5.56436679 C48.9390355,5.15436081 48.7031847,4.97864397 48.3494086,4.97864397 L43.1606915,4.97864397 L43.1606915,10.6601553 L49.5286624,10.6601553 L49.5286624,12.885902 L43.1606915,12.885902 L43.1606915,18.1574074 C43.1606915,18.5088411 43.3375796,18.7431302 43.7503185,18.7431302 L49.0569609,18.7431302 C49.410737,18.7431302 49.6465878,18.5674134 49.6465878,18.1574074 L49.6465878,16.9859618 L52.0050955,16.9859618 L52.0050955,19.2702808 C52.0050955,20.4417264 51.533394,20.9103047 50.3541401,20.9103047 L42.2762511,20.9103047 C41.0969973,20.9103047 40.6252957,20.4417264 40.6252957,19.2702808 L40.6252957,5.03721625 L40.566333,5.03721625 Z" id="Shape" fill="#333E48"></path>
                <path d="M54.1277525,10.6601553 C54.1277525,10.2501493 53.8919017,10.0744325 53.5381256,10.0744325 L52.4767971,10.0744325 L52.4767971,7.96583035 L54.9532302,7.96583035 C56.1324841,7.96583035 56.6041856,8.4344086 56.6041856,9.54728196 L56.6041856,15.6973716 C56.6041856,17.5131123 56.9579618,18.9188471 59.0216561,18.9188471 C61.7339399,18.9188471 63.26697,16.5759558 63.26697,13.9987754 L63.26697,7.90725806 L65.7434031,7.90725806 L65.7434031,18.2159797 C65.7434031,18.6259857 65.9792539,18.8017025 66.33303,18.8017025 L67.3943585,18.8017025 L67.3943585,20.9103047 L64.9768881,20.9103047 C63.8565969,20.9103047 63.3259327,20.3831541 63.3259327,19.4459976 L63.3259327,18.9774194 L63.3259327,18.2159797 L63.26697,18.2159797 C62.7363057,19.5045699 61.0263876,21.2031661 58.4909918,21.2031661 C55.5428571,21.2031661 54.0687898,19.6802867 54.0687898,16.2245221 L54.0687898,10.6601553 L54.1277525,10.6601553 Z" id="Shape" fill="#333E48"></path>
                <path d="M74.8236579,7.67296894 C76.4156506,7.67296894 79.5406733,8.31726404 79.5406733,10.5430108 L79.5406733,11.8901732 L77.2411283,11.8901732 L77.2411283,11.1287336 C77.2411283,10.1915771 75.767061,9.78157109 74.8236579,9.78157109 C72.2882621,9.78157109 70.3424932,11.6558841 70.3424932,14.4087814 C70.3424932,17.3373955 72.5241128,19.0359916 74.9415833,19.0359916 C77.4180164,19.0359916 79.0100091,17.2202509 79.0100091,17.2202509 L80.0713376,18.9774194 C80.0713376,18.9774194 78.1845314,21.2031661 74.7646952,21.2031661 C70.6373066,21.2031661 67.8070974,18.3331243 67.8070974,14.4087814 C67.8070974,10.601583 70.5783439,7.67296894 74.8236579,7.67296894" id="Shape" fill="#333E48"></path>
                <path d="M81.8402184,5.5057945 C81.8402184,5.09578853 81.6633303,4.92007168 81.2505914,4.92007168 L80.189263,4.92007168 L80.189263,2.81146953 L82.6656961,2.81146953 C83.84495,2.81146953 84.3166515,3.28004779 84.3166515,4.45149343 L84.3166515,18.2159797 C84.3166515,18.6259857 84.4935396,18.8017025 84.9062784,18.8017025 L85.9676069,18.8017025 L85.9676069,20.9103047 L83.4911738,20.9103047 C82.3119199,20.9103047 81.8402184,20.4417264 81.8402184,19.2702808 L81.8402184,5.5057945 L81.8402184,5.5057945 Z" id="Shape" fill="#333E48"></path>
                <path d="M88.3850773,2.81146953 L90.6256597,2.81146953 L90.6256597,5.38864994 L88.3850773,5.38864994 L88.3850773,2.81146953 L88.3850773,2.81146953 Z M88.3261146,10.6601553 C88.3261146,10.2501493 88.0902639,10.0744325 87.7364877,10.0744325 L86.6751592,10.0744325 L86.6751592,7.96583035 L89.1515924,7.96583035 C90.3308462,7.96583035 90.8025478,8.4344086 90.8025478,9.60585424 L90.8025478,18.274552 C90.8025478,18.6845579 90.9794359,18.8602748 91.3921747,18.8602748 L92.4535032,18.8602748 L92.4535032,20.9688769 L89.9770701,20.9688769 C88.7978162,20.9688769 88.3261146,20.5002987 88.3261146,19.328853 L88.3261146,10.6601553 L88.3261146,10.6601553 Z" id="Shape" fill="#333E48"></path>
                <path d="M103.243676,14.4087814 C103.243676,12.1244624 102.00546,9.78157109 99.5290264,9.78157109 C97.4653321,9.78157109 95.8143767,11.4801673 95.8143767,14.4087814 C95.8143767,17.2202509 97.3474067,19.0359916 99.5290264,19.0359916 C101.415833,19.0945639 103.243676,17.7474014 103.243676,14.4087814 M99.1162875,7.67296894 C102.123385,7.67296894 103.125751,9.66442652 103.125751,9.66442652 L103.184713,9.66442652 C103.184713,9.66442652 103.125751,9.25442055 103.125751,8.78584229 L103.125751,5.5057945 C103.125751,5.09578853 102.8899,4.92007168 102.536124,4.92007168 L101.474795,4.92007168 L101.474795,2.81146953 L103.951228,2.81146953 C105.130482,2.81146953 105.602184,3.28004779 105.602184,4.45149343 L105.602184,18.2159797 C105.602184,18.6259857 105.838035,18.8017025 106.191811,18.8017025 L107.253139,18.8017025 L107.253139,20.9103047 L104.835669,20.9103047 C103.715378,20.9103047 103.243676,20.3831541 103.243676,19.5045699 L103.243676,18.8602748 L103.184713,18.8602748 C103.184713,18.8602748 102.123385,21.2031661 98.8804368,21.2031661 C95.3426752,21.2031661 93.1020928,18.4502688 93.1020928,14.4087814 C93.2200182,10.3087216 95.6374886,7.67296894 99.1162875,7.67296894" id="Shape" fill="#333E48"></path>
                <path d="M59.1985441,28.9932796 C58.7858053,29.5204301 57.488626,29.4032855 56.4272975,29.5790024 C55.0711556,29.7547192 54.3046406,30.2232975 54.3046406,31.3361708 C54.3046406,32.2733274 54.9532302,33.034767 56.3093722,33.034767 C58.9037307,33.034767 59.1985441,30.8090203 59.1985441,30.3990143 L59.1985441,28.9932796 L59.1985441,28.9932796 Z M59.7881711,31.9218937 C59.7881711,32.3318996 59.7881711,32.8590502 60.3188353,32.8590502 C60.4367607,32.8590502 60.5546861,32.8590502 60.7315742,32.8004779 L60.7315742,33.2690562 C60.5546861,33.3276284 60.4367607,33.3276284 60.2598726,33.3276284 C59.3754322,33.3276284 59.1985441,32.8590502 59.1985441,32.2147551 L59.1985441,31.8047491 L59.1395814,31.8047491 C58.7858053,32.7419056 57.7834395,33.5033453 56.2504095,33.5033453 C54.7763421,33.5033453 53.656051,32.9761947 53.656051,31.3361708 C53.656051,29.5204301 55.2480437,29.1689964 56.4862602,29.0518519 C59.0216561,28.876135 59.1395814,28.7004182 59.1395814,27.4704002 C59.1395814,27.1189665 58.7268426,25.9475209 56.9579618,25.9475209 C55.6018198,25.9475209 54.6584167,26.6503883 54.599454,27.9975508 L54.0098271,27.9975508 C54.0687898,26.2989546 55.1301183,25.4789427 56.9579618,25.4789427 C58.3141037,25.4789427 59.6702457,25.8889486 59.6702457,27.4704002 L59.6702457,31.9218937 L59.7881711,31.9218937 Z" id="Shape" fill="#333E48"></path>
                <path d="M61.7339399,25.6546595 L62.3235669,25.6546595 L62.3235669,27.2946834 L62.3825296,27.2946834 C62.7952684,26.1232378 63.9155596,25.4789427 65.1537762,25.4789427 C67.8660601,25.4789427 67.9250227,27.6461171 67.9250227,28.5832736 L67.9250227,33.3276284 L67.3353958,33.3276284 L67.3353958,28.466129 C67.3353958,27.7046894 67.2174704,25.9475209 65.1537762,25.9475209 C63.3848954,25.9475209 62.3825296,27.2946834 62.3825296,29.1689964 L62.3825296,33.3276284 L61.7929026,33.3276284 L61.7929026,25.6546595 L61.7339399,25.6546595 Z" id="Shape" fill="#333E48"></path>
                <path d="M74.2340309,28.9932796 C73.8212921,29.5204301 72.5241128,29.4032855 71.4627843,29.5790024 C70.1066424,29.7547192 69.3401274,30.2232975 69.3401274,31.3361708 C69.3401274,32.2733274 69.988717,33.034767 71.344859,33.034767 C73.9392175,33.034767 74.2340309,30.8090203 74.2340309,30.3990143 L74.2340309,28.9932796 L74.2340309,28.9932796 Z M74.8236579,31.9218937 C74.8236579,32.3318996 74.8236579,32.8590502 75.3543221,32.8590502 C75.4722475,32.8590502 75.5901729,32.8590502 75.767061,32.8004779 L75.767061,33.2690562 C75.5901729,33.3276284 75.4722475,33.3276284 75.2953594,33.3276284 C74.410919,33.3276284 74.2340309,32.8590502 74.2340309,32.2147551 L74.2340309,31.8047491 L74.1750682,31.8047491 C73.8212921,32.7419056 72.8189263,33.5033453 71.2858963,33.5033453 C69.8118289,33.5033453 68.6915378,32.9761947 68.6915378,31.3361708 C68.6915378,29.5204301 70.2835305,29.1689964 71.521747,29.0518519 C74.0571429,28.876135 74.1750682,28.7004182 74.1750682,27.4704002 C74.1750682,27.1189665 73.7623294,25.9475209 72.0524113,25.9475209 C70.6962693,25.9475209 69.7528662,26.6503883 69.6939035,27.9975508 L69.1042766,27.9975508 C69.1632393,26.2989546 70.2245678,25.4789427 72.0524113,25.4789427 C73.4085532,25.4789427 74.7646952,25.8889486 74.7646952,27.4704002 L74.7646952,31.9218937 L74.8236579,31.9218937 Z" id="Shape" fill="#333E48"></path>
                <rect id="Rectangle-path" fill="#333E48" x="76.8873521" y="22.6674731" width="1" height="10.6601553"></rect>
                <path d="M78.5383076,25.6546595 L79.1868972,25.6546595 L82.0760692,32.6833333 L84.7293904,25.6546595 L85.37798,25.6546595 L82.0760692,34.1476404 C81.7812557,34.90908 81.5454049,35.4948029 81.1916288,35.729092 C80.7788899,36.0219534 80.2482257,36.0805257 79.3637853,36.0805257 L79.3637853,35.6119474 C80.189263,35.6119474 80.5430391,35.4948029 80.955778,35.1433692 C81.1916288,34.90908 81.3685168,34.3233572 81.722293,33.3276284 L78.5383076,25.6546595 L78.5383076,25.6546595 Z" id="Shape" fill="#333E48"></path>
                <path d="M89.7412193,26.18181 L88.0313012,26.18181 L88.0313012,31.57046 C88.0313012,32.8004779 88.6209281,32.9176225 89.6822566,32.9176225 L89.6822566,33.3862007 C88.5619654,33.444773 87.3827116,33.2690562 87.4416742,31.57046 L87.4416742,26.18181 L86.0265696,26.18181 L86.0265696,25.7132318 L87.4416742,25.7132318 L87.4416742,23.3117682 L88.0313012,23.3117682 L88.0313012,25.7132318 L89.7412193,25.7132318 L89.7412193,26.18181 L89.7412193,26.18181 Z" id="Shape" fill="#333E48"></path>
                <path d="M91.0973612,33.3862007 L91.6869882,33.3862007 L91.6869882,25.7132318 L91.0973612,25.7132318 L91.0973612,33.3862007 L91.0973612,33.3862007 Z M91.0973612,24.2489247 L91.6869882,24.2489247 L91.6869882,22.7260454 L91.0973612,22.7260454 L91.0973612,24.2489247 L91.0973612,24.2489247 Z" id="Shape" fill="#333E48"></path>
                <path d="M99.1162875,28.0561231 C98.9983621,26.7089606 97.878071,26.0060932 96.521929,26.0060932 C94.5761601,26.0060932 93.5148317,27.7046894 93.5148317,29.4618578 C93.5148317,31.5118877 94.5171975,33.0933393 96.521929,33.0933393 C97.9370337,33.0933393 98.9983621,32.0976105 99.2342129,30.6918757 L99.8238399,30.6918757 C99.5879891,32.5076165 98.2318471,33.5619176 96.5808917,33.5619176 C94.0454959,33.5619176 93.0431301,31.6290323 93.0431301,29.4618578 C93.0431301,27.2946834 94.2813467,25.5375149 96.5808917,25.5375149 C98.2318471,25.5375149 99.5879891,26.3575269 99.7648772,28.1146953 L99.1162875,28.1146953 L99.1162875,28.0561231 Z" id="Shape" fill="#333E48"></path>
                <path d="M101.238944,30.8090203 C101.297907,32.2147551 102.418198,33.034767 103.77434,33.034767 C104.776706,33.034767 106.250773,32.7419056 106.250773,31.3947431 C106.250773,28.8175627 100.944131,30.5747312 100.944131,27.4704002 C100.944131,25.9475209 102.418198,25.4789427 103.715378,25.4789427 C105.366333,25.4789427 106.60455,26.18181 106.60455,27.9389785 L106.014923,27.9389785 C106.014923,26.5332437 105.012557,26.0060932 103.715378,26.0060932 C102.654049,26.0060932 101.474795,26.4160992 101.474795,27.4704002 C101.474795,28.7004182 102.771975,28.876135 104.069154,29.1689964 C105.602184,29.4618578 106.781438,29.8132915 106.781438,31.4533154 C106.781438,33.0933393 105.130482,33.5619176 103.77434,33.5619176 C102.00546,33.5619176 100.70828,32.6247611 100.649318,30.8090203 L101.238944,30.8090203 L101.238944,30.8090203 Z" id="Shape" fill="#333E48"></path>
            </g>
        </g>
    </g>
</svg>