<?xml version="1.0" encoding="UTF-8"?>
<svg width="232px" height="80px" viewBox="0 0 232 80" version="1.1" xmlns="http://www.w3.org/2000/svg" xmlns:xlink="http://www.w3.org/1999/xlink">
    <!-- Generator: Sketch 44.1 (41455) - http://www.bohemiancoding.com/sketch -->
    <title>insightly</title>
    <desc>Created with Sketch.</desc>
    <defs></defs>
    <g id="Page-1" stroke="none" stroke-width="1" fill="none" fill-rule="evenodd">
        <g id="insightly" fill="#FF4A00">
            <g id="Group" transform="translate(63.000000, 20.000000)">
                <path d="M97.368727,31.5909245 C96.575705,31.950362 95.8201936,32.2426731 95.1142726,32.6281677 C94.5471622,32.937743 94.007708,33.321093 93.5148773,33.742081 C92.9123755,34.2565742 92.8018568,34.9463897 93.0808556,35.6858531 C93.3589007,36.4225285 93.9096929,36.8194968 94.6763303,36.8932716 C95.7260991,36.9944974 96.6170303,36.4201694 97.1366695,35.3253433 C97.7020845,34.1341167 97.515061,32.900105 97.368727,31.5909245 M51.93293,31.6281336 C50.5281874,32.2073942 49.1356306,32.6844639 48.0694376,33.75141 C47.1003062,34.7214196 47.4828302,36.3201231 48.7673055,36.7888288 C49.7401456,37.1438699 50.7763512,36.7627717 51.4345891,35.7975876 C52.3107916,34.512534 52.1443248,33.1051302 51.93293,31.6281336 M51.4587486,18.3046033 C51.3261897,17.458338 51.2655792,16.5979184 51.0451776,15.7815705 C50.7608807,14.7289933 50.0502973,14.468208 49.0875237,14.957931 C48.0428411,15.4893667 47.376656,16.3723048 46.9362765,17.4349617 C46.1034127,19.4445736 46.1299033,21.5110177 46.7080337,23.5635219 C47.1527576,25.142495 48.4548226,25.5057928 49.7376025,24.485492 C50.4233907,23.9400091 50.7998748,23.1748104 50.9434538,22.3464527 C51.1741338,21.0163622 51.2912221,19.6660051 51.4587486,18.3046033 M101.495112,26.972388 C101.995572,26.314849 102.509171,25.6669607 102.991194,24.9959105 C103.259702,24.6219968 103.448421,24.18857 103.722122,23.8192673 C104.122766,23.2785025 104.778354,23.3301877 105.019207,23.9568444 C105.170733,24.350703 105.265145,24.8673408 105.141593,25.24801 C104.89343,26.013316 104.54333,26.7657544 104.110792,27.4419516 C103.793223,27.9383228 103.345744,28.4438087 102.835959,28.7012697 C101.647062,29.3016548 101.620465,30.1970317 101.843304,31.3277802 C102.074832,32.5021716 102.094647,33.7028345 101.829635,34.8933105 C101.353758,37.030527 100.163165,38.5859093 98.1444772,39.398504 C96.0692051,40.233939 93.912236,40.3881368 91.7610948,39.7569765 C90.0048753,39.2417327 88.7163734,38.1641707 88.4290036,36.2119273 C88.2431457,34.9493922 88.6587299,33.8542444 89.5319654,32.938708 C90.3834787,32.0459047 91.4454331,31.4767237 92.5575077,31.0139157 C93.8438903,30.4786197 95.1558098,30.0064827 96.4566033,29.5065728 C96.6173482,29.4447007 96.7773513,29.3808984 96.9595005,29.3093754 C96.8161335,28.6562328 96.6794421,28.033222 96.5211344,27.311559 C95.5826261,28.5841737 94.4229744,29.2774207 92.9040045,29.288251 C91.4213796,29.298974 90.1782296,28.80968 89.2722518,27.5754539 C87.3574066,30.0813297 83.0880786,29.909546 81.6716802,26.6694611 C80.7020189,28.0952014 79.478472,29.1213999 77.7343321,29.264553 C76.0250539,29.4048108 74.5139252,28.9533693 73.3569225,27.5156191 C72.6906314,28.3346477 71.8919934,28.9264544 70.8762386,29.1642922 C68.1729277,29.7972754 65.9850177,28.352448 65.3685289,25.5443959 C64.9501896,23.6389051 65.1848961,21.7471399 65.4104899,19.8447588 C65.5655128,18.5378302 65.6487992,17.2184628 65.6785746,15.9027413 C65.685886,15.5771887 65.4396296,15.1081613 65.1690018,14.9455994 C64.7474837,14.6925348 64.2201092,14.8897322 63.9399448,15.2828402 C63.5756463,15.7940093 63.2386861,16.3613673 63.0479539,16.9562836 C62.4424852,18.8452608 62.3900339,20.8187359 62.3406554,22.7826674 C62.3133172,23.8713814 62.3629075,24.9618111 62.3691593,26.0515974 C62.3800734,27.9015427 61.6426816,28.8120391 59.8413221,29.1439184 C59.3921478,29.2265933 58.9293044,29.2317404 58.4739843,29.2819244 C58.0241742,29.3313577 57.6686706,29.211581 57.4823888,28.7193917 C57.1181963,28.9724564 56.7358842,29.1737285 56.4450177,29.467648 C56.3024983,29.611659 56.2719812,29.932279 56.2899948,30.165077 C56.3632147,31.1075282 56.5417613,32.0454757 56.5608345,32.9877125 C56.6389287,36.8608879 54.4155213,39.464022 50.6231297,39.9808744 C49.0885833,40.1899744 47.5583814,40.208418 46.0708822,39.6784836 C44.7081008,39.1930499 43.6216691,38.3640488 43.1652893,36.92973 C42.6879291,35.4295716 43.0238296,34.0681697 44.114076,32.9292717 C45.1080026,31.8911707 46.3806101,31.3038677 47.677377,30.7796165 C48.9339843,30.2715571 50.2092408,29.811001 51.5303791,29.309161 C51.4345891,28.8340214 51.3406006,28.367782 51.23538,27.8458899 C48.5321751,29.7787245 45.9847349,30.0540931 43.6970083,27.1855628 C43.5349919,27.3853337 43.3642866,27.5995808 43.1897666,27.810611 C41.3383929,30.0498039 36.9151016,29.9114762 35.7477147,26.449638 C35.5163989,25.7636828 35.2928184,25.026793 35.2994941,24.3156385 C35.32217,21.9073427 35.4264369,19.4988324 35.549989,17.09311 C35.5937514,16.241805 35.7502578,15.3916794 35.9123802,14.5523842 C36.2071673,13.0260614 37.8830675,11.4178144 39.3874146,11.166251 C40.3053662,11.0126965 41.0613014,11.6145828 41.0093799,12.5846996 C40.9561868,13.5782999 40.7767926,14.5668604 40.620922,15.5525256 C40.1861586,18.2996707 40.0132281,21.0547508 40.3659767,23.823771 C40.4215009,24.2593424 40.539331,24.7052079 40.7229637,25.1014256 C41.0195523,25.7415933 41.6773664,25.802822 42.1448722,25.2687056 C42.482786,24.8824604 42.6283782,24.4777714 42.5330122,23.9067676 C42.0109358,20.7831353 42.2567684,17.7362802 43.7665196,14.9050662 C44.8132154,12.9423142 46.3912063,11.5842365 48.6291306,11.2280159 C49.3085611,11.1197128 50.0369461,11.2008865 50.7253833,11.3096185 C51.3902969,11.4147047 51.9208503,11.8216454 52.2680888,12.4671747 C52.6850505,12.1812974 53.0678924,11.8721511 53.4915298,11.638817 C54.1926825,11.2524645 54.930922,10.8462744 55.7189638,11.3989417 C56.4998002,11.9465693 56.3418104,12.7711739 56.2286426,13.5514922 C56.0290096,14.928228 55.7825412,16.29853 55.5997562,17.6774105 C55.2734982,20.1381422 55.4248124,22.5985522 55.6774266,25.0552091 C55.7407921,25.6710354 55.8230188,26.2849316 55.9050337,26.970994 C56.6850223,26.2906148 57.2163174,25.6848682 57.2562652,24.5735285 C57.3943341,20.737026 57.6431337,16.9027754 57.9350599,13.0743153 C58.1560973,10.173723 58.4911501,7.28138743 58.8061761,4.38883743 C59.0450152,2.19725497 60.2332767,0.745243123 62.1595658,0.200832508 C63.2142088,-0.0972690308 64.0540662,0.497540046 63.9797866,1.60030128 C63.8866457,2.98733128 63.6751449,4.3664262 63.5092079,5.74830912 C63.2154804,8.19392128 62.9164547,10.63889 62.6237868,13.0846094 C62.6050314,13.240523 62.6212437,13.4006185 62.6212437,13.6407082 C62.780505,13.4583087 62.8996067,13.3186942 63.0219932,13.1820822 C64.0636028,12.0195934 65.2701958,11.1679667 66.8931148,11.1497374 C68.7501045,11.1288274 69.8629209,12.055623 70.2387692,13.9069622 C70.5161786,15.2732967 70.4240973,16.6447782 70.2943994,18.0164742 C70.1114025,19.9537053 69.8332514,21.892652 70.1484893,23.836317 C70.2313519,24.3461993 70.4574755,24.8545804 70.7164474,25.305593 C70.9194712,25.65924 71.3247771,25.7254014 71.7039103,25.5233787 C72.0427778,25.342802 72.2639212,25.1075377 72.2621198,24.6483756 C72.2547024,22.8655568 72.2428347,21.0801645 72.3285582,19.3004554 C72.4186262,17.4288496 72.6183651,15.5626053 72.7732821,13.6563639 C72.4759518,13.6104691 72.1620914,13.5868784 71.8624299,13.5082782 C71.5945572,13.438042 71.310896,13.3517213 71.0894348,13.1934487 C70.6505388,12.8796914 70.6339027,12.3349591 71.074706,12.0318177 C71.5671129,11.6929685 72.101375,11.4089142 72.6407232,11.1508097 C72.9425039,11.0063699 73.0858709,10.8573191 73.1234875,10.493914 C73.2669605,9.10956482 73.4742228,7.73207835 73.6362392,6.34933758 C73.7416717,5.44913528 74.1213347,4.68661728 74.8264081,4.1587202 C75.4699173,3.67682512 76.156977,3.20029158 76.8981834,2.91870358 C78.007503,2.49739389 78.8961031,3.22827882 78.8015847,4.43408882 C78.7014503,5.71420974 78.5036186,6.98639558 78.3495494,8.26212005 C78.3155355,8.54274297 78.285972,8.82368758 78.2412559,9.22076312 C78.6187996,9.07943297 78.9193088,8.96394543 79.2219372,8.85424835 C79.8175514,8.63850005 80.4086093,8.40731051 81.0124886,8.21794097 C81.4771334,8.07210712 81.7125816,8.33503697 81.7816691,8.77596989 C82.0459391,10.462281 80.8994268,12.3265951 79.2997135,12.8188916 C79.1649295,12.8602827 79.0286619,12.8972773 78.8921824,12.932449 C77.7585975,13.22476 77.6987288,13.219613 77.6074952,14.372022 C77.4117828,16.8442274 77.2321767,19.3201859 77.1565196,21.7980745 C77.1293932,22.6875537 77.3750139,23.5978357 77.5824881,24.4778787 C77.7102787,25.0196085 78.02149,25.5253088 78.6548268,25.6061608 C79.3145483,25.6902297 79.8115116,25.3686447 80.1835453,24.8360294 C80.4680541,24.4288742 80.7515034,24.0204322 81.0179986,23.6012671 C81.0781852,23.5065824 81.0771256,23.3660028 81.0862383,23.2451537 C81.2963616,20.4316328 81.4577422,17.6132865 81.7246613,14.8053416 C82.01521,11.7491574 82.3957207,8.70155174 82.7544032,5.65233758 C82.8481799,4.85582743 83.0701709,4.07132712 83.1211388,3.27406635 C83.2056968,1.95180374 85.3887326,0.2346102 86.720679,0.113546662 C87.6435049,0.0295849692 88.3298228,0.798107892 88.2066946,1.81529897 C87.9364907,4.04773635 87.6176501,6.27416882 87.3570887,8.50767851 C86.9102456,12.3366748 86.4256799,16.1634193 86.0979384,20.0033531 C85.9750221,21.4430334 86.2384444,22.917671 86.3447247,24.3750444 C86.3610429,24.5986205 86.4612832,24.8231617 86.5549539,25.032369 C86.7394343,25.4442424 87.038354,25.6998805 87.516456,25.5977968 C87.9602263,25.5032193 88.2878618,25.0415908 88.2555433,24.5696682 C88.0314329,21.2907657 88.3065111,18.0383493 88.7880039,14.8006234 C89.0378631,13.1203173 90.6190329,11.5142148 92.2726809,11.1772957 C93.2106594,10.9862105 94.0277349,11.5963536 93.9617204,12.5707596 C93.8823546,13.7415051 93.6616351,14.9029216 93.4929431,16.0670188 C93.1148695,18.6763724 92.9603764,21.290444 93.3460793,23.9126653 C93.397365,24.2604147 93.5191158,24.602588 93.6457407,24.9326444 C93.8046842,25.3464479 94.1075245,25.6120585 94.5663414,25.6175273 C95.051331,25.6232105 95.4106492,25.344196 95.5215918,24.9084102 C95.6914494,24.2416493 95.7997429,23.550118 95.8512406,22.8627688 C96.024277,20.5490505 96.1586373,18.2323297 96.3116469,15.9171102 C96.4416626,13.9526425 97.2691224,12.4346837 99.0673031,11.5469202 C99.272764,11.4454799 99.4807681,11.3433962 99.6973551,11.2718733 C100.912531,10.870294 101.800283,11.5766231 101.655963,12.8710057 C101.521496,14.076494 101.32536,15.2750124 101.146708,16.4752464 C100.768528,19.0177951 100.789933,21.5670994 101.019235,24.1189773 C101.101886,25.0390173 101.21304,25.9563765 101.311267,26.8750225 C101.372619,26.9074062 101.433866,26.9398971 101.495112,26.972388" id="Fill-1"></path>
                <path d="M23.1356974,28.3567266 C22.0110133,29.3533293 20.6638083,29.5893442 19.2325752,29.3426062 C17.1955554,28.9914255 15.7954752,27.4069836 15.6994734,25.1244695 C15.6332469,23.549035 15.8500458,21.9614835 15.9376767,20.3792935 C15.9966977,19.3128835 16.0735204,18.2466879 16.0963023,17.1795273 C16.1053091,16.760255 15.9497564,16.3408755 15.4843698,16.2156299 C15.0248112,16.0918856 14.7042752,16.3833389 14.4531445,16.7197218 C13.6873548,17.7451696 13.3215728,18.9569846 13.1531987,20.1886372 C12.8661468,22.2885373 12.674355,24.4046293 12.5246302,26.5198635 C12.4284164,27.8790135 11.9868714,28.6750947 10.688515,29.0626267 C9.9393614,29.2862029 9.13404774,29.3492546 8.34844306,29.4059796 C7.64601882,29.456807 7.62058786,28.8233949 7.46471728,28.3007521 C6.22580578,29.3056116 4.82307653,29.5019512 3.35168369,29.1324339 C1.45167325,28.6553642 0.526728119,27.2266215 0.232258819,25.4065936 C0.0258442109,24.1308692 -0.0480115292,22.8059258 0.0309304025,21.5162613 C0.176734561,19.132843 0.454567776,16.7566092 0.723288231,14.3827344 C0.891662364,12.8949075 2.92847017,11.3853127 4.17045457,11.1674198 C5.11892334,11.0011049 5.87549434,11.669367 5.79422123,12.7027499 C5.70923945,13.7847084 5.49487767,14.8564799 5.33370897,15.9321118 C4.92702557,18.6468732 4.782387,21.367425 5.17900398,24.0963409 C5.22700491,24.4265044 5.32650353,24.7620295 5.46944671,25.0621684 C5.79750606,25.7512333 6.5010959,25.8375541 6.94793902,25.2179747 C7.43547168,24.5419919 7.82679054,23.8274061 7.83918813,22.9247375 C7.87383781,20.3885153 7.94345506,17.8522932 8.04252983,15.3176795 C8.13694226,12.9034859 9.88235367,11.1317119 12.2813407,10.9455593 C13.2630816,10.8693182 13.804867,11.3726595 13.6750632,12.398429 C13.560306,13.3056013 13.2890424,14.192507 13.1500198,15.1521152 C13.2517437,15.017755 13.3638518,14.8899359 13.4536019,14.7477479 C14.1562381,13.6360866 15.0083871,12.6695084 16.1114549,11.9498827 C16.7445798,11.536937 17.4278248,11.2618901 18.1957338,11.2717553 C19.5256669,11.288805 20.3926507,11.9464513 20.7655321,13.2384749 C21.1351287,14.5188102 21.0086097,15.822093 20.9085812,17.1225878 C20.7513331,19.1679075 20.5725747,21.2118332 20.4531552,23.2594047 C20.4236976,23.763711 20.5484153,24.2903213 20.678537,24.7861564 C20.757373,25.0867242 20.9825429,25.3479384 21.2118454,25.6106538 C21.1436057,23.9023604 21.93578,22.6873286 23.1770227,21.7037007 C23.2325469,21.6597361 23.2904024,21.6184522 23.3492115,21.5788841 C24.6840189,20.6828638 25.4006421,21.0381193 25.5379692,22.6519424 C25.6262358,23.6900435 25.8183455,24.7031598 26.3653231,25.6112972 C26.7602446,26.2667989 27.2836985,26.7467638 28.078416,26.8090649 C29.4576216,26.9173679 30.2426964,25.9489669 29.7904492,24.6258464 C29.6108431,24.1003084 29.3121353,23.5756282 28.9422208,23.1666501 C28.3262618,22.4856275 27.6273343,21.8766639 26.9305261,21.2763861 C25.8843601,20.3750042 24.7488678,19.5714169 23.7637361,18.6084846 C22.6478468,17.5177332 22.1500358,16.1268429 22.3092972,14.5224561 C22.4993936,12.6066712 23.4814524,11.2613539 25.2415926,10.6209718 C28.1411457,9.56603548 30.9765915,9.67508917 33.5383367,11.5877644 C34.1557791,12.0487495 34.6480801,12.7294504 35.0759559,13.3900992 C35.5635946,14.1430736 35.5713298,15.0176478 35.2672179,15.8663793 C34.8192092,17.117119 33.9847559,18.0356578 32.8052893,18.6081629 C31.9412725,19.0276496 31.4079641,18.7430592 31.2330203,17.794603 C31.107243,17.1118647 31.084885,16.4052139 30.9115306,15.737059 C30.7616999,15.1598358 30.5176687,14.589797 30.2182191,14.0743387 C29.8307149,13.4070416 29.2163454,13.0332352 28.4192968,13.0361304 C27.2975796,13.0399907 26.5860426,13.8171993 26.8469218,14.9204967 C27.0059713,15.5932626 27.3380572,16.2574499 27.7254555,16.8339226 C28.3807265,17.808543 29.3404272,18.4686556 30.3379566,19.058961 C31.4726011,19.7305473 32.5338138,20.493387 33.3378559,21.5677321 C34.3611341,22.9352461 34.6799747,24.4682172 34.2661919,26.1227879 C33.7608575,28.1437662 32.2908422,29.1355436 30.4083156,29.583661 C28.4040382,30.0608379 25.7413109,30.1444779 23.1356974,28.3567266" id="Fill-4"></path>
                <path d="M36.1144821,5.93203832 C36.8277145,5.32361094 37.6196769,5.06368355 38.5260786,5.35009694 C40.3567897,5.92839248 40.9291982,8.27192094 39.5530655,9.62581663 C39.1778529,9.99501217 38.7209434,10.2827123 38.285968,10.5849959 C37.8505688,10.8876011 37.3732085,11.1320872 36.9559289,11.4566748 C36.5416162,11.7791177 36.1791191,12.1696522 35.7650183,12.5575059 C35.4462837,11.7095249 34.7213954,11.2418916 34.0056199,10.7643929 C33.490643,10.4208256 32.9688845,10.0871234 32.4627025,9.73068832 C31.0797882,8.75735463 31.3224419,6.98139863 32.0784831,6.03573048 C33.0226074,4.85511971 34.5891544,4.66210432 35.7405411,5.60712909 C35.86155,5.70642478 35.9772609,5.81247602 36.1144821,5.93203832" id="Fill-7"></path>
                <path d="M1.75851895,7.1570748 C1.63623843,4.59082803 4.30288628,3.25494711 5.96310399,3.63979834 C6.92142725,3.86198049 7.49478939,4.51137003 7.51460434,5.51483557 C7.54204858,6.89532449 7.15931267,8.12922895 6.1278754,9.07350311 C5.77120622,9.40012803 5.33252219,9.67721234 4.88377175,9.85124788 C3.30811198,10.4620343 2.16880507,9.78648049 1.87073305,8.10928403 C1.81489091,7.79531234 1.79496999,7.47458511 1.75851895,7.1570748" id="Fill-9"></path>
            </g>
        </g>
    </g>
</svg>