<?xml version="1.0" encoding="UTF-8"?>
<svg width="232px" height="80px" viewBox="0 0 232 80" version="1.1" xmlns="http://www.w3.org/2000/svg" xmlns:xlink="http://www.w3.org/1999/xlink">
    <!-- Generator: Sketch 44.1 (41455) - http://www.bohemiancoding.com/sketch -->
    <title>garena</title>
    <desc>Created with Sketch.</desc>
    <defs>
        <linearGradient x1="79.9492622%" y1="71.2086618%" x2="-4.56203495%" y2="13.7515234%" id="linearGradient-1">
            <stop stop-color="#F5404C" offset="0%"></stop>
            <stop stop-color="#BC0009" offset="51.1120855%"></stop>
            <stop stop-color="#E61E25" offset="100%"></stop>
        </linearGradient>
    </defs>
    <g id="Page-1" stroke="none" stroke-width="1" fill="none" fill-rule="evenodd">
        <g id="garena">
            <g id="Group" transform="translate(50.000000, 20.000000)">
                <path d="M28.2929948,7.03745078 C28.2455337,7.05776166 28.1945492,7.07973057 28.1433575,7.10169948 C28.1640829,7.12449741 28.1901969,7.17030052 28.2042902,7.1667772 C28.2585907,7.15351295 28.3089534,7.12449741 28.3607668,7.10128497 C28.3385907,7.08055959 28.3164145,7.05962694 28.2929948,7.03745078 L28.2929948,7.03745078 Z M35.8177617,9.59351295 C35.7864663,9.58460104 35.7553782,9.57009326 35.7242902,9.56988601 C35.714342,9.56967876 35.7041865,9.60781347 35.6940311,9.62833161 C35.7253264,9.63703627 35.7566218,9.65112953 35.7877098,9.65133679 C35.797658,9.65133679 35.8076062,9.61382383 35.8177617,9.59351295 L35.8177617,9.59351295 Z M34.702114,9.29423834 C34.7719585,9.35993782 34.8355855,9.46936788 34.9130984,9.48055959 C35.0156891,9.4948601 35.1288497,9.43247668 35.237658,9.40283938 C35.1506114,9.37030052 35.0660518,9.32304663 34.9763109,9.30916062 C34.8813886,9.2948601 34.7814922,9.31247668 34.6836684,9.316 C34.5528912,9.22688083 34.4308187,9.11434197 34.2867772,9.05879793 C34.2187979,9.03268394 34.1087461,9.116 34.0177617,9.14978238 C34.1093679,9.20636269 34.1955855,9.2944456 34.2944456,9.31185492 C34.4252228,9.33465285 34.5657409,9.30273575 34.702114,9.29423834 L34.702114,9.29423834 Z M46.7205596,21.7303005 C46.2442902,22.1039793 45.7854301,22.5031503 45.288228,22.8463627 C43.9624249,23.7620104 42.6173472,24.6494715 41.2886425,25.5607668 C41.1483316,25.6569326 41.0666736,25.8382798 40.957658,25.9800415 C41.156,25.9504041 41.354342,25.9207668 41.5528912,25.8911295 C41.5528912,25.8909223 41.5354819,25.8747565 41.5354819,25.8747565 C40.4716477,27.0409741 39.4059482,28.2055337 38.3452228,29.3746528 C38.1607668,29.5781762 38.0036684,29.8063627 37.8235648,30.0142383 C37.3108187,30.6071917 36.9271917,31.2426321 37.0386943,32.0774508 C37.0529948,32.1852228 36.9835648,32.3522694 36.8969326,32.4177617 C36.4378653,32.7651192 36.0654301,33.1197306 36.3879171,33.7688497 C36.4268808,33.847399 36.328228,34.0820104 36.2374508,34.1240829 C35.5309223,34.451544 35.2194197,35.3723731 34.3101969,35.4001451 C34.2216995,35.4028394 34.1387979,35.5787979 34.0529948,35.6745492 C34.1748601,35.6967254 34.303772,35.7570363 34.4171399,35.7352746 C35.6306114,35.502943 36.8420104,35.2585907 38.0532021,35.0150674 C38.3881244,34.9477098 38.7213886,34.8718549 39.0554819,34.7997306 L39.0374508,34.7798342 C37.7182798,35.3462591 36.407399,35.9342383 35.0755855,36.4695751 C34.4708187,36.7124767 33.8264663,36.8598342 33.1953782,37.0339275 C32.6154819,37.1941347 32.0699896,37.3665699 31.5222176,37.6782798 C30.8592124,38.0550674 30.0134093,38.1133057 29.2436684,38.2967254 C29.0440829,38.3443938 28.8264663,38.3195233 28.6285389,38.371544 C28.0683316,38.5189016 27.502114,38.5195233 26.9595233,38.8994197 C26.5321658,39.198487 25.8297824,39.0996269 25.2519585,39.1922694 C25.1319585,39.211544 25.022114,39.2950674 24.9075026,39.3487461 C25.0044974,39.4171399 25.0967254,39.4946528 25.1999378,39.5514404 C25.3070881,39.6105078 25.4252228,39.6496788 25.5383834,39.6971399 C25.4374508,39.7164145 25.3354819,39.7557927 25.2353782,39.7520622 C22.0389016,39.6312332 18.8140311,40.1255337 15.6488497,39.3402487 C12.8619067,38.649057 10.3164145,37.4654301 8.1798342,35.5101969 C5.14688083,32.7348601 4.16905699,29.3323731 5.21278756,25.3700933 C6.31081865,21.2022176 8.95392746,18.2216995 12.5537202,16.0047047 C14.7738238,14.6374508 17.1738238,13.6985907 19.689057,13.0401451 C19.9891606,12.9615959 20.2942383,12.9025285 20.5920622,12.8175544 C20.7097824,12.7839793 20.8142383,12.703772 20.9247047,12.6447047 C20.8279171,12.5719585 20.7410777,12.4619067 20.6328912,12.433513 C20.3334093,12.3547565 20.0268808,12.2981762 19.7201451,12.2540311 C16.0194197,11.7215959 12.4434611,12.0600415 9.0121658,13.663772 C6.8971399,14.6523731 4.66211399,15.2198342 2.30004145,15.0979689 C1.71786528,15.0679171 1.13776166,14.9659482 0.561803109,14.8670881 C0.366362694,14.833513 0.186880829,14.7083316 -6.21761658e-05,14.6250155 C0.128849741,14.4380725 0.234549223,14.2281244 0.391233161,14.0681244 C0.89734715,13.5499896 1.42936788,13.0571399 1.93734715,12.5408705 C2.22460104,12.249057 1.89651813,12.2544456 1.74149223,12.1831503 L1.75890155,12.2003523 C2.32201036,11.7199378 2.8975544,11.2532021 3.44449741,10.7549637 C3.97403109,10.2728912 4.46501554,9.74853886 4.99019689,9.26128497 C5.33050777,8.94584456 5.56304663,8.46874611 6.11952332,8.45154404 C6.13962694,8.47703627 6.15993782,8.50273575 6.18004145,8.52843523 C6.15372021,8.50833161 6.12739896,8.48822798 6.10107772,8.46812435 C6.6921658,7.30045596 7.54190674,6.356 8.59081865,5.58335751 L8.57278756,5.56553368 C8.36159585,5.95765803 8.14460104,6.34667358 7.94335751,6.74377202 C7.88594819,6.85651813 7.87454922,6.99268394 7.84221762,7.11807254 C7.95807254,7.09610363 8.0944456,7.10646632 8.18667358,7.04739896 C10.448228,5.60014508 12.7027358,4.14211399 14.9659482,2.69796891 C15.2103005,2.54190674 15.5014922,2.45921244 15.7709223,2.3425285 C15.902943,2.82667358 15.4395233,2.87206218 15.2105078,3.06543005 C14.2876062,3.84449741 13.3361036,4.58936788 12.4111295,5.36615544 C12.211544,5.53361658 12.0782798,5.7802487 11.914342,5.99040415 C11.8836684,6.03144041 11.8532021,6.07226943 11.8225285,6.11309845 C11.8486425,6.06750259 11.8747565,6.02211399 11.9008705,5.97651813 C12.2973472,5.78625907 12.7031503,5.61258031 13.0878135,5.40097409 C13.5383834,5.15309845 13.8718549,4.61092228 14.5265699,4.91703627 C14.6250155,4.96283938 14.8324767,4.79786528 14.9794197,4.71289119 C15.3611813,4.4917513 15.6136166,3.93237306 16.1991088,4.25734715 C16.4146528,3.73340933 16.9620104,3.88304663 17.3468808,3.71351295 C18.087399,3.38729534 18.8150674,3.03081865 19.7058446,3.23206218 C20.1033575,3.32201036 20.5852228,3.10853886 21.0134093,2.98128497 C23.8878135,2.12760622 26.7578653,1.2602487 29.6289534,0.396207254 C29.8268808,0.336518135 30.0185907,0.250715026 30.2196269,0.209264249 C30.2934093,0.193927461 30.3866736,0.271440415 30.4708187,0.306466321 C30.436829,0.363668394 30.4163109,0.440766839 30.3663627,0.474549223 C29.8088497,0.853409326 29.2681244,1.26335751 28.6822176,1.59289119 C25.0163109,3.65568912 21.342114,5.70335751 17.6660518,7.74770984 C16.8828394,8.18315026 16.0795233,8.58211399 15.2886425,9.00366839 C15.1906114,9.05610363 15.1116477,9.14460104 15.023772,9.21610363 C15.1226321,9.2121658 15.2304041,9.23268394 15.318487,9.20014508 C15.9325803,8.97340933 16.5487461,8.75040415 17.1522694,8.49776166 C18.0434611,8.12511917 18.9207668,7.71931606 19.8113368,7.34460104 C22.0049119,6.42169948 24.3089534,6.0440829 26.674342,5.98045596 C26.9750674,5.97258031 27.2463627,5.94750259 26.9618031,6.40118135 C26.8119585,6.63993782 27.0616995,6.76698446 27.2944456,6.74439378 C27.891544,6.68698446 28.4865699,6.60511917 29.0832539,6.54128497 C29.2347565,6.52511917 29.3895751,6.54045596 29.5427358,6.54107772 C29.4202487,6.6306114 29.3016995,6.72615544 29.1742383,6.80781347 C29.0764145,6.87040415 28.9671917,6.91579275 28.862943,6.96884974 C28.9982798,6.98439378 29.1352746,7.02273575 29.2687461,7.01237306 C31.6934093,6.82625907 33.900456,7.53403109 36.0304041,8.60988601 C36.5744456,8.88470466 36.8654301,9.29423834 36.9889534,9.85299482 C37.0144456,9.96905699 36.9439793,10.1062591 36.9178653,10.2337202 C36.8096788,10.1671917 36.7023212,10.0987979 36.5928912,10.0341347 C36.4820104,9.96884974 36.369057,9.90708808 36.2569326,9.84366839 C36.2840829,9.99848705 36.2567254,10.2177617 36.3489534,10.2958964 C36.6094715,10.516829 36.9023212,10.715171 37.2117513,10.8596269 C39.2614922,11.8165181 41.4167254,12.3972435 43.6675026,12.6241865 C46.5130984,12.9110259 49.2328912,12.4687461 51.8169326,11.2266736 C51.9048083,11.1843938 52.0185907,11.1955855 52.1201451,11.1819067 L52.1027358,11.1642902 C51.4455337,12.0979689 50.5684352,12.6289534 49.4395233,12.902943 C48.5591088,13.1166218 47.7390052,13.5893679 46.9041865,13.9729948 C46.5928912,14.116 46.3922694,14.4992124 45.9431503,14.3369326 C45.8556891,14.3052228 45.6876062,14.5101969 45.5506114,14.5964145 C45.4643938,14.6505078 45.3667772,14.6867772 45.274342,14.7313368 C45.035171,14.1358964 44.7234611,14.514342 44.3841865,14.6320622 C43.6044974,14.9023212 42.7933057,15.0069845 41.9653264,14.8975544 C41.5748601,14.4306114 41.2161036,14.8413886 40.8480207,14.9427358 C40.8231503,14.9495751 40.8144456,15.0161036 40.7982798,15.0550674 C41.0900933,15.0036684 41.3816995,14.9495751 41.6741347,14.9019067 C41.7758964,14.8853264 41.8803523,14.8840829 41.9835648,14.876 C42.2652228,15.3002487 42.6857409,14.9937202 43.0295751,15.0820104 C43.1325803,15.1083316 43.2109223,15.2308187 43.300456,15.3091606 C43.2250155,15.3636684 43.1539275,15.4575544 43.073513,15.4662591 C42.593513,15.5180725 42.1097824,15.5392124 41.6306114,15.5974508 C41.518487,15.6111295 41.4192124,15.7294715 41.3141347,15.7997306 C41.4007668,15.8451192 41.4849119,15.8961036 41.5744456,15.9338238 C41.6374508,15.9603523 41.7147565,15.956 41.7736166,15.9877098 C42.3358964,16.2919585 42.8954819,16.6011813 43.4558964,16.9087461 C42.874342,16.8863627 42.2919585,16.8355855 41.7112332,16.848228 C40.7808705,16.8683316 39.850715,16.9180725 38.9218031,16.9769326 C36.8418031,17.1091606 34.8780725,16.6718549 32.9889534,15.821285 C32.171544,15.4529948 31.3564145,15.0656373 30.5081244,14.782943 C27.0648083,13.6347565 23.7112332,13.8633575 20.4942383,15.5796269 C19.4813886,16.1201451 18.5904041,16.8272953 17.9394197,17.7982798 C17.8641865,17.9106114 17.793513,18.063772 17.6840829,18.1089534 C16.8341347,18.4594197 16.8380725,19.073513 17.129057,19.7924767 C17.1638756,19.878487 17.171544,19.9752746 17.1918549,20.0672953 C17.1052228,20.037658 17.011544,20.0206632 16.9329948,19.9765181 C16.116,19.517658 16.1153782,19.5153782 15.5493679,20.2214922 C15.4863627,20.3002487 15.4581762,20.4067772 15.3970363,20.487399 C15.2173472,20.7253264 14.8871917,20.9547565 14.8840829,21.1912332 C14.8809741,21.4281244 15.157658,21.730715 15.3895751,21.8936166 C15.6950674,22.1081244 15.5006632,22.2382798 15.3758964,22.3651192 C14.9089534,22.8393161 14.4262591,23.2981762 13.9479171,23.7611813 C13.5533057,24.1433575 13.1157927,24.4818031 13.1991088,25.1452228 C13.2457409,25.5166218 12.9510259,25.2092642 12.9178653,25.2353782 C12.7605596,25.3601451 12.5104041,25.6312332 12.5504041,25.6994197 C12.8455337,26.2032539 12.4434611,26.5350674 12.2592124,26.8666736 C11.7512332,27.7816995 11.9186943,28.7557927 11.9354819,29.7068808 C11.9475026,30.3901969 12.0726839,31.0818031 12.2293679,31.7504041 C13.0643938,35.3112332 15.5877098,37.2480207 19.104601,37.6575544 C20.9684352,37.8747565 22.821285,37.6677098 24.6277098,37.0929948 C28.3068808,35.9226321 30.4494715,33.3114404 31.5986943,29.7479171 C31.9964145,28.514342 32.2013886,27.2548601 31.9180725,25.9758964 C31.4583834,23.8998342 30.0942383,22.5657409 28.1464663,21.9236684 C26.197658,21.2811813 24.1659482,21.0977617 22.1213886,21.5110259 C21.8187979,21.5721658 21.5149637,21.6594197 21.2324767,21.7823212 C20.0268808,22.3058446 19.1694715,23.5458446 19.9338238,25.0923731 C20.1744456,25.5787979 20.4990052,26.0432539 20.8652228,26.4447047 C22.1694715,27.8747565 21.7688497,29.8938238 19.9883316,30.7155855 C17.7346528,31.7555855 14.5721658,30.0069845 14.3035648,27.5470881 C14.1875026,26.4818031 14.5367254,25.4971399 15.0546528,24.5843938 C15.9941347,22.928228 17.4285389,21.8250155 19.1410777,21.0625285 C21.9244974,19.8233575 24.8616995,19.5787979 27.8565181,19.7810777 C29.3396269,19.8811813 30.8071917,20.1050155 32.2009741,20.6556891 C32.7450155,20.8706114 33.3153782,21.0689534 33.7926839,21.3939275 C35.1398342,22.3108187 36.582943,22.5101969 38.1419067,22.1642902 C38.4706114,22.0913368 38.811544,22.0747565 39.1468808,22.0322694 C38.8886425,22.2333057 38.6281244,22.4318549 38.3734093,22.6374508 C38.2952746,22.700456 38.2322694,22.7823212 38.1624249,22.8556891 C38.2519585,22.8728912 38.3419067,22.9077098 38.4308187,22.904601 C40.0503005,22.8494715 41.6697824,22.7970363 43.2886425,22.7288497 C44.2306114,22.6892642 45.1288497,22.4650155 45.9750674,22.0362073 C46.2150674,21.9145492 46.4778653,21.8380725 46.7300933,21.7406632 L46.7205596,21.7303005 Z" id="Fill-1" fill="url(#linearGradient-1)"></path>
                <path d="M86.1807876,18.641658 C86.1807876,20.677513 86.1689741,22.7135751 86.1876269,24.7494301 C86.1936373,25.3968912 86.2804767,25.4364767 87.044,25.4350259 C87.7965389,25.4337824 87.8719793,25.3941969 87.886487,24.7345078 C87.910114,23.665285 87.8898031,22.5952332 87.8964352,21.5255959 C87.9043109,20.2491192 87.845658,18.9666321 87.9521865,17.6982383 C88.1140518,15.7641451 89.1654508,14.44 91.0131192,13.8010363 C91.3973679,13.6681865 91.8205803,13.6389637 92.2290777,13.5896373 C92.538715,13.5521244 92.7629637,13.4609326 92.7592332,13.0996891 C92.7569534,12.8926425 92.7532228,12.6851813 92.7642073,12.4787565 C92.7874197,12.0443523 92.644829,11.8851813 92.1606839,11.919171 C90.3213057,12.0484974 88.9685596,12.9063212 88.0599585,14.4965803 C88.0137409,14.5776166 87.9242073,14.6339896 87.8547772,14.7017617 C87.8245181,14.6153368 87.7689741,14.5293264 87.7677306,14.442487 C87.7584041,13.8215544 87.7540518,13.2002073 87.7606839,12.5792746 C87.7642073,12.2358549 87.6093886,12.1013472 87.2686632,12.0675648 C86.3544663,11.9769948 86.1843109,12.1090155 86.1807876,13.051399 C86.1737409,14.9148187 86.178715,16.7782383 86.178715,18.641658 L86.1807876,18.641658 Z M107.066798,19.6182383 C107.066798,21.2762694 107.059337,22.9343005 107.074881,24.5921244 C107.077368,24.8509845 107.133741,25.2998964 107.253534,25.332228 C107.638197,25.4356477 108.086487,25.4623834 108.464311,25.3554404 C108.613119,25.3129534 108.708456,24.8406218 108.711358,24.5626943 C108.731876,22.5251813 108.707834,20.4870466 108.731047,18.4493264 C108.738508,17.7968912 108.776642,17.1303627 108.918819,16.4965803 C109.483793,13.9745078 111.433637,12.7533679 114.066798,13.3013472 C114.961513,13.4876684 115.641927,14.0630052 115.913223,14.9531606 C116.101409,15.5701554 116.203378,16.2346114 116.215606,16.88 C116.253326,18.8826943 116.22887,20.8866321 116.229699,22.8899482 C116.230114,23.546114 116.232601,24.202487 116.23571,24.8586528 C116.237161,25.2265285 116.387834,25.4493264 116.791772,25.4325389 C117.033223,25.4225907 117.288974,25.4719171 117.511979,25.4060104 C117.671979,25.3587565 117.857057,25.1873575 117.908456,25.0310881 C117.980788,24.8109845 117.945969,24.5535751 117.946176,24.3119171 C117.947627,21.8250777 117.958197,19.3380311 117.93913,16.851399 C117.93457,16.2331606 117.88628,15.6047668 117.764,15 C117.511979,13.7558549 116.901824,12.7332642 115.670736,12.228601 C114.282342,11.6596891 112.835088,11.5564767 111.42058,12.0516062 C110.757368,12.2837306 110.164207,12.7473575 109.580166,13.1635233 C109.263275,13.3894301 109.032601,13.7357513 108.762964,14.027772 C108.749285,13.6151295 108.735606,13.2022798 108.721927,12.7896373 C108.718404,12.6860104 108.752187,12.5566839 108.70286,12.4845596 C108.599855,12.3343005 108.472601,12.1328497 108.320062,12.0953368 C107.388663,11.8654922 107.070943,12.1255959 107.068249,13.0901554 C107.063275,14.9898446 107.066798,16.8895337 107.066798,18.7892228 C107.066798,19.0656995 107.066591,19.3419689 107.066798,19.6182383 L107.066798,19.6182383 Z M95.4203731,17.8290155 C94.962342,17.8325389 94.7606839,17.664456 94.9478342,17.2076684 C95.2711503,16.4180311 95.4875233,15.5510881 95.961513,14.8632124 C97.589285,12.5017617 100.942653,12.5784456 102.46286,15.0035233 C102.870528,15.653886 103.05457,16.4524352 103.291047,17.1989637 C103.422031,17.6136788 103.213741,17.8339896 102.753845,17.8294301 C101.514466,17.8167876 100.274881,17.8250777 99.0352953,17.8250777 C97.8303212,17.8256995 96.6253472,17.8194819 95.4203731,17.8290155 L95.4203731,17.8290155 Z M100.818715,19.2472539 C101.993016,19.2468394 103.167316,19.239171 104.341409,19.2499482 C104.741409,19.2534715 104.987212,19.1724352 104.996539,18.6899482 C105.030736,16.9104663 104.613326,15.2733679 103.567523,13.8134715 C101.432601,10.8331606 95.6006839,10.8773057 93.8514611,15.227772 C93.0661762,17.1809326 92.9472124,19.1865285 93.4371606,21.2225907 C94.126487,24.0870466 96.0035855,25.6961658 98.9438964,25.784456 C102.006902,25.8766839 103.978715,24.5871503 104.82058,21.6298446 C104.977264,21.079171 104.934155,21.024456 104.408145,20.9825907 C103.487109,20.9094301 103.420788,20.9231088 103.057679,21.8412435 C101.838819,24.9251813 97.777886,25.1620725 96.0042073,22.8797927 C95.322342,22.0022798 95.0265907,20.9881865 94.8580933,19.9226943 C94.7660725,19.3401036 94.832601,19.2590674 95.430943,19.253057 C96.8813057,19.2389637 98.3318756,19.2484974 99.7824456,19.2478756 C100.127938,19.2472539 100.473223,19.2474611 100.818715,19.2472539 L100.818715,19.2472539 Z M77.3480415,24.3649741 C76.4524974,24.4841451 75.6323938,24.2940933 74.8827565,23.801658 C73.6052435,22.9622798 73.2661762,20.5952332 75.1426528,19.8385492 C75.9967461,19.4940933 76.9159171,19.294715 77.8197513,19.0924352 C78.8597513,18.8601036 79.9177824,18.7108808 80.9619275,18.4957513 C81.2672124,18.4327461 81.325658,18.5589637 81.3302176,18.7964767 C81.3356062,19.106943 81.3314611,19.4178238 81.3314611,19.652228 C81.5584041,22.2976166 79.8537409,24.0319171 77.3480415,24.3649741 L77.3480415,24.3649741 Z M82.991772,19.3048705 C82.991772,18.0963731 83.0218238,16.8868394 82.9849326,15.6793782 C82.923171,13.6443523 81.8972642,12.4093264 79.9051399,11.9533679 C78.6066943,11.6561658 77.2939482,11.6725389 76.0129119,12.0302591 C75.4585078,12.1848705 74.9057617,12.4387565 74.4288705,12.7610363 C73.3899067,13.4632124 72.9121865,14.5181347 72.8052435,15.7456995 C72.7921865,15.8940933 72.8690777,16.1782383 72.9273161,16.184456 C73.3318756,16.2279793 73.7594404,16.2822798 74.1434819,16.1871503 C74.3030674,16.1475648 74.4224456,15.7606218 74.4773679,15.5133679 C74.7364352,14.3498446 75.4444145,13.6205181 76.5818238,13.3320207 C77.5320829,13.0909845 78.5043109,13.1027979 79.4510466,13.3438342 C79.8396477,13.4426943 80.2361244,13.642487 80.5451399,13.8978238 C81.3538446,14.5664249 81.4744663,15.4957513 81.2676269,16.4480829 C81.0680415,17.3662176 80.2670052,17.493057 79.4939482,17.5875648 C78.7751917,17.6752332 78.0471088,17.707772 77.3358135,17.8362694 C76.3880415,18.0076684 75.4338446,18.1892228 74.5173679,18.477513 C73.6821347,18.7398964 72.9807876,19.2497409 72.5621347,20.0731606 C71.3797513,22.398342 72.6518756,25.1398964 75.2006839,25.6341969 C77.5219275,26.0843523 79.6071088,25.708601 81.1041036,23.6447668 C81.1797513,23.5403109 81.3014093,23.4694301 81.401513,23.3830052 C81.4406839,23.4982383 81.4980933,23.6105699 81.5159171,23.7287047 C81.7252435,25.105285 82.6931192,25.7450777 84.0216166,25.4070466 C84.5012021,25.2849741 84.4427565,24.9340933 84.4408912,24.5948187 C84.4396477,24.3220725 84.4636891,24.0847668 84.0556062,24.0035233 C83.0516684,23.8037306 83.0050363,23.7193782 82.9965389,22.7235233 C82.9870052,21.5842487 82.9942591,20.4445596 82.9942591,19.3048705 L82.991772,19.3048705 Z M125.137057,24.3900518 C124.321306,24.4665285 123.579337,24.2315026 122.891668,23.7734715 C121.676124,22.9637306 121.313637,20.598342 123.232394,19.8080829 C124.112601,19.4455959 125.07799,19.2768912 126.015813,19.0717098 C126.988249,18.8588601 127.978715,18.7276684 128.952601,18.5197927 C129.307212,18.4439378 129.38514,18.574715 129.387005,18.8671503 C129.38887,19.1774093 129.387627,19.4876684 129.387627,19.7465285 C129.600891,22.1604145 128.05913,24.1158549 125.137057,24.3900518 L125.137057,24.3900518 Z M131.046694,19.1946114 C131.046694,18.0207254 131.072808,16.8460104 131.040477,15.6729534 C130.992601,13.9164767 130.168352,12.6603109 128.647938,12.1527461 C126.857472,11.5552332 125.040477,11.5668394 123.282756,12.2965803 C121.813119,12.9065285 121.064104,14.0835233 120.846694,15.6410363 C120.78058,16.1125389 120.951979,16.2820725 121.392601,16.2702591 C122.07944,16.2520207 122.429492,16.4327461 122.578922,15.3952332 C122.717782,14.4302591 123.353223,13.7856995 124.26058,13.4621762 C125.434881,13.0433161 126.632187,13.0704663 127.815813,13.4387565 C128.072394,13.5187565 128.320477,13.6679793 128.535192,13.8337824 C129.234674,14.3734715 129.576435,15.5684974 129.326073,16.4690155 C129.069078,17.3933679 128.298508,17.4887047 127.53457,17.5865285 C126.850425,17.6744041 126.15571,17.6996891 125.479855,17.8275648 C124.466591,18.0194819 123.432394,18.1846632 122.466383,18.5278756 C120.92172,19.0766839 120.219544,20.2281865 120.224311,21.8889119 C120.22887,23.6377202 121.020995,24.8696373 122.566902,25.4290155 C124.520684,26.1359585 127.531668,25.9830052 129.027627,23.8018653 C129.108249,23.6847668 129.271979,23.6246632 129.397161,23.5380311 C129.455606,23.6594819 129.532083,23.7757513 129.57001,23.9034197 C129.945554,25.1666321 130.78742,25.6723316 132.035295,25.4151295 C132.492912,25.320829 132.550528,25.0312953 132.52628,24.6565803 C132.507005,24.3593782 132.584104,24.0700518 132.098922,24.0002073 C131.15343,23.8640415 131.066383,23.7380311 131.052912,22.8201036 C131.035295,21.6118135 131.04856,20.4033161 131.04856,19.1946114 L131.046694,19.1946114 Z M69.9072124,20.8035233 C69.9070052,22.1154404 69.8974715,23.427772 69.9121865,24.7394819 C69.9171606,25.1923316 69.8116684,25.4551295 69.282342,25.4422798 C68.645658,25.426943 68.566487,25.3958549 68.5142591,24.7763731 C68.4622383,24.1579275 68.4323938,23.5378238 68.3780933,22.9197927 C68.3666943,22.7917098 68.2889741,22.6696373 68.2417202,22.5448705 C68.1467979,22.6223834 68.0209948,22.6810363 67.9619275,22.7796891 C66.3986114,25.3906736 62.9882487,26.3001036 59.7967461,25.5548187 C57.0680415,24.917513 55.1979896,23.2387565 54.1669016,20.6741969 C52.9691813,17.6940933 52.9602694,14.6630052 54.2218238,11.7030052 C55.4960207,8.71378238 57.8085596,7.07005181 61.0661762,6.78445596 C63.2340518,6.59440415 65.2607876,6.96331606 67.0417202,8.28497409 C68.3751917,9.27440415 69.1412021,10.6308808 69.5308394,12.2265285 C69.6444145,12.691399 69.4991295,12.8698446 69.031772,12.824456 C68.8607876,12.8078756 68.684,12.8020725 68.5146736,12.8254922 C68.0512539,12.8897409 67.8272124,12.6889119 67.7148808,12.2412435 C67.083171,9.72455959 64.1610984,7.8292228 60.8852435,8.3361658 C58.5036891,8.70466321 56.777886,10.0126425 55.9244145,12.2387565 C54.6278342,15.6205181 54.698715,18.9562694 56.9515648,21.9670466 C58.4916684,24.0254922 61.3994404,24.7666321 64.0879378,23.9535751 C66.4379896,23.2431088 68.0253472,21.1927461 68.2574715,18.5680829 C68.2663834,18.4648705 68.2655544,18.360829 68.2777824,18.2582383 C68.3351917,17.7832124 68.164829,17.5716062 67.6491813,17.5817617 C66.3032746,17.6076684 64.9563316,17.5898446 63.6098031,17.5892228 C63.2989223,17.5890155 62.9874197,17.5734715 62.6777824,17.5915026 C62.2516684,17.6159585 62.0651399,17.4675648 62.0545699,17.0064249 C62.0330155,16.065285 62.0498031,16.011399 63.0002694,16.0080829 C64.9681451,16.0014508 66.9364352,16.000829 68.9045181,16.0084974 C69.8989223,16.012228 69.9030674,16.0230052 69.9067979,17.0744041 C69.9111503,18.317513 69.9076269,19.5604145 69.9072124,20.8035233 L69.9072124,20.8035233 Z" id="Fill-4" fill="#E61E25"></path>
                <path d="M79.503544,29.0979482 C79.4792953,28.9841658 79.3068601,28.901886 79.1997098,28.8059275 C79.1487254,28.9547358 79.0633368,29.102715 79.059399,29.2527668 C79.0571192,29.3481036 79.1762902,29.446342 79.3253057,29.6691399 C79.4233368,29.3806425 79.5306943,29.2249948 79.503544,29.0979482 L79.503544,29.0979482 Z M79.0453057,32.0061347 C79.0453057,32.5530777 79.0347358,33.1006425 79.0550466,33.6469637 C79.0587772,33.7439585 79.1910052,33.8361865 79.2639585,33.9306943 C79.3468601,33.8459275 79.5012642,33.7621969 79.5025078,33.6763938 C79.5176373,32.6171192 79.5163938,31.5576373 79.4979482,30.4985699 C79.4964974,30.4191917 79.3313161,30.3429223 79.2421969,30.2652021 C79.1756684,30.3667565 79.0558756,30.4658238 79.0511088,30.5700725 C79.0305907,31.048 79.0419896,31.527171 79.0419896,32.0059275 C79.0430259,32.0059275 79.0442694,32.0059275 79.0453057,32.0061347 L79.0453057,32.0061347 Z M102.524062,29.2608497 C102.518052,29.1087254 102.348933,28.9632332 102.255254,28.8146321 C102.183959,28.9478964 102.051731,29.0807461 102.05028,29.2150466 C102.035358,30.6552539 102.035358,32.0958756 102.050694,33.5360829 C102.052145,33.6683109 102.187896,33.7992953 102.261264,33.9306943 C102.353285,33.7800207 102.518052,33.632456 102.524477,33.4782591 C102.553699,32.7936995 102.537119,32.1070674 102.537119,31.421057 C102.536912,30.7008497 102.55287,29.9800207 102.524062,29.2608497 L102.524062,29.2608497 Z M99.7497617,32.0834404 C99.7497617,32.6303834 99.7431295,33.1775337 99.7582591,33.7238549 C99.7599171,33.7945285 99.9074819,33.9302798 99.9311088,33.9190881 C100.032663,33.8697617 100.184788,33.7816788 100.189762,33.6998135 C100.220228,33.1881036 100.228933,32.674114 100.220435,32.1613679 C100.208829,31.4707979 100.475979,30.9771192 101.140228,30.7180518 C101.326964,30.6453057 101.720332,30.7006425 101.54085,30.3284145 C101.494632,30.2328705 101.114321,30.2562902 100.901472,30.2969119 C100.747482,30.326342 100.599295,30.4571192 100.478466,30.5735959 C100.24199,30.8017824 100.241782,30.5858238 100.169865,30.4419896 C100.13256,30.3673782 99.9864456,30.263544 99.969658,30.2763938 C99.8774301,30.3478964 99.7481036,30.4486218 99.7439585,30.5441658 C99.7224041,31.0564974 99.7335959,31.5700725 99.7335959,32.0832332 C99.7391917,32.0834404 99.7445803,32.0834404 99.7497617,32.0834404 L99.7497617,32.0834404 Z M127.161368,32.0494508 C127.161368,32.5980518 127.149554,33.1470674 127.173389,33.6944249 C127.177119,33.7839585 127.342093,33.9377409 127.426446,33.9335959 C127.519295,33.9290363 127.676187,33.7816788 127.682197,33.6882073 C127.716394,33.1758756 127.733596,32.660228 127.717016,32.1468601 C127.69401,31.446342 127.95971,30.953285 128.635772,30.7118342 C128.732145,30.6776373 128.854632,30.6730777 128.919917,30.608829 C128.978777,30.5507979 128.994528,30.4295544 128.991627,30.3373264 C128.990383,30.2960829 128.889244,30.2169119 128.846549,30.2247876 C128.617741,30.2676891 128.369865,30.2911088 128.171938,30.3999171 C127.900435,30.5493472 127.648415,30.901057 127.514528,30.2950466 C127.396187,30.365513 127.179606,30.4301762 127.175254,30.5074819 C127.144373,31.0198135 127.159088,31.5350466 127.159088,32.0494508 C127.159917,32.0494508 127.160539,32.0494508 127.161368,32.0494508 L127.161368,32.0494508 Z M78.2254093,33.6162902 C77.6266528,33.5489326 77.6699689,33.1118342 77.6714197,32.6929741 C77.6728705,32.2799171 77.6774301,31.8666528 77.6695544,31.4535959 C77.6616788,31.0256166 77.6345285,30.5936995 78.2579482,30.6098653 C78.2571192,30.4853057 78.2562902,30.3609534 78.2556684,30.2363938 C77.7333886,30.2612642 77.6363938,29.9485181 77.6498653,29.5120415 C77.6527668,29.4098653 77.5228187,29.3037513 77.4542176,29.1995026 C77.3603316,29.3112124 77.235772,29.4092435 77.1796062,29.5375337 C77.0902798,29.7412642 77.0981554,30.1126632 76.9754611,30.1551503 C76.393285,30.356601 76.4057202,30.4685181 76.9592953,30.6958756 C77.0780518,30.7447876 77.1495544,31.0289326 77.1561865,31.2077927 C77.1800207,31.861057 77.1458238,32.516601 77.1740104,33.1694508 C77.2030259,33.8473782 77.5340104,34.1072746 78.1709016,33.9984663 C78.2544249,33.9841658 78.327171,33.9085181 78.4428187,33.8384663 C78.3507979,33.7408497 78.2944249,33.6239585 78.2254093,33.6162902 L78.2254093,33.6162902 Z M73.6509016,33.6882073 C74.5528705,34.4490363 75.9485181,34.0695544 76.248,32.9756684 C76.2759793,32.8734922 76.1943212,32.7412642 76.1638549,32.6229223 C76.0465492,32.6726632 75.9118342,32.701057 75.8179482,32.7789845 C75.7466528,32.8380518 75.7414715,32.969658 75.6830259,33.0527668 C75.0670674,33.9317306 74.0807461,33.8664456 73.687171,32.875772 C73.5327668,32.4875855 73.5213679,32.0011606 73.5823005,31.579399 C73.6612642,31.0320415 74.0336995,30.6436477 74.6059275,30.5510052 C75.101057,30.4710052 75.4687254,30.7029223 75.7056166,31.1414715 C75.7381554,31.2017824 75.7559793,31.2956684 75.8048912,31.3163938 C75.9178446,31.3644767 76.0459275,31.3771192 76.1677927,31.4040622 C76.181886,31.2782591 76.2558756,31.0981554 76.1995026,31.0353575 C75.9360829,30.741886 75.6828187,30.3559793 75.3420933,30.2301762 C74.087171,29.7673782 72.9738031,30.6946321 72.9893472,32.314943 C72.9893472,32.739399 73.1675855,33.2807461 73.6509016,33.6882073 L73.6509016,33.6882073 Z M55.0239585,30.6148394 C55.6739067,30.3764974 56.0716269,30.6900725 56.3767047,31.2185699 C56.3936995,31.2482073 56.4098653,31.2917306 56.4359793,31.3006425 C56.5497617,31.3387772 56.6668601,31.366342 56.7831295,31.3976373 C56.8038549,31.2707979 56.8884145,31.0846839 56.8345285,31.0266528 C56.5644767,30.7348394 56.302715,30.3650984 55.956601,30.2270674 C54.9545285,29.8278964 53.9849948,30.4082073 53.6701762,31.5091399 C53.354943,32.6123523 53.8933886,33.7563938 54.8890363,33.9862383 C55.2376373,34.0668601 55.6875855,34.0906943 55.9800207,33.9335959 C56.3400207,33.7400207 56.5963938,33.3404352 56.8662383,33.0048912 C56.9147358,32.9447876 56.8131813,32.7636477 56.7806425,32.6382591 C56.6699689,32.6842694 56.5333886,32.7045803 56.4552539,32.7831295 C56.3626114,32.8761865 56.3342176,33.0295544 56.2540104,33.139399 C55.7023005,33.8933886 54.7572228,33.8276891 54.3443731,32.9881036 C54.2125596,32.7199171 54.1837513,32.4009534 54.1505907,32.2718342 C54.1520415,31.2942176 54.4281036,30.833285 55.0239585,30.6148394 L55.0239585,30.6148394 Z M61.5997098,33.528 C61.6073782,33.6658238 61.7377409,33.7968083 61.8119378,33.9309016 C61.9029223,33.781886 62.0623005,33.6372228 62.0726632,33.4828187 C62.1070674,32.9692435 62.0631295,32.450487 62.0981554,31.9371192 C62.1184663,31.6378446 62.182715,31.3201244 62.3155648,31.0552539 C62.5130777,30.6620933 63.0710052,30.4531813 63.4633368,30.5646839 C63.9246839,30.6956684 64.1226114,31.0268601 64.1294508,31.4894508 C64.1329741,31.7300725 64.1329741,31.9706943 64.1340104,32.2113161 C64.1362902,32.6583627 64.1195026,33.1066528 64.1510052,33.5514197 C64.1605389,33.6869637 64.3020933,33.8129741 64.3831295,33.9433368 C64.4884145,33.8376373 64.6836477,33.7325596 64.6844767,33.6262383 C64.6892435,32.8038549 64.7211606,31.9731813 64.6175337,31.1613679 C64.515772,30.3646839 63.9244767,30.0343212 63.1250984,30.1126632 C62.6927668,30.154943 62.3126632,30.7248912 61.8293472,30.2500725 C61.7491399,30.380228 61.6077927,30.5066528 61.5999171,30.6411606 C61.5717306,31.1207461 61.5889326,31.6032332 61.5891399,32.0844767 C61.5895544,32.5659275 61.5733886,33.0482073 61.5997098,33.528 L61.5997098,33.528 Z M65.4220933,32.0645803 C65.4220933,32.5136995 65.3907979,32.9659275 65.4368083,33.4102798 C65.4560829,33.5970155 65.6384663,33.767171 65.7464456,33.9447876 C65.8303834,33.7806425 65.9767047,33.6200207 65.9866528,33.4515233 C66.0189845,32.9006425 65.9837513,32.3460311 66.0075855,31.7943212 C66.0413679,31.0196062 66.4670674,30.5476891 67.1043731,30.5342176 C67.6921451,30.5215751 68.0233368,30.9445803 68.0442694,31.7646839 C68.0598135,32.3858238 68.0450984,33.008 68.0672746,33.6289326 C68.0710052,33.7317306 68.1959793,33.8301762 68.2649948,33.930487 C68.3522487,33.8492435 68.5147358,33.7686218 68.5153575,33.6865492 C68.5230259,32.7903834 68.5400207,31.8915233 68.4801244,30.9986736 C68.4500725,30.5522487 68.1103834,30.2911088 67.660228,30.1773264 C67.1986736,30.0606425 66.7769119,30.1130777 66.3706943,30.3534922 C66.2415751,30.4299689 66.1592953,30.5742176 65.9574301,30.3684145 C65.674114,30.0797098 65.4509016,30.2359793 65.4347358,30.6144249 C65.4144249,31.0971192 65.4299689,31.5812642 65.4299689,32.0645803 L65.4220933,32.0645803 Z M80.354114,32.049658 C80.354114,32.5648912 80.3358756,33.0813679 80.3673782,33.5945285 C80.3748394,33.7186736 80.5472746,33.8326632 80.6438549,33.9512124 C80.7346321,33.8289326 80.8975337,33.7103834 80.9041658,33.583544 C80.9348394,33.0009534 80.9066528,32.4154611 80.9284145,31.8320415 C80.9590881,31.0123523 81.4191917,30.5093472 82.0815751,30.5342176 C82.6506943,30.555772 82.9499689,30.9796062 82.9675855,31.8111088 C82.9804352,32.4293472 82.9698653,33.048 82.994943,33.6656166 C82.9986736,33.7580518 83.1412642,33.8450984 83.2198135,33.9346321 C83.2983627,33.8428187 83.4426114,33.752456 83.4448912,33.6587772 C83.4633368,32.8695544 83.4952539,32.0772228 83.4459275,31.2906943 C83.393285,30.4448912 82.8152539,30.0388808 81.9657202,30.112456 C81.5190881,30.1510052 81.1182591,30.6900725 80.6274819,30.2419896 C80.5354611,30.3634404 80.3729741,30.4805389 80.3646839,30.6075855 C80.3333886,31.0865492 80.3522487,31.5686218 80.3522487,32.049658 C80.3528705,32.049658 80.3534922,32.049658 80.354114,32.049658 L80.354114,32.049658 Z M98.5903834,32.1139067 C98.5646839,31.9087254 98.5576373,31.7362902 98.5199171,31.5709016 C98.3837513,30.9694508 97.942715,30.5640622 97.4019896,30.5294508 C96.9259275,30.4991917 96.4707979,30.8334922 96.2336995,31.3709016 C95.9955648,31.9097617 96.0322487,32.4376373 96.288,32.9536995 C96.5203316,33.4223005 96.9986736,33.7219896 97.4376373,33.6540104 C97.9483109,33.5750466 98.3265492,33.2991917 98.4776373,32.7870674 C98.5445803,32.5605389 98.5578446,32.3180518 98.5903834,32.1139067 L98.5903834,32.1139067 Z M95.5783627,32.0745285 C95.5876891,30.9184663 96.3574301,30.0722487 97.3769119,30.0973264 C98.3930777,30.1224041 99.1706943,31.007171 99.1563938,32.1219896 C99.1420933,33.2430259 98.3470674,34.1023005 97.3294508,34.0964974 C96.3062383,34.0906943 95.568829,33.2390881 95.5783627,32.0745285 L95.5783627,32.0745285 Z M129.408622,31.0575337 C129.340435,31.6262383 129.644891,31.9489326 130.495668,32.2044767 C130.79142,32.2931813 131.113492,32.3309016 131.377119,32.475772 C131.560332,32.5762902 131.77629,32.8225078 131.772974,32.9997098 C131.769451,33.1800207 131.549762,33.4162902 131.364477,33.5217824 C130.795358,33.8448912 130.474943,33.6996062 129.755979,32.9126632 C129.680539,32.8299689 129.523855,32.8214715 129.404684,32.7787772 C129.379813,32.901057 129.308311,33.0361865 129.337948,33.1433368 C129.547896,33.8962902 130.327378,34.2384663 131.284477,34.0152539 C131.986653,33.8515233 132.347067,33.4809534 132.336705,32.9335959 C132.327171,32.4426114 131.98313,32.0790881 131.344166,31.8923523 C130.981472,31.7864456 130.600746,31.7232332 130.26085,31.5684145 C130.113285,31.5012642 129.958466,31.2453057 129.971316,31.0884145 C129.983751,30.9313161 130.172974,30.7217824 130.334218,30.6554611 C130.92344,30.4129741 131.402404,30.5559793 131.723233,31.1483109 C131.766342,31.2281036 131.951627,31.2310052 132.071212,31.2693472 C132.095047,31.1468601 132.167171,31.0092435 132.134425,30.9041658 C131.98085,30.408 131.450487,30.0958756 130.817741,30.0985699 C130.051523,30.1016788 129.476187,30.4931813 129.408622,31.0575337 L129.408622,31.0575337 Z M60.4252021,32.247171 C60.3901762,31.9466528 60.3905907,31.7352539 60.3379482,31.5379482 C60.1837513,30.9619896 59.6652021,30.5253057 59.1642694,30.5232332 C58.6641658,30.5213679 58.0842694,30.9491399 58.0019896,31.5327668 C57.9373264,31.9891399 57.9988808,32.4894508 58.1203316,32.9387772 C58.2486218,33.4135959 58.6867565,33.6556684 59.1574301,33.6573264 C59.6285181,33.6591917 60.0187772,33.4069637 60.2106943,32.9476891 C60.314943,32.6981554 60.3713161,32.4285181 60.4252021,32.247171 L60.4252021,32.247171 Z M60.9723523,32.141057 C60.9439585,33.2689326 60.1294508,34.1298653 59.1182591,34.1004352 C58.1087254,34.0712124 57.3219896,33.1617824 57.3493472,32.0556684 C57.3773264,30.9261347 58.1918342,30.0652021 59.2036477,30.0956684 C60.2121451,30.1259275 61.0003316,31.0372228 60.9723523,32.141057 L60.9723523,32.141057 Z M70.8417824,31.8245803 C71.046342,31.8245803 71.2513161,31.8245803 71.4558756,31.8243731 C71.4900725,31.8243731 71.5244767,31.8260311 71.5580518,31.8220933 C71.9789845,31.7740104 72.0699689,31.5995026 71.875772,31.2121451 C71.5215751,30.5043731 70.7052021,30.3060311 70.1829223,30.8438549 C69.9883109,31.0444767 69.9238549,31.3713161 69.8003316,31.6407461 C70.0448912,31.7025078 70.2884145,31.7709016 70.5354611,31.8225078 C70.6334922,31.8430259 70.739399,31.8260311 70.8417824,31.8245803 L70.8417824,31.8245803 Z M70.6579482,30.0973264 C71.715772,30.0625078 72.5468601,30.9037513 72.5516269,31.8150466 C72.553285,32.1290363 72.3791917,32.2469637 72.1031295,32.2519378 C71.4838549,32.2633368 70.863544,32.2465492 70.2453057,32.2743212 C69.7406425,32.2969119 69.6573264,32.4674819 69.8695544,32.9367047 C70.2546321,33.7893472 71.1449948,33.9095544 71.7831295,33.2015751 C71.9445803,33.0225078 71.9692435,32.592456 72.3396062,32.8019896 C72.3978446,32.8351503 72.2772228,33.368829 72.1151503,33.5719378 C71.5945285,34.2241658 70.4164974,34.2558756 69.7922487,33.6830259 C68.9783627,32.9364974 68.967171,31.2204352 69.8109016,30.5170155 C70.087171,30.2865492 70.4720415,30.1860311 70.6579482,30.0973264 L70.6579482,30.0973264 Z M124.968829,31.8260311 C125.036808,31.8260311 125.10686,31.8363938 125.17256,31.8241658 C125.453389,31.7719378 125.788933,31.7876891 125.995772,31.633285 C126.164062,31.5074819 125.747275,30.8575337 125.399503,30.6726632 C124.931523,30.4237513 124.36199,30.556601 124.066031,31.0322487 C123.952456,31.2146321 123.902922,31.4705907 123.924477,31.6830259 C123.931109,31.7478964 124.26914,31.7947358 124.459399,31.8206425 C124.626446,31.8434404 124.798881,31.8254093 124.968829,31.8260311 L124.968829,31.8260311 Z M125.101057,34.1122487 C124.320953,34.047171 123.822301,33.8376373 123.529451,33.3045803 C123.077637,32.4819896 123.092145,31.648 123.569244,30.8432332 C123.91743,30.2562902 124.606964,29.9961865 125.268104,30.154943 C125.968,30.3230259 126.455254,30.8890363 126.549762,31.6065492 C126.606342,32.0361865 126.47743,32.2678964 126.010487,32.2625078 C125.423751,32.2554611 124.836808,32.2681036 124.249865,32.2722487 C123.866446,32.2751503 123.781679,32.4906943 123.874528,32.8156684 C123.998259,33.2502798 124.284684,33.5344249 124.724684,33.632456 C125.171523,33.7319378 125.521782,33.5534922 125.82458,33.221886 C125.991627,33.0390881 126.206342,32.8996062 126.399503,32.7406425 C126.657948,33.142715 126.349347,33.4355648 126.116187,33.6131813 C125.777119,33.8716269 125.339399,34.0011606 125.101057,34.1122487 L125.101057,34.1122487 Z M115.497741,32.1122487 C115.100228,32.2119378 114.683855,32.2685181 114.313699,32.4303834 C114.136497,32.5078964 113.946446,32.7854093 113.946446,32.9725596 C113.946031,33.1609534 114.132767,33.4156684 114.309347,33.5261347 C114.966964,33.9369119 115.933389,33.3883109 115.976497,32.6075855 C115.994943,32.2739067 115.883648,32.0716269 115.497741,32.1122487 L115.497741,32.1122487 Z M113.409865,32.942715 C113.422922,32.4140104 113.679295,32.0828187 114.271212,31.9261347 C114.669762,31.8208497 115.096083,31.8158756 115.488415,31.6956684 C115.674114,31.6386736 115.952249,31.3984663 115.93629,31.2734922 C115.907275,31.0482073 115.73629,30.7628187 115.540435,30.6523523 C115.028933,30.3636477 114.564062,30.5389845 114.121782,31.0714197 C114.026238,31.1866528 113.883233,31.2620933 113.76199,31.3559793 C113.739192,31.168829 113.643648,30.9505907 113.707275,30.8005389 C113.928415,30.2815751 114.662715,30.0183627 115.414632,30.1381554 C116.165306,30.2575337 116.490694,30.5447876 116.554943,31.2500725 C116.601782,31.7638549 116.547482,32.2861347 116.580435,32.8019896 C116.596808,33.0552539 116.710798,33.3016788 116.776705,33.5522487 C116.805513,33.6629223 116.824166,33.7760829 116.847585,33.8882073 C116.718052,33.9089326 116.521782,33.9939067 116.469762,33.9398135 C116.101679,33.5574301 115.795565,33.7841658 115.402611,33.9199171 C115.008622,34.0556684 114.523648,34.0399171 114.103544,33.9597098 C113.60199,33.8641658 113.404684,33.4444767 113.409865,32.942715 L113.409865,32.942715 Z M106.226238,32.2598135 C106.195772,31.9387772 106.201368,31.727171 106.151834,31.5292435 C106.011523,30.9677927 105.483648,30.5282073 104.976083,30.5232332 C104.492145,30.5184663 103.988518,30.8587772 103.880746,31.449658 C103.793078,31.9302798 103.85629,32.4600207 103.956394,32.9462383 C104.048207,33.3912124 104.456912,33.6214715 104.883233,33.6560829 C105.356601,33.6944249 105.766135,33.4716269 105.982715,33.0307979 C106.11515,32.7609534 106.167793,32.4523523 106.226238,32.2598135 L106.226238,32.2598135 Z M106.782715,31.4722487 C106.782715,32.1588808 106.79287,32.845513 106.778363,33.5319378 C106.771523,33.8515233 106.685098,34.0828187 106.27743,33.850487 C106.151627,33.7787772 105.913907,33.7762902 105.790176,33.8490363 C104.901679,34.3706943 103.909969,33.9462383 103.532352,33.3078964 C103.024373,32.448829 103.188933,31.0225078 103.909969,30.4649948 C104.480332,30.0237513 105.132767,29.9640622 105.736912,30.3375337 C106.234943,30.645513 106.210487,30.3825078 106.207793,30.0291399 C106.205306,29.7205389 106.197845,29.409658 106.231005,29.1039585 C106.242404,28.9980518 106.368622,28.9041658 106.442197,28.8048912 C106.551212,28.9047876 106.747689,28.9988808 106.754528,29.1054093 C106.791627,29.6865492 106.782508,30.2710052 106.788104,30.8542176 C106.789969,31.060228 106.788311,31.2662383 106.788311,31.4722487 L106.782715,31.4722487 Z M94.1970155,33.6231295 C94.3959793,33.0743212 94.5700725,32.5161865 94.7505907,31.9605389 C94.8996062,31.502715 95.0560829,31.0465492 95.1812642,30.5820933 C95.2065492,30.4884145 95.1054093,30.3607461 95.0625078,30.2486218 C94.9483109,30.3029223 94.8034404,30.3306943 94.7284145,30.4185699 C94.6448912,30.5161865 94.6189845,30.6664456 94.5783627,30.7970155 C94.3854093,31.421057 94.1992953,32.0475855 94.0013679,32.6701762 C93.9661347,32.7808497 93.8857202,32.8770155 93.8260311,32.9798135 C93.7547358,32.8691399 93.6535959,32.7673782 93.6162902,32.6461347 C93.4140104,31.9887254 93.2413679,31.3217824 93.0256166,30.6691399 C92.9706943,30.5023005 92.7959793,30.3750466 92.6761865,30.2297617 C92.5250984,30.3798135 92.3396062,30.5089326 92.2336995,30.6859275 C92.1313161,30.8567047 92.112456,31.0772228 92.0548394,31.2751503 C91.9101762,31.7706943 91.770487,32.2674819 91.6144249,32.7592953 C91.5866528,32.846342 91.4898653,32.9114197 91.4249948,32.9868601 C91.3783627,32.9099689 91.3201244,32.8374301 91.2875855,32.754943 C91.2249948,32.594943 91.1725596,32.4303834 91.1234404,32.2654093 C90.9568083,31.7052021 90.8146321,31.1358756 90.6146321,30.5878964 C90.5613679,30.4426114 90.3344249,30.3609534 90.1870674,30.2498653 C90.1588808,30.3999171 90.0720415,30.5677927 90.1120415,30.6967047 C90.406342,31.6490363 90.7161865,32.5972228 91.047171,33.5371192 C91.1058238,33.703544 91.2877927,33.8262383 91.4127668,33.9690363 C91.5684145,33.8152539 91.8003316,33.6882073 91.8656166,33.5025078 C92.0942176,32.8550466 92.2614715,32.1860311 92.4606425,31.528 C92.4985699,31.4028187 92.5762902,31.2898653 92.635772,31.1711088 C92.6931813,31.2948394 92.7657202,31.4140104 92.8050984,31.5431295 C93.0046839,32.2013679 93.1789845,32.8676891 93.3999171,33.5184663 C93.4652021,33.7114197 93.6527668,33.8631295 93.8386736,34.1045803 C94.0111088,33.8782591 94.1452021,33.7657202 94.1970155,33.6231295 L94.1970155,33.6231295 Z M117.34458,33.0788808 C117.381679,33.3735959 117.118881,33.7930777 117.633907,33.930487 C117.702508,33.6538031 117.804891,33.3804352 117.832456,33.0996062 C117.892974,32.4861347 117.853803,31.8567047 117.97256,31.2569119 C118.072456,30.7530777 118.64199,30.450487 119.080746,30.5563938 C119.579192,30.6770155 119.684477,31.0540104 119.679503,31.5085181 C119.671627,32.1984663 119.668518,32.8890363 119.696912,33.5781554 C119.701886,33.7054093 119.864373,33.8264456 119.954321,33.9505907 C120.051938,33.8326632 120.22686,33.7190881 120.234114,33.5959793 C120.268311,33.0113161 120.243855,32.423544 120.26458,31.8378446 C120.295876,30.9493472 120.631627,30.5205389 121.256705,30.5331813 C121.859399,30.5452021 122.084684,30.8826114 122.099399,31.8171192 C122.108104,32.3690363 122.084062,32.9224041 122.118052,33.472456 C122.127793,33.6299689 122.288415,33.7781554 122.379813,33.9306943 C122.454632,33.7642694 122.586446,33.6005389 122.594321,33.4312124 C122.621472,32.8457202 122.61256,32.2585699 122.604891,31.6720415 C122.586238,30.2438549 121.774218,29.7242694 120.515772,30.3686218 C120.242197,30.5087254 120.095047,30.5997098 119.812974,30.3727668 C119.333596,29.9872746 118.786031,30.0533886 118.260228,30.3257202 C118.13857,30.3887254 118.031627,30.5217824 117.90914,30.5344249 C117.346238,30.5916269 117.341886,30.580228 117.335668,31.0100725 C117.330902,31.354943 117.334632,31.7000207 117.334632,32.0448912 C117.334632,32.3899689 117.301886,32.7391917 117.34458,33.0788808 L117.34458,33.0788808 Z M112.270798,32.0560829 C112.243855,31.8500725 112.235358,31.676601 112.197016,31.5101762 C112.063544,30.9286218 111.646549,30.543544 111.149762,30.5294508 C110.645098,30.514943 110.131316,30.8583627 110.038881,31.4245803 C109.964684,31.8780518 109.999088,32.381057 110.118674,32.8262383 C110.244269,33.2933886 110.664995,33.528 111.159503,33.5105907 C111.66313,33.4925596 111.981679,33.1781554 112.150798,32.7317306 C112.234321,32.5120415 112.236601,32.2616788 112.270798,32.0560829 L112.270798,32.0560829 Z M112.90313,32.3595026 C112.831005,33.0734922 112.799295,33.7945285 112.675358,34.4991917 C112.54686,35.2283109 111.952456,35.4774301 111.30458,35.529658 C110.674736,35.580228 110.058363,35.4701762 109.683648,34.8678964 C109.61028,34.7497617 109.642611,34.5657202 109.626238,34.4121451 C109.772352,34.4473782 109.937119,34.4511088 110.060642,34.5244767 C110.344373,34.6923523 110.583337,34.9760829 110.884269,35.0654093 C111.502922,35.2492435 112.072663,34.8714197 112.197223,34.249658 C112.234943,34.0620933 112.171938,33.8542176 112.154943,33.6554611 C111.999088,33.7049948 111.842611,33.7530777 111.687585,33.8046839 C110.613389,34.1624041 109.743959,33.7039585 109.475358,32.6376373 C109.165513,31.4067565 109.729865,30.339399 110.809658,30.1653057 C111.067896,30.1236477 111.348311,30.1773264 111.612145,30.2241658 C111.775876,30.2531813 111.924891,30.3995026 112.084891,30.4075855 C112.300642,30.4187772 112.520746,30.3474819 112.738777,30.3116269 C112.77256,30.5796062 112.825202,30.8469637 112.835979,31.115772 C112.85256,31.5277927 112.840539,31.9408497 112.840539,32.3534922 C112.861264,32.3553575 112.882404,32.3574301 112.90313,32.3595026 L112.90313,32.3595026 Z M86.9858238,32.0560829 C86.9588808,31.8498653 86.9503834,31.676601 86.9120415,31.5101762 C86.7787772,30.9286218 86.3615751,30.543544 85.8647876,30.5294508 C85.3601244,30.514943 84.846342,30.8583627 84.7536995,31.4245803 C84.6797098,31.8780518 84.714114,32.381057 84.8336995,32.8262383 C84.9592953,33.2933886 85.3800207,33.528 85.8745285,33.5105907 C86.3781554,33.4925596 86.6967047,33.1781554 86.8658238,32.7317306 C86.9493472,32.5120415 86.9518342,32.2616788 86.9858238,32.0560829 L86.9858238,32.0560829 Z M87.5984663,32.2710052 C87.5507979,32.9543212 87.541886,33.6430259 87.4475855,34.3197098 C87.2457202,35.7667565 85.3168083,35.7974301 84.566342,35.1023005 C84.445513,34.9903834 84.3628187,34.8245803 84.3000207,34.6687254 C84.2712124,34.5978446 84.3045803,34.4529741 84.3615751,34.4092435 C84.4214715,34.3632332 84.5771192,34.3580518 84.6320415,34.4044767 C84.7858238,34.5352539 84.8894508,34.7275855 85.0484145,34.8494508 C85.634943,35.2996062 86.5526632,35.1429223 86.8262383,34.5242694 C86.9294508,34.2906943 86.8906943,33.9943212 86.9163938,33.7265492 C86.7074819,33.7667565 86.4933886,33.7895544 86.2902798,33.8502798 C85.3302798,34.1375337 84.4353575,33.6923523 84.2283109,32.7170155 C84.126342,32.2361865 84.140228,31.6828187 84.2730777,31.210487 C84.5128705,30.3584663 85.393285,29.9512124 86.2465492,30.1930777 C86.3769119,30.2299689 86.4946321,30.3443731 86.6223005,30.3516269 C86.901057,30.3677927 87.4100725,30.2776373 87.4260311,30.3369119 C87.5284145,30.7242694 87.5309016,31.1396062 87.5530777,31.5462383 C87.5661347,31.7862383 87.5555648,32.0274819 87.5555648,32.2681036 C87.5698653,32.2691399 87.5841658,32.2701762 87.5984663,32.2710052 L87.5984663,32.2710052 Z" id="Fill-8" fill="#040606"></path>
                <path d="M46.7301969,21.7407461 C47.0777617,21.468829 47.4253264,21.1967047 47.7728912,20.9245803 L47.7529948,20.9048912 C47.4087461,21.1799171 47.0647047,21.4551503 46.720456,21.7301762 L46.7301969,21.7407461 Z" id="Fill-10" fill="#000000"></path>
            </g>
        </g>
    </g>
</svg>