<?xml version="1.0" encoding="UTF-8"?>
<svg width="232px" height="80px" viewBox="0 0 232 80" version="1.1" xmlns="http://www.w3.org/2000/svg" xmlns:xlink="http://www.w3.org/1999/xlink">
    <!-- Generator: Sketch 44.1 (41455) - http://www.bohemiancoding.com/sketch -->
    <title>grab</title>
    <desc>Created with Sketch.</desc>
    <defs></defs>
    <g id="Page-1" stroke="none" stroke-width="1" fill="none" fill-rule="evenodd">
        <g id="grab" fill="#06AB55">
            <path d="M111.222089,33.0969936 C105.668968,31.3504968 100.347694,35.1874395 100.299287,41.0093503 C100.260306,45.6786497 100.289096,50.3484586 100.296229,55.0180127 C100.296739,55.3352102 100.365274,55.6521529 100.39865,55.9369936 L102.943108,55.9369936 C102.943108,55.3892229 102.943108,54.9290955 102.943108,54.4694777 C102.944892,49.9273121 102.894955,45.3841274 102.96451,40.8427261 C103.019287,37.2656561 105.961962,34.8715159 109.470752,35.4271847 C110.001452,35.5112611 110.520688,35.6659108 111.052153,35.7894777 C111.433045,35.0238726 111.785656,34.3153376 112.171643,33.5395414 C111.816484,33.3716433 111.531643,33.1943185 111.222089,33.0969936 L111.222089,33.0969936 Z M115.018268,30.013172 C114.473299,29.7158471 114.050879,29.4310064 113.589223,29.2419618 C105.985146,26.1283312 96.0503694,30.4009427 95.8552102,40.6941911 C95.7884586,44.2129172 95.8447643,47.7336815 95.8447643,51.2536815 L95.8447643,55.9650191 L98.4401783,55.9650191 L98.4401783,54.6684586 C98.4404331,50.173172 98.4187771,45.6778854 98.4483312,41.1828535 C98.4661656,38.4761019 99.2101146,36.0274395 101.080688,33.9601783 C103.368841,31.4312611 108.193554,29.7003057 113.236357,31.9999236 C113.794064,31.3782675 114.368076,30.7380127 115.018268,30.013172 L115.018268,30.013172 Z M133.045783,41.0766115 C133.041452,36.7056561 129.956357,33.173172 125.822344,32.7920255 C121.309223,32.3757197 117.441452,35.2080764 116.673045,39.6068025 C116.456484,40.8460382 116.523236,42.1420892 116.528841,43.4116433 C116.551261,48.4776306 121.303873,52.4401783 126.251898,51.4299873 C128.896994,50.8898599 128.996357,50.8918981 128.521197,47.8381401 C126.314064,49.1107516 124.128841,49.3234904 121.768331,48.1087134 C118.238395,46.2924076 118.289605,38.2468025 121.516357,36.3851465 C123.479414,35.2526624 125.423618,34.9854013 127.431516,36.041707 C129.502854,37.1313885 130.435592,38.9688408 130.445529,41.2687134 C130.465146,45.7270573 130.451643,50.1854013 130.451643,54.6437452 L130.451643,55.9828535 L133.047057,55.9828535 C133.047057,50.9191592 133.051134,45.9981401 133.045783,41.0766115 L133.045783,41.0766115 Z M141.441962,47.6103694 C144.610879,44.0213248 147.652662,40.3028535 151.030242,36.9204331 C154.043236,33.9025987 159.147439,35.3986497 160.103108,39.4890955 C160.495975,41.1696051 160.422089,43.0569936 160.126293,44.775465 C159.751516,46.9553376 158.161962,48.3010701 156.009096,48.8050191 C153.833554,49.3143185 151.988968,48.5303694 150.788204,46.7454013 C149.83228,45.3247643 149.242471,43.657758 148.478904,42.0768662 C148.064892,42.5818344 147.513809,43.1668025 147.075592,43.8269299 C146.870242,44.1359745 146.724764,44.634828 146.821325,44.9706242 C147.692408,48.0055287 149.48349,50.2804331 152.572408,51.2455287 C155.538522,52.1721529 158.108459,51.3005605 160.46158,49.3367389 C163.885783,46.4783949 163.876611,38.6215796 161.030752,35.6475669 C159.020051,33.5461656 156.667694,32.4233631 153.754828,32.8215796 C151.571134,33.1201783 149.781325,34.3089682 148.300306,35.8684586 C145.994828,38.2964841 143.83814,40.8659108 141.529605,43.290879 C139.702344,45.2098599 138.568331,47.2875669 139.388459,50.1820892 C140.086038,49.3038726 140.725019,48.4225987 141.441962,47.6103694 L141.441962,47.6103694 Z M89.8870573,30.6126624 C90.0643822,29.4806879 89.5920255,28.8615796 88.5097325,28.6070573 C87.0707516,28.2687134 85.6559745,27.7718981 84.1996688,27.5698599 C75.2210701,26.3245096 67.7767389,32.5268025 68.5341911,41.057758 C68.9375032,45.5991592 71.0162293,49.0832357 75.0967389,51.1115159 C79.3357197,53.2185223 83.6317707,52.872535 87.7899873,50.6926624 C88.0860382,50.5375032 88.4585223,50.1581401 88.4643822,49.8758471 C88.5173758,47.3927898 88.4949554,44.9082038 88.4949554,42.3359745 L84.1329172,42.3359745 L79.8631083,42.3359745 L79.8631083,45.0246369 L86.0231083,45.0246369 C86.0231083,46.1443822 86.088586,47.126293 85.9884586,48.0911338 C85.9520255,48.4406879 85.580051,48.9438726 85.2572484,49.0450191 C82.8801783,49.7892229 80.450879,50.110242 77.9973758,49.4411975 C74.0205605,48.3568662 71.3092229,44.8475669 71.1408153,40.632535 C70.959414,36.0936815 73.4304968,32.2654013 77.7250191,30.8101146 C81.8743185,29.404 85.9008153,29.8490955 89.8743185,32.244 C89.8743185,31.6073121 89.810879,31.0990318 89.8870573,30.6126624 L89.8870573,30.6126624 Z M127.537248,52.9915159 C122.995338,54.2513885 118.353045,52.3013248 116.002981,48.217758 C114.710752,45.9726624 114.669223,43.5482038 114.692917,41.072535 C114.745401,35.5326624 119.331134,30.893172 124.806038,30.9020892 C130.429223,30.9110064 134.842981,35.3471847 134.862599,41.0345732 C134.87814,45.5326624 134.865656,50.0304968 134.865656,54.5283312 L134.865656,55.930879 L137.517631,55.930879 C137.517631,50.8343185 137.591261,45.8312611 137.496994,40.8315159 C137.402726,35.8218344 135.011898,32.0659108 130.628459,29.7339363 C126.304637,27.4338089 121.938013,27.6952102 117.848841,30.3769936 C113.327057,33.3423439 111.820561,37.7568662 111.991006,42.9961019 C112.248586,50.9224713 118.251898,56.5790318 125.943873,55.9938089 C128.676357,55.7861656 128.913299,55.4990318 128.629223,52.6952102 C128.260561,52.7950828 127.898268,52.8911338 127.537248,52.9915159 L127.537248,52.9915159 Z M146.292917,16.9999236 L146.292917,29.610879 C146.795083,29.255465 147.09521,28.9451465 147.460561,28.801707 C148.907694,28.234828 149.04349,27.128586 149.013427,25.7504968 C148.949732,22.8355924 149.058013,19.917121 149.095465,16.9999236 L146.292917,16.9999236 Z M141.70693,16.9999236 C141.744637,17.4597962 141.814191,17.9196688 141.814955,18.3795414 C141.823108,22.9983949 141.818522,27.6172484 141.823363,32.2361019 C141.823873,32.540051 141.875592,32.844 141.918395,33.3082038 C142.510497,32.6738089 142.918904,32.1206879 143.437885,31.7056561 C144.30642,31.0103694 144.555083,30.177758 144.537503,29.0763567 C144.472535,25.0518981 144.510242,21.0256561 144.509478,16.9999236 L141.70693,16.9999236 Z M167.694191,40.439414 C167.606548,40.1436178 167.469478,39.8534268 167.437631,39.5515159 C166.445529,30.1466752 155.606803,25.1367389 147.844,30.4868025 C145.015975,32.4358471 142.854701,35.0411975 140.544892,37.5301146 C138.966293,39.2310064 139.153045,41.0322803 139.267439,43.2126624 C139.844255,42.4893503 140.230242,41.9311338 140.689605,41.4414522 C143.26693,38.6934268 145.628459,35.6822166 148.499287,33.2824713 C154.534701,28.237121 163.374955,31.7069299 164.682981,39.4694777 C164.905911,40.7932994 164.845529,42.1726624 164.837631,43.5260382 C164.81521,47.5476943 162.196866,51.2391592 158.356102,52.7311338 C154.530879,54.2169936 150.258777,53.2918981 147.548204,50.2136815 C146.542344,49.0712611 145.844764,47.6572484 145.023873,46.3935541 C143.09572,48.4432357 142.862344,48.0783949 144.593809,50.9510064 C144.853682,51.3823439 145.197121,51.7739363 145.550497,52.1362293 C149.070242,55.7408153 153.368586,56.8832357 158.131898,55.5655287 C163.011389,54.2157197 166.047312,50.8661656 167.222854,45.8975032 C167.372408,45.2654013 167.536739,44.6366115 167.694191,44.006293 L167.694191,40.439414 Z M63.9999236,37.1273121 C64.1191592,36.8804331 64.2824713,36.6447643 64.3504968,36.3841274 C66.352535,28.7425987 72.839414,23.4136815 80.7622166,23.1887134 C83.2745732,23.1173758 85.8047643,23.6297325 88.3242548,23.8995414 C89.5352102,24.0292229 90.1173758,24.6687134 89.8855287,25.9461656 C89.813172,26.3464204 89.8743185,26.770879 89.8743185,27.3820892 C86.7848917,25.7522803 83.610879,25.4890955 80.3701146,25.6661656 C74.1864204,26.0042548 68.4353376,30.7515159 67.0442548,36.6511338 C65.5431083,43.017758 68.1517707,49.5443822 73.6952102,52.4786497 C78.9945732,55.2837452 84.3048917,54.8641274 89.4088408,51.7313885 C90.1339363,51.286293 90.3915159,50.7046369 90.3759745,49.8368662 C90.321707,46.7859108 90.3550828,43.7329172 90.3550828,40.5306242 L79.8564841,40.5306242 L79.8564841,37.9566115 L92.9211975,37.9566115 C92.9484586,38.2557197 93.0024713,38.5782675 93.0029809,38.9005605 C93.0088408,42.890879 93.0335541,46.881707 92.9762293,50.8715159 C92.9683312,51.427949 92.6819618,52.1097325 92.2939363,52.510242 C89.7927898,55.0913885 86.6047643,56.2468025 83.1232357,56.7443822 C82.8567389,56.7825987 82.6034904,56.9127898 82.3438726,56.9999236 L78.5222166,56.9999236 C78.2259108,56.8959745 77.9367389,56.757121 77.6317707,56.6929172 C70.9790318,55.2947006 66.6282038,51.3718981 64.6327898,44.8605605 C64.4159745,44.1530446 64.2106242,43.4419618 63.9999236,42.7324076 L63.9999236,37.1273121 Z" id="Fill-1"></path>
        </g>
    </g>
</svg>