<?xml version="1.0" encoding="UTF-8"?>
<svg width="232px" height="80px" viewBox="0 0 232 80" version="1.1" xmlns="http://www.w3.org/2000/svg" xmlns:xlink="http://www.w3.org/1999/xlink">
    <!-- Generator: Sketch 44.1 (41455) - http://www.bohemiancoding.com/sketch -->
    <title>visenze</title>
    <desc>Created with Sketch.</desc>
    <defs></defs>
    <g id="Page-1" stroke="none" stroke-width="1" fill="none" fill-rule="evenodd">
        <g id="visenze">
            <g id="Group" transform="translate(39.000000, 28.000000)">
                <path d="M0,3.36062334 C0.0948325899,3.36876235 0.18961267,3.38372763 0.28444526,3.38388516 C1.19443905,3.385723 2.10438033,3.38871605 3.0142691,3.38183728 C3.19611033,3.38047202 3.28133363,3.41077014 3.32554684,3.62159675 C4.32785275,8.40591666 5.34134323,13.1878736 6.35325843,17.9702507 C6.36533567,18.0272238 6.38402913,18.0827791 6.42215121,18.2201445 C7.55179324,13.2292513 8.66337192,8.31827791 9.77705099,3.39780024 L12.9976834,3.39780024 C12.9103597,3.73748574 12.8292321,4.06325617 12.7427486,4.38755632 C11.1027119,10.5381272 9.46104737,16.6882779 7.82578906,22.840214 C7.76755576,23.0592321 7.68632319,23.1467133 7.44367568,23.1401496 C6.7267077,23.1206685 6.00879453,23.1257094 5.291564,23.1382068 C5.1055745,23.1414099 5.03741686,23.0789758 4.99330868,22.9062712 C4.06955734,19.2874575 3.14050251,15.6701666 2.21228784,12.052508 C1.4923268,9.24638756 0.772208232,6.44026707 0.0511444865,3.63440912 C0.040747558,3.59392411 0.0173282141,3.55685224 0,3.51815256 L0,3.36062334 Z" id="Fill-1" fill="#1D4976"></path>
                <path d="M48.5189995,23.3668342 C48.0975563,23.2816109 47.6734352,23.2073096 47.2552476,23.1082237 C46.7802445,22.9957478 46.3115951,22.856387 45.8376947,22.7386076 C45.6789052,22.6991203 45.6143707,22.632748 45.6172588,22.4562103 C45.6288109,21.7484315 45.6220372,21.0403376 45.6220372,20.2860352 C45.7339354,20.3331365 45.8175309,20.3663226 45.8995511,20.403132 C46.7947897,20.8043064 47.7006877,21.1718745 48.7015233,21.1934035 C49.7221552,21.2154576 50.6589289,20.9786387 51.4292468,20.2629309 C52.3290012,19.4268709 52.4956671,17.9897843 51.7139021,16.9406922 C51.158349,16.195264 50.487012,15.5329586 49.8403546,14.8593112 C48.6666044,13.6366219 47.4312077,12.4704856 46.2990977,11.210987 C45.197916,9.98593473 44.9082723,8.48084806 45.2408164,6.89326859 C45.6378426,4.99750946 46.9362509,3.90808989 48.7155434,3.36976004 C50.4080899,2.85763254 52.1028417,3.02167297 53.7713387,3.54335724 C54.4317012,3.74987804 54.4292858,3.75796454 54.4290232,4.45944215 C54.4288657,4.92310316 54.4283406,5.38676416 54.4271854,5.85047767 C54.4271329,5.8668082 54.4186263,5.88308622 54.4109073,5.91044379 C53.9757066,5.76688216 53.546597,5.60331432 53.1054102,5.48432725 C52.1305669,5.2214635 51.1434888,5.09628028 50.1675953,5.4630083 C49.2978765,5.78977641 48.6041178,6.31791937 48.3514409,7.27144374 C48.187348,7.8906911 48.2991412,8.49654847 48.6469657,9.00279487 C49.0946113,9.6542307 49.5955542,10.2783615 50.1379273,10.8535532 C51.2950319,12.0806533 52.5087945,13.2542985 53.6697849,14.4779329 C54.422512,15.2712501 55.0169748,16.1704269 55.2408763,17.273814 C55.7667088,19.8654847 54.4826882,22.0991965 51.9392739,22.9418728 C51.3886568,23.1242917 50.8007052,23.1937621 50.2302919,23.3168974 C50.1835582,23.3269793 50.1395551,23.349926 50.0942917,23.3668342 L48.5189995,23.3668342 Z" id="Fill-3" fill="#1D4976"></path>
                <path d="M29.9305516,0 C30.4427841,0.404430015 30.9537039,0.810540342 31.4677218,1.21271244 C31.8241054,1.49153916 32.1846897,1.76490486 32.5601869,2.05365592 C31.6992897,3.17757439 30.851835,4.28390209 29.9823262,5.41900514 C29.0773209,4.72540399 28.188331,4.04409011 27.285321,3.35195923 C27.8730625,2.58468692 28.447099,1.83894359 29.0167246,1.08999718 C29.2905629,0.729885382 29.5562097,0.363524928 29.8255322,0 L29.9305516,0 Z" id="Fill-5" fill="#ED6C5C"></path>
                <path d="M95.7854579,9.62648456 L95.7854579,23.1176019 L92.7445139,23.1176019 L92.7445139,3.38633211 C93.6208489,3.38633211 94.4853693,3.38244639 95.3496796,3.39457614 C95.4110635,3.39541629 95.4922435,3.50405895 95.5281602,3.57967297 C96.5800878,5.7940087 97.6271845,8.01060234 98.675489,10.2266184 C99.7015293,12.3956907 100.727885,14.5646055 101.754713,16.7332577 C101.783435,16.793959 101.818985,16.8512996 101.900427,16.9014464 L101.900427,3.39966958 L104.875681,3.39966958 L104.875681,23.1331448 L104.59717,23.1331448 C103.89711,23.1331973 103.196998,23.1257935 102.497148,23.1380807 C102.295353,23.1415989 102.194167,23.0858861 102.103797,22.8934379 C100.057178,18.5339217 98.0015265,14.1786589 95.9473979,9.82271345 C95.9131616,9.75014499 95.8763523,9.67878426 95.8408032,9.60684591 C95.8223197,9.61340963 95.8039413,9.61992084 95.7854579,9.62648456" id="Fill-7" fill="#1D4976"></path>
                <polygon id="Fill-9" fill="#1D4976" points="145.286757 3.39695483 154.162741 3.39695483 154.162741 5.63476241 148.651581 5.63476241 148.651581 11.8786956 153.738987 11.8786956 153.738987 14.1459086 148.654679 14.1459086 148.654679 20.9353654 154.315754 20.9353654 154.315754 23.1126293 145.286757 23.1126293"></polygon>
                <polygon id="Fill-11" fill="#1D4976" points="72.8822112 20.9380014 78.5670732 20.9380014 78.5670732 23.1156328 69.5297794 23.1156328 69.5297794 3.39911823 78.4094914 3.39911823 78.4094914 5.6395513 72.87549 5.6395513 72.87549 11.8791786 77.9829548 11.8791786 77.9829548 14.1421909 72.8822112 14.1421909"></polygon>
                <path d="M126.947169,5.64851471 L120.028118,5.64851471 L120.028118,3.4008353 L131.112294,3.4008353 C128.465803,9.23492993 125.826663,15.052694 123.174449,20.899286 L130.323755,20.899286 L130.323755,23.1197128 L119.044348,23.1197128 C121.679549,17.2940198 124.302043,11.4962619 126.947169,5.64851471" id="Fill-13" fill="#1D4976"></path>
                <polygon id="Fill-15" fill="#1D4976" points="27.1647061 23.1114793 30.5327333 23.1114793 30.5327333 9.24355203 27.1647061 9.24355203"></polygon>
            </g>
        </g>
    </g>
</svg>