<?xml version="1.0" encoding="UTF-8"?>
<svg width="232px" height="80px" viewBox="0 0 232 80" version="1.1" xmlns="http://www.w3.org/2000/svg" xmlns:xlink="http://www.w3.org/1999/xlink">
    <!-- Generator: Sketch 44.1 (41455) - http://www.bohemiancoding.com/sketch -->
    <title>mayi</title>
    <desc>Created with Sketch.</desc>
    <defs></defs>
    <g id="Page-1" stroke="none" stroke-width="1" fill="none" fill-rule="evenodd">
        <g id="mayi" fill="#373735">
            <path d="M141.602954,54.7714336 C141.619973,54.080323 141.314559,53.9161637 140.693705,53.9318761 C140.116915,53.9461814 139.746222,54.0146593 139.753449,54.7437611 C139.781659,57.4692743 139.754615,60.1952566 139.76837,62.9210044 C139.772566,63.7600929 139.880511,63.7987876 140.725645,63.8344336 C141.389863,63.8628097 141.613911,63.5912434 141.600622,62.948208 C141.573112,61.6250841 141.592229,60.3005531 141.592462,58.9767257 C141.592696,57.5748053 141.568449,56.1724159 141.602954,54.7714336 L141.602954,54.7714336 Z M98.8741002,54.6234558 C98.8901869,53.8809867 98.4171445,53.9480575 97.945501,53.9459469 C97.4666301,53.9438363 97.0229634,53.8901327 97.030657,54.636354 C97.060499,57.4474646 97.0584008,60.2592788 97.0294913,63.0708584 C97.0224971,63.7514159 97.3619499,63.8431106 97.8986397,63.8283363 C98.4264701,63.814031 98.9067399,63.8557743 98.8789961,63.0577257 C98.8312023,61.6926239 98.8657071,60.324708 98.865474,58.9579646 C98.8650077,57.5128938 98.8426262,56.0675885 98.8741002,54.6234558 L98.8741002,54.6234558 Z M110.654931,27.7768451 C110.315944,25.9352124 109.987216,24.091469 109.651493,22.2491327 C109.412058,20.9342168 109.410193,20.9346858 108.109035,20.947115 C107.012574,20.9574336 106.954755,21.0193451 107.144998,22.0737168 C107.504734,24.0696593 107.872397,26.0641947 108.235164,28.0596681 C108.427039,29.1149779 108.425407,29.1154469 109.500651,29.1320973 C110.878746,29.1536726 110.902526,29.1203717 110.654931,27.7768451 L110.654931,27.7768451 Z M80.2484933,62.8881726 C80.2186513,63.5804558 80.4200848,63.8930619 81.156343,63.8548363 C82.0038092,63.8109823 82.087973,63.7929248 82.0935684,62.9355442 C82.1073237,60.7883407 82.1185145,58.6406681 82.0877399,56.4936991 C82.0781811,55.8323717 82.303395,55.572531 82.9575877,55.6119292 C83.5376416,55.6468717 84.121659,55.6070044 84.7038112,55.617792 C85.2465626,55.6283451 85.4568555,55.3795265 85.4507938,54.8347522 C85.444499,54.2857566 85.2181195,54.0547611 84.6809634,54.0735221 C84.2158478,54.0901726 83.7495665,54.072115 83.2837514,54.0718805 C81.4594258,54.071177 79.6351002,54.0812611 77.8107746,54.0653142 C77.2475067,54.0606239 76.9616763,54.2170442 76.9637746,54.8589071 C76.9656397,55.5230487 77.3043931,55.6407743 77.8410829,55.6257655 C78.3840674,55.6102876 78.9289171,55.6447611 79.470736,55.6145088 C80.0834297,55.5802699 80.2848632,55.8516018 80.2678439,56.447031 C80.2363699,57.5391593 80.2587514,58.6331637 80.259684,59.7262301 C80.2603834,60.7803673 80.2937225,61.836146 80.2484933,62.8881726 L80.2484933,62.8881726 Z M93.2367592,58.0693938 C92.5762717,58.0693938 91.9157842,58.0623584 91.2552967,58.0717389 C90.7062505,58.0794779 90.5262659,57.8149469 90.5218362,57.2750973 C90.5108786,55.9826947 90.9251696,55.5232832 92.2482428,55.4979558 C93.1029364,55.4813053 93.9580963,55.476146 94.8125568,55.4911549 C95.3543757,55.5010044 95.6914971,55.3832788 95.6949942,54.7233584 C95.6987245,54.0261504 95.3688304,53.867854 94.7607996,53.8870841 C93.7513006,53.9192124 92.7397033,53.8772345 91.7304374,53.9110044 C89.8823314,53.973385 88.8063873,54.9541195 88.7352794,56.7999735 C88.6555453,58.868615 88.7303834,60.9421814 88.7007746,63.0134027 C88.6907495,63.7328894 89.0572466,63.8255221 89.6487245,63.8391239 C90.3078131,63.8538982 90.5603044,63.6062522 90.5316281,62.9514912 C90.4989884,62.2104292 90.5185723,61.4665531 90.5276647,60.7240841 C90.5407206,59.6429779 90.5453834,59.6352389 91.6539672,59.6244513 C92.7418015,59.6136637 93.829869,59.6146018 94.9177033,59.6232788 C95.4345761,59.6277345 95.8092331,59.564885 95.8229884,58.8803407 C95.8379094,58.1359956 95.4385395,58.054385 94.8685106,58.073146 C94.3252929,58.090969 93.7806763,58.0771327 93.2367592,58.0771327 L93.2367592,58.0693938 Z M148.427913,58.7759823 C148.467547,58.8819823 148.261451,59.0939823 148.145813,59.2379735 C148.113173,59.2787788 147.999168,59.2515752 147.922464,59.2588451 C146.441322,59.3983805 146.352262,59.2769027 146.960293,57.9202434 C147.115098,57.5752743 147.288322,57.2389823 147.536383,56.7258673 C147.888193,57.5145354 148.187312,58.134354 148.427913,58.7759823 L148.427913,58.7759823 Z M152.198963,62.8473673 C151.006449,60.0998097 149.788755,57.3635088 148.599505,54.6145442 C148.385482,54.1197212 148.184281,53.753177 147.537083,53.7557566 C146.911566,53.7583363 146.67283,54.0697699 146.450647,54.5788982 C145.284478,57.2523496 144.084969,59.9110265 142.911572,62.5814292 C142.760497,62.9252257 142.693819,63.3065442 142.587973,63.6700398 C143.078734,63.7106106 143.571827,63.7936283 144.059557,63.7680664 C144.223921,63.7593894 144.419526,63.5007212 144.521642,63.3126416 C144.743825,62.903885 144.965775,62.4822301 145.096566,62.038531 C145.370507,61.1103274 145.955923,60.9147434 146.887553,60.8192965 C148.725401,60.6305133 149.946592,61.1014159 150.352489,63.0502212 C150.48538,63.6876283 150.938838,63.9341018 151.475295,63.8210664 C152.550773,63.8222389 152.599266,63.7694735 152.198963,62.8473673 L152.198963,62.8473673 Z M114.30195,58.2122124 C114.482401,57.8020487 114.749813,57.4305796 114.977825,57.0415221 C115.213297,57.4219027 115.488403,57.7837566 115.676081,58.1866504 C116.154952,59.2133496 116.099231,59.2820619 114.976659,59.2675221 C113.938717,59.2541549 113.877401,59.1777035 114.30195,58.2122124 L114.30195,58.2122124 Z M119.765368,63.0987655 C118.502212,60.166177 117.208281,57.2469558 115.94326,54.3153053 C115.756981,53.8833319 115.474181,53.7815531 115.03984,53.7581018 C114.344848,53.7203451 114.108676,54.158885 113.876002,54.6837257 C112.709366,57.3180133 111.524545,59.9445619 110.359541,62.5797876 C110.205435,62.9280398 110.128033,63.3107655 110.01496,63.6777788 C110.428784,63.7246814 110.855432,63.8534292 111.252237,63.7903451 C111.532006,63.7462566 111.843482,63.4915752 112.011343,63.2422876 C112.268963,62.8607345 112.470164,62.419146 112.596992,61.9747434 C112.856478,61.0662389 113.437464,60.917792 114.321067,60.8230487 C116.148191,60.6267611 117.393628,61.0751504 117.814214,63.0267699 C117.948736,63.6505752 118.358364,63.9498142 118.938651,63.8198938 C119.987085,63.8302124 120.059358,63.7807301 119.765368,63.0987655 L119.765368,63.0987655 Z M122.878728,57.4287035 C123.120961,57.7173894 123.374152,57.9969292 123.603563,58.2954646 C124.789549,59.8404381 125.968541,61.3905708 127.151963,62.9374204 C127.317493,63.1538761 127.457145,63.4885265 127.670934,63.5497345 C128.166358,63.6913805 128.705846,63.7633761 129.213626,63.7164735 C129.340688,63.7047478 129.500855,63.1367566 129.50342,62.8232124 C129.525802,60.1293584 129.504586,57.4350354 129.522771,54.7411814 C129.526967,54.0880619 129.280538,53.8521416 128.628676,53.8568319 C127.995233,53.8610531 127.709636,54.0549956 127.722692,54.7273451 C127.750435,56.1712434 127.73738,57.6165487 127.723624,59.0609159 C127.719428,59.4973451 127.657879,59.9335398 127.622441,60.3695 C125.952921,58.5210664 124.521904,56.6337035 123.089021,54.7479823 C122.900644,54.5003363 122.746771,54.1394204 122.49731,54.045146 C122.091879,53.8924779 121.605081,53.8319735 121.185195,53.9100664 C121.027592,53.9393805 120.881412,54.4609381 120.86789,54.7639292 C120.827324,55.6991681 120.852503,56.6374558 120.852736,57.5743363 C120.853202,59.3704735 120.841312,61.1668451 120.868356,62.9625133 C120.872553,63.2305619 120.986092,63.6329867 121.177501,63.7387522 C121.978572,64.1817478 122.676595,63.7249159 122.682424,62.7934292 C122.692915,61.0390354 122.685222,59.2844071 122.685222,57.5297788 L122.878728,57.4287035 Z M69.2097495,57.4910841 C70.5048459,59.1898982 71.7992428,60.8891814 73.0950385,62.587292 C73.33121,62.896615 73.5571233,63.2164912 73.8154432,63.5063496 C74.2833565,64.0316593 74.9151676,63.8745354 75.4420655,63.7260885 C75.6292775,63.6730885 75.7563391,63.0861018 75.7598362,62.7413673 C75.7854817,60.1256062 75.7798863,57.5093761 75.7707938,54.8933805 C75.7672967,53.9103009 75.7027168,53.9049071 74.8270405,53.8563628 C74.0607071,53.8136814 73.9273507,54.177646 73.9404066,54.839677 C73.9711811,56.4008319 73.949499,57.9631593 73.9371426,59.5250177 C73.9348112,59.8050265 73.8746609,60.0845664 73.8124123,60.6044823 C73.3960231,60.0822212 73.1283776,59.7592965 72.8749538,59.4255841 C71.6728805,57.8442611 70.4754701,56.2591858 69.2740963,54.6771593 C69.109499,54.460469 68.9698478,54.1464558 68.7506956,54.0662522 C68.3347726,53.9142876 67.8607977,53.8221239 67.4299538,53.8718407 C67.2937996,53.8875531 67.1306012,54.4335 67.1282697,54.7378982 C67.1049557,57.4709159 67.1047225,60.2039336 67.1217418,62.9369513 C67.1268709,63.7572788 67.2532331,63.8041814 68.1039634,63.8346681 C68.779605,63.859292 69.0230039,63.5750619 68.9500308,62.9315575 C68.9236859,62.6993894 68.9178574,62.4637035 68.9173911,62.2296593 C68.9148266,60.6814027 68.9159923,59.133615 68.9159923,57.5853584 C69.0139114,57.5539336 69.1118304,57.5225088 69.2097495,57.4910841 L69.2097495,57.4910841 Z M106.336466,59.6854248 C105.064451,58.0128761 103.800129,56.3342301 102.531145,54.6591018 C102.367013,54.4424115 102.229694,54.1192522 102.013106,54.0465531 C101.599048,53.9081903 101.121343,53.8279867 100.702622,53.9046726 C100.540356,53.9344558 100.370863,54.4541372 100.368066,54.7524381 C100.342886,57.4828761 100.366434,60.2133142 100.344518,62.9437522 C100.339389,63.5949956 100.565069,63.8538982 101.222293,63.832792 C102.0602,63.805823 102.160451,63.7633761 102.176304,62.9207699 C102.196355,61.8680398 102.182133,60.8146062 102.182366,59.7611726 C102.182599,58.9975973 102.182366,58.2342566 102.182366,57.2265531 C102.524383,57.6092788 102.707865,57.790323 102.863603,57.9929425 C103.859813,59.2888628 104.849029,60.5899425 105.842208,61.8879735 C106.220595,62.3823274 106.619732,62.8616726 106.980634,63.3686903 C107.435958,64.0089115 108.091316,63.8864956 108.675333,63.7673628 C109.258884,63.6486991 109.039732,63.0649956 109.042763,62.6792212 C109.063279,60.0268761 109.039732,57.3742965 109.062813,54.7219513 C109.068875,54.0493673 108.800996,53.8383053 108.161958,53.8580044 C107.580738,53.8758274 107.208645,53.9637699 107.225432,54.6863053 C107.261102,56.2064204 107.238721,57.7284115 107.230328,59.2496991 C107.228229,59.6216372 107.189062,59.9931062 107.151293,60.6269956 C106.765212,60.1830619 106.535102,59.9464381 106.336466,59.6854248 L106.336466,59.6854248 Z M105.907021,32.4753186 C105.339324,29.5704027 104.943684,26.6319513 104.439634,23.7139027 C104.107875,21.7925354 104.568328,22.0809867 102.585,22.0577699 C101.696734,22.0474513 101.672487,22.1016239 101.779965,23.0068451 C101.987227,24.7495133 102.181667,26.4945265 102.423434,28.2325044 C103.046385,32.7077212 103.934418,37.0959336 106.857303,40.7437876 C107.329645,41.332885 107.257838,41.8023805 106.856603,42.3994513 C105.379191,44.5982478 103.945143,46.8263584 102.503168,49.0490752 C102.360486,49.2685796 102.27469,49.5258407 102.162549,49.7655133 C102.411543,49.813354 102.658906,49.8879292 102.909765,49.9031726 C103.296545,49.9273274 103.690786,49.8712788 104.072904,49.9195885 C104.865815,50.0192566 105.346085,49.6897655 105.765971,49.0115531 C106.688975,47.5219248 107.707566,46.0920973 108.66764,44.6249823 C108.94531,44.2007478 109.138118,44.2124735 109.407162,44.6238097 C110.174894,45.7975487 110.952884,46.9647212 111.7409,48.1246239 C113.007786,49.9894735 113.012682,49.9861903 115.285337,49.9080973 C116.084077,49.8806593 116.108557,49.8555664 115.64927,49.1452257 C114.231775,46.9529956 112.831998,44.7476327 111.354119,42.5969115 C110.837946,41.8452965 110.762875,41.3049779 111.353886,40.5493761 C113.57222,37.7150487 114.680104,34.4037212 115.213297,30.8829735 C115.598678,28.3387389 115.918081,25.7846549 116.261031,23.2340885 C116.418634,22.0615221 116.412106,22.0605841 115.257593,22.0523761 C115.179958,22.0519071 115.102322,22.0519071 115.024686,22.0523761 C113.905378,22.0577699 113.893721,22.0561283 113.732387,23.1339513 C113.368688,25.5635088 113.044855,27.9993982 112.654811,30.4245 C112.157056,33.5186681 110.997881,36.3372832 109.027376,38.8641637 C107.592628,36.8942522 106.370505,34.8478894 105.907021,32.4753186 L105.907021,32.4753186 Z M153.020318,29.0540044 C152.036931,29.0380575 152.018746,29.0336018 152.005457,28.1039912 C151.987738,26.8559115 151.98564,25.6071283 152.006622,24.3592832 C152.021776,23.4521858 152.138114,23.3030354 152.990476,23.2737212 C154.190917,23.2324469 155.395322,23.2312743 156.595996,23.2720796 C157.445328,23.3009248 157.602697,23.481969 157.619717,24.3445088 C157.645362,25.6312832 157.600599,26.9196991 157.638368,28.2060044 C157.658418,28.887031 157.374919,29.0969204 156.742642,29.0626814 C156.085418,29.0268009 155.424464,29.054708 154.765376,29.054708 C154.18369,29.055646 153.601771,29.063385 153.020318,29.0540044 L153.020318,29.0540044 Z M151.99753,32.1310531 C151.986339,31.607385 152.15863,31.3463717 152.727726,31.3559867 C154.119576,31.3794381 155.512125,31.3773274 156.903975,31.3566903 C157.469574,31.3484823 157.63627,31.6111372 157.631374,32.1364469 C157.615987,33.886854 157.608293,35.6377301 157.633938,37.3876681 C157.643031,38.0241372 157.346942,38.1836062 156.784141,38.1749292 C155.469927,38.1552301 154.154081,38.144208 152.8401,38.179385 C152.156998,38.1979115 151.971884,37.8864779 151.9931,37.2657212 C152.022476,36.4106858 152.000561,35.5542434 152.000561,34.6982699 C152.002426,33.842531 152.015948,32.986323 151.99753,32.1310531 L151.99753,32.1310531 Z M151.756696,47.7374425 C151.814281,47.4724425 151.82011,47.1940752 151.828969,46.9213363 C151.890052,45.0489823 151.958362,43.1768628 151.994732,41.3040398 C152.00569,40.7405044 152.160262,40.4344646 152.786711,40.4459558 C154.145222,40.4703451 155.504432,40.459792 156.863408,40.4492389 C157.390306,40.4452522 157.638135,40.6488097 157.632073,41.2109381 C157.612723,43.0073097 157.625079,44.8039159 157.621349,46.6005221 C157.61995,47.2580973 157.340414,47.623 156.630967,47.5861814 C156.088915,47.5580398 155.544066,47.5732832 155.000615,47.5838363 C154.032382,47.6021283 154.032148,47.6065841 154.00557,48.5551903 C154.001141,48.7113761 154.017694,48.868969 154.002539,49.0237478 C153.940291,49.6595133 154.172732,49.9559381 154.854202,49.9172434 C155.666931,49.8710442 156.484788,49.9233407 157.299615,49.9003584 C159.100626,49.849469 159.957651,49.0228097 159.961615,47.2219823 C159.9798,39.3714159 159.980033,31.5208496 159.964879,23.6705177 C159.961148,21.9320708 159.245873,21.1286283 157.544412,21.0148894 C156.07516,20.9166283 154.596116,20.9525088 153.121501,20.9567301 C150.199316,20.9649381 149.588254,21.5962478 149.587788,24.5658894 C149.587089,30.3072434 149.593617,36.0485973 149.585457,41.7901858 C149.58196,44.479115 149.679645,47.1800044 148.821222,49.7929513 C151.524254,50.0938319 151.264303,50.0077655 151.756696,47.7374425 L151.756696,47.7374425 Z M75.5922081,40.0585398 C73.6119114,40.0585398 71.6313815,40.0679204 69.6508516,40.052208 C69.0971426,40.0479867 68.8187726,40.1776726 68.8010539,40.8284469 C68.7597881,42.3684956 68.7234181,42.3689646 70.2873256,42.3694336 C73.9376089,42.3706062 77.5878921,42.3649779 81.2384085,42.3734204 C82.270289,42.3757655 82.2805472,42.3947611 82.2945356,43.4179425 C82.3073584,44.355292 82.3061927,45.2928761 82.2952351,46.2302257 C82.2807803,47.4935487 82.2029114,47.5758628 80.9807881,47.5800841 C78.6894817,47.587354 76.3984085,47.5800841 74.1073353,47.5838363 C72.6819133,47.5861814 72.6816802,47.5901681 73.0707919,48.9911504 C73.2074123,49.4829248 73.3011349,49.9357699 74.0175761,49.9249823 C76.7352967,49.8844115 79.4546493,49.9395221 82.1719037,49.8865221 C83.7560944,49.8555664 84.6224451,48.974969 84.6396975,47.3723053 C84.6797977,43.701 84.6630116,40.0289912 84.643894,36.3572168 C84.6389981,35.4079071 84.3207611,34.5704602 83.375842,34.1649867 C82.8899769,33.9565044 82.7878613,33.613646 82.8181696,33.1474336 C82.8382197,32.836 82.8214335,32.5224558 82.8214335,32.2100841 C82.820501,29.3584027 82.8363545,26.5069558 82.812341,23.6555088 C82.7988189,22.0575354 82.0194297,21.1361327 80.5354894,21.1122124 C77.0803449,21.0566327 73.6235684,21.0817257 70.1677245,21.0915752 C69.9672235,21.0922788 69.6014258,21.2353319 69.5941985,21.3328894 C69.548736,21.9489558 69.4965125,22.5936327 69.6466551,23.1763982 C69.6888536,23.3410265 70.4015645,23.3883982 70.8072293,23.3907434 C73.6419865,23.4078628 76.4769769,23.3902743 79.3117341,23.4029381 C80.3655299,23.4076283 80.4676455,23.5058894 80.4727746,24.5314159 C80.4869961,27.3045354 80.4848979,30.0781239 80.4737071,32.8514779 C80.4699769,33.8021947 80.4492274,33.8207212 79.478896,33.8286947 C77.7317399,33.843 75.9838844,33.8413584 74.2364952,33.8305708 C72.7439287,33.8214248 72.7143198,33.7611549 72.8658613,32.305531 C73.0721908,30.3255354 73.2570713,28.3434292 73.4284297,26.3601504 C73.4496455,26.1134425 73.3587206,25.6455885 73.276422,25.6352699 C72.6679249,25.5604602 72.0321503,25.4917478 71.4420713,25.6094735 C71.2448343,25.6488717 71.066948,26.228823 71.0326763,26.5766062 C70.8137572,28.790646 70.5967033,31.0063274 70.4593834,33.2264646 C70.3332543,35.2639159 71.1457495,36.1081637 73.1691773,36.131146 C75.3436802,36.1555354 77.5184162,36.1370088 79.6931522,36.1384159 C80.2366031,36.138885 80.7802871,36.1358363 81.3235048,36.1501416 C81.9800289,36.1674956 82.3159846,36.4944071 82.2980328,37.1791858 C82.2814798,37.8036947 82.3085241,38.4293761 82.2933699,39.0541195 C82.270289,40.009292 82.2458092,40.0449381 81.3008902,40.0517389 C79.3979961,40.0655752 77.4951021,40.0559602 75.5922081,40.0559602 L75.5922081,40.0585398 Z M93.5125645,36.7422876 C93.506736,37.8644336 93.4673353,37.8982035 92.4503757,37.9038319 C91.3040231,37.9101637 91.1459538,37.7795398 91.1403584,36.669354 C91.1277688,34.2125929 91.1356956,31.7558319 91.1359287,29.2993053 C91.1361618,28.7922876 91.1382601,28.2855044 91.1403584,27.7784867 C91.1459538,26.3411549 91.2688189,26.2482876 92.6399191,26.2656416 C93.284553,26.2738496 93.5370443,26.4849115 93.5239884,27.1495221 C93.4920482,28.7866593 93.5134971,30.424969 93.5134971,32.0628097 C93.5144297,33.6225575 93.5204913,35.1823053 93.5125645,36.7422876 L93.5125645,36.7422876 Z M95.8502659,27.2248009 C95.8320809,26.5238407 96.0400424,26.2564956 96.7658092,26.2618894 C98.0860848,26.2712699 98.2217726,26.3535841 98.2250366,27.6996903 C98.2324971,30.6658142 98.2327303,33.6321726 98.2269017,36.5987655 C98.2245703,37.7180973 97.2008497,38.3550354 96.183657,37.8316018 C95.9948131,37.7345133 95.8794085,37.3266947 95.8749788,37.0602876 C95.8474682,35.3823451 95.8609904,33.7036991 95.8609904,32.0252876 L95.8635549,32.0252876 C95.8635549,30.4252035 95.8922312,28.8239469 95.8502659,27.2248009 L95.8502659,27.2248009 Z M100.592347,32.058354 C100.592347,30.2218805 100.62452,28.384469 100.582788,26.5489336 C100.544553,24.8702876 99.8374374,24.144469 98.1800405,23.9882832 C97.6400867,23.9376283 97.0931387,23.9463053 96.549921,23.9535752 C96.0670867,23.9599071 95.8369769,23.7666681 95.8567938,23.2601195 C95.8777765,22.7139381 95.8798748,22.1649425 95.8458362,21.6199336 C95.8330135,21.414031 95.7106146,21.0493628 95.6138613,21.0409204 C95.0016339,20.9874513 94.3616628,20.9269469 93.7790443,21.0683584 C93.6102505,21.1093982 93.5755125,21.803323 93.5237553,22.2038717 C93.4838882,22.5115531 93.4939133,22.8297876 93.5174605,23.1405177 C93.5638555,23.7575221 93.2733622,23.9807788 92.6881792,23.9545133 C92.2235299,23.9338761 91.754684,23.9399735 91.2907341,23.975854 C89.5710886,24.109292 88.8530154,24.8358142 88.7299171,26.5447124 C88.7103333,26.8172168 88.7049711,27.0913628 88.7049711,27.3648053 C88.7045048,30.5691947 88.7012408,33.7735841 88.7135973,36.9779735 C88.7152293,37.4434823 88.7555626,37.9171991 88.8478863,38.3726239 C89.047921,39.3578142 89.6629461,39.9609823 90.6596224,40.0899646 C91.3124162,40.1746239 91.9764008,40.2105044 92.6343237,40.2013584 C93.2775588,40.1924469 93.5361118,40.4307124 93.5225896,41.0962611 C93.4906493,42.658823 93.491815,44.2230265 93.5239884,45.785354 C93.5372775,46.4330796 93.3274509,46.6908097 92.6606686,46.6697035 C91.4187283,46.6307743 90.1742235,46.6774425 88.9315838,46.6523496 C88.3960597,46.6415619 88.123052,46.8059558 88.1778401,47.3800442 C88.1997553,47.6126814 88.205817,47.8521195 88.1752755,48.0828805 C88.0764239,48.8272257 88.4205395,49.0131947 89.112501,48.991854 C92.0999653,48.8999248 95.0888285,48.8579469 98.076526,48.7772743 C98.5344143,48.7653142 98.9244586,48.7291991 99.0158497,49.3304912 C99.0881233,49.8035044 99.4180173,49.9425708 99.8670462,49.910208 C100.214892,49.8848805 100.567401,49.8869912 100.915013,49.9125531 C101.48341,49.9542965 101.540996,49.6881239 101.442611,49.2017434 C101.118079,47.596031 100.840875,45.9809381 100.514012,44.3759292 C100.45153,44.0687168 100.275276,43.5626372 100.102518,43.5405929 C99.4637129,43.4601549 98.8039249,43.5351991 98.154395,43.5842124 C98.108,43.5877301 98.0459846,43.8539027 98.0536782,43.9946106 C98.0662678,44.2267788 98.1376089,44.4549602 98.1702486,44.6868938 C98.4169114,46.447854 98.4134143,46.4190088 96.6457418,46.5686283 C95.9845549,46.6249115 95.8423391,46.368354 95.8530636,45.7851195 C95.8770771,44.496 95.8598247,43.2059425 95.8600578,41.916354 C95.8605241,40.2735885 95.8607572,40.2735885 97.5375048,40.2133186 C97.653842,40.2090973 97.7704123,40.2046416 97.8865164,40.1954956 C99.9248651,40.034385 100.564836,39.3789204 100.595145,37.3339646 C100.621489,35.5758186 100.60074,33.816969 100.60074,32.058354 L100.592347,32.058354 Z M144.968572,49.9069248 C146.330114,49.9064558 146.334077,49.8984823 146.29048,48.5479204 C146.260638,47.613854 146.260871,47.6035354 145.272355,47.5939204 C144.068416,47.5821947 142.864245,47.596031 141.660073,47.5871195 C140.712123,47.5800841 140.722615,47.5735177 140.846645,46.6711106 C141.006114,45.511208 141.167447,44.3506018 141.290079,43.1864779 C141.414809,42.0014823 141.383568,41.9862389 140.243277,41.9845973 C140.165642,41.9845973 140.086374,41.9956195 140.01037,41.9853009 C139.294628,41.8849292 138.971262,42.1414867 138.927432,42.9217124 C138.861919,44.0884159 138.679836,45.2497257 138.523399,46.4103319 C138.375121,47.5123097 138.290025,47.5798496 137.221775,47.5892301 C136.406249,47.5965 135.590256,47.5997832 134.77473,47.5880575 C133.803699,47.5742212 133.780385,47.5664823 133.773624,46.6192832 C133.75847,44.4315088 133.759636,42.2432655 133.770827,40.0552566 C133.776422,38.9990088 133.805565,38.974385 134.925106,38.9699292 C137.333449,38.9605487 139.741792,38.9673496 142.149902,38.966177 C142.538314,38.966177 142.93069,38.9924425 143.313274,38.9424912 C143.512609,38.9164602 143.847399,38.7642611 143.857657,38.6458319 C143.907549,38.0710398 143.969798,37.4568496 143.806366,36.9254425 C143.747615,36.7350177 143.068243,36.6674779 142.670971,36.6641947 C140.029954,36.6416814 137.38847,36.6595044 134.74722,36.6480133 C133.790177,36.643792 133.781551,36.6233894 133.771759,35.6616504 C133.760802,34.6068097 133.756139,33.5515 133.77106,32.4968938 C133.785281,31.4901283 133.812559,31.4631593 134.845372,31.4540133 C136.360087,31.440646 137.875268,31.4375973 139.389983,31.4526062 C139.915249,31.458 140.211803,31.2940752 140.149322,30.7150619 C140.136732,30.5994469 140.151886,30.4807832 140.152819,30.3635265 C140.163543,29.1372566 140.16331,29.1295177 138.964268,29.1278761 C135.701464,29.1234204 132.438428,29.1262345 129.175624,29.126469 C128.049089,29.126469 126.922553,29.1152124 125.796484,29.1377257 C125.545391,29.142885 125.098927,29.2350487 125.080509,29.3450354 C124.984688,29.9111504 124.898659,30.5201814 125.026886,31.0619071 C125.074913,31.264292 125.710455,31.4209469 126.083247,31.4326726 C127.441291,31.4765265 128.8019,31.4439292 130.161343,31.4521372 C131.290909,31.4589381 131.294173,31.466208 131.301168,32.6436991 C131.306763,33.5815177 131.308861,34.5191018 131.301867,35.4569204 C131.293008,36.6315973 131.288578,36.6449646 130.155514,36.6489513 C127.5919,36.6578628 125.028285,36.651531 122.464671,36.6536416 C122.154127,36.6538761 121.837755,36.6332389 121.535605,36.6874115 C121.377303,36.7157876 121.125511,36.8799469 121.119915,36.9929823 C121.091472,37.5715265 121.026426,38.1873584 121.198717,38.7159513 C121.260965,38.9063761 121.948497,38.9417876 122.353929,38.9563274 C123.285092,38.9896283 124.218121,38.9664115 125.150218,38.9668805 C126.898073,38.9675841 128.646162,38.9800133 130.394017,38.9635973 C130.99995,38.9577345 131.321451,39.1190796 131.312358,39.8195708 C131.28205,42.1632965 131.289977,44.5079602 131.308162,46.8521549 C131.312358,47.4180354 131.08015,47.6086947 130.544393,47.5957965 C129.612763,47.5737522 128.678102,47.5498319 127.748803,47.6037699 C127.030963,47.6450442 126.660503,47.4053717 126.584965,46.6657168 C126.46583,45.5015929 126.28841,44.3430973 126.16741,43.1789735 C126.044312,41.995385 126.060865,41.9937434 124.831748,41.9853009 C124.637541,41.9838938 124.443335,41.9862389 124.249362,41.9801416 C123.79637,41.9660708 123.635503,42.1630619 123.698684,42.6269292 C123.883098,43.9798363 124.019486,45.3393097 124.211127,46.6912788 C124.335391,47.5676549 124.364301,47.5770354 123.434536,47.5866504 C122.114027,47.6007212 120.793052,47.579146 119.47301,47.6049425 C119.238004,47.6096327 118.815087,47.7547965 118.805062,47.8647832 C118.749807,48.4782699 118.709474,49.1234159 118.861015,49.7059469 C118.902281,49.8649469 119.622453,49.8984823 120.031382,49.8998894 C124.18758,49.9130221 128.343778,49.9080973 132.499744,49.9078628 C136.655942,49.9078628 140.812141,49.9090354 144.968572,49.9069248 L144.968572,49.9069248 Z M159.980732,64 C159.986794,63.8046504 159.999383,63.6093009 159.997052,63.4141858 C159.984462,62.3858451 159.983064,62.3825619 158.970067,62.3745885 C158.115374,62.3680221 157.26068,62.3825619 156.40622,62.3649735 C155.211374,62.3403496 155.071956,62.2010487 155.06636,60.9935398 C155.056568,58.9225531 155.071956,56.8513319 155.058667,54.7805796 C155.052838,53.9044381 154.982197,53.8957611 154.134031,53.8486239 C153.410362,53.8087566 153.199137,54.0915796 153.213125,54.7986372 C153.252293,56.7908274 153.291694,58.7872389 153.205432,60.776146 C153.13852,62.3168982 153.577757,63.4435 155.084778,64 L159.980732,64 Z M138.531792,64 C138.518969,63.8452212 138.496588,63.6909115 138.495422,63.5361327 C138.486796,62.3279204 138.488195,62.3462124 137.294981,62.3516062 C136.366148,62.3558274 135.434052,62.3443363 134.508484,62.2709336 C133.625347,62.2012832 133.050422,61.6640133 132.972786,60.7827124 C132.881628,59.7456947 132.812618,58.6854602 132.924293,57.6564159 C133.085626,56.1717124 133.618819,55.7087832 135.114882,55.5858982 C135.961649,55.5162478 136.819607,55.5849602 137.672669,55.5938717 C138.045927,55.5976239 138.500784,55.7486504 138.502416,55.1107743 C138.503582,54.6056327 138.596838,53.9961327 137.830738,54.0195841 C136.40415,54.0632035 134.961476,54.0521814 133.559135,54.2770796 C132.373615,54.4670354 131.605183,55.3239469 131.279952,56.5277035 C130.95099,57.7452965 130.836052,58.9586681 131.006245,60.2285575 C131.26643,62.1707965 132.078225,63.5466858 134.152944,63.8637478 C134.218923,63.8735973 134.274644,63.9528628 134.33526,64 L138.531792,64 Z M61.7385241,57.8681814 C61.8854027,58.2879602 61.98542,58.7243894 62.1057206,59.1537832 C61.6142601,59.1840354 61.1230328,59.2325796 60.631106,59.238208 C60.2809287,59.2419602 60.1473391,59.0534115 60.3007457,58.709146 C60.564894,58.1172345 60.8276435,57.524385 61.1969383,56.6937389 C61.4543256,57.2443761 61.6259171,57.5457257 61.7385241,57.8681814 L61.7385241,57.8681814 Z M56,63.7654867 C57.9511541,63.9303496 58.0367168,63.9617743 58.6647977,62.2467788 C59.071395,61.1361239 59.6934143,60.8952788 60.8047958,60.8157788 C62.5270058,60.6924248 63.6069133,61.1593407 63.9766744,62.9428142 C64.1104971,63.5891327 64.5432062,63.875708 65.2549846,63.8386549 C66.2626185,63.7863584 66.295025,63.804885 65.8958882,62.8844204 C64.7040732,60.1354558 63.4915087,57.3954027 62.3080867,54.6429204 C62.0721484,54.0943938 61.8035703,53.7562257 61.1274624,53.7534115 C60.4408632,53.7503628 60.2988805,54.2109469 60.095815,54.6677788 C58.9564566,57.2270221 57.8268902,59.7907212 56.6782062,62.3459779 C56.4923931,62.7594248 56.2280116,63.1367566 56,63.5309735 L56,63.7654867 Z M134.087198,20.4042168 C134.117507,20.2245796 134.38795,20.0859823 134.54905,19.9286239 C134.781258,20.1891681 135.041443,20.4323584 135.221195,20.7257345 C135.255233,20.7817832 134.971967,21.034823 134.951917,21.0585088 C134.185584,21.1635708 134.014225,20.8366593 134.087198,20.4042168 L134.087198,20.4042168 Z M132.294347,19.461708 C132.697913,19.3622743 133.036667,20.0782434 133.007058,20.7001726 C132.982112,21.2254823 132.58111,21.1464513 132.352865,21.0657788 C132.125553,20.9855752 131.974478,20.6861018 131.749963,20.4386903 C131.974478,20.0097655 132.080557,19.5142389 132.294347,19.461708 L132.294347,19.461708 Z M130.117279,21.0889956 C129.912116,21.0561637 129.571264,20.9077168 129.561239,20.7890531 C129.521838,20.3235442 130.161809,19.594677 130.503827,19.6870752 C130.686842,19.736323 130.815303,19.9891283 130.844445,20.0193805 C130.890374,20.7766239 130.764478,21.1926504 130.117279,21.0889956 L130.117279,21.0889956 Z M127.574181,11 C127.50284,11.6496018 127.386969,12.2982655 127.37438,12.9488053 C127.364588,13.4530088 127.090414,13.711208 126.694308,13.7088628 C126.455572,13.7076903 126.214971,13.394615 125.982064,13.2126327 C125.588988,12.9058894 125.303391,12.024823 124.738025,12.5102655 C124.083599,13.0723938 124.939692,13.4994425 125.248137,13.9213319 C125.549121,14.3329027 125.810472,14.6635664 125.727241,15.2683761 C125.481977,17.0553673 126.232923,17.9558982 128.020879,18.234969 C128.260081,18.2722566 128.563164,18.3601991 128.696753,18.5339735 C129.289863,19.3050531 128.628443,21.0071504 127.671634,21.0986106 C125.975536,21.2604248 124.803304,22.138677 123.922033,23.5481018 C122.681491,25.531615 121.396187,27.4865177 120.145387,29.4634646 C119.775626,30.0476372 119.457389,30.6648761 119.115605,31.2671062 C119.826917,31.3266726 120.539861,31.3705265 121.248842,31.4502611 C121.911661,31.5248363 122.312663,31.2382611 122.660042,30.6775398 C123.913407,28.6560354 125.241376,26.6811991 126.476555,24.6489071 C127.005085,23.7793319 127.683757,23.4127876 128.673439,23.4226372 C131.237054,23.4484336 133.801135,23.4519513 136.36475,23.4219336 C137.358395,23.4104425 138.044994,23.772531 138.568395,24.6399956 C139.595846,26.3423274 140.691374,28.0031504 141.763588,29.6780442 C142.961464,31.5487566 142.963796,31.547115 145.189356,31.4476814 C146.068064,31.4082832 146.11679,31.3510619 145.648177,30.6137522 C144.162372,28.2777655 142.632969,25.9696858 141.164183,23.623146 C140.209705,22.0985752 138.968697,21.0981416 137.107303,21.113854 C136.327447,21.1204204 136.313459,20.4764469 136.113657,20.0156283 C135.89194,19.5041549 136.431195,19.4980575 136.679489,19.311385 C136.927318,19.1247124 137.217578,18.9875221 137.442559,18.7776327 C138.120998,18.1439779 138.670744,17.430823 138.334788,16.4186637 C138.007225,15.4306593 137.186104,15.0824071 136.256339,14.9895398 C134.526669,14.816469 133.031771,15.2981593 131.9078,16.7101637 C131.798457,16.847354 131.639921,17.0131549 131.487447,17.032385 C131.191125,17.0696726 130.36231,16.2500487 130.355083,15.9238407 C130.33783,15.1372832 130.141293,14.3026504 129.462387,13.994031 C128.413954,13.5175 128.367092,12.7239071 128.361031,11.8111814 C128.359166,11.5405531 128.304145,11.2703938 128.273603,11 L127.574181,11 Z M61.3377553,36.9245044 C61.3293622,37.8646681 61.2811021,37.8942168 60.3373487,37.9005487 C59.2243353,37.9078186 58.9998208,37.7797743 58.9867649,36.9503009 C58.9585549,35.158854 58.9741753,33.366469 58.9755742,31.5743186 C58.9765067,30.133 58.9625183,28.6912124 58.9939923,27.2503628 C59.013343,26.3650752 59.1763083,26.2698628 60.3035434,26.2785398 C61.2801696,26.2862788 61.3291291,26.3125442 61.3377553,27.2243319 C61.3533757,28.8602965 61.342185,30.4964956 61.342185,32.1326947 C61.3417187,33.7299646 61.35221,35.327469 61.3377553,36.9245044 L61.3377553,36.9245044 Z M66.0516262,36.8515708 C66.0499942,37.2342965 66.1113102,37.720677 65.590474,37.7846991 C65.0295376,37.8538805 64.450183,37.8212832 63.8855164,37.7638274 C63.8034509,37.7551504 63.7073969,37.3616372 63.7066975,37.1461195 C63.6948073,33.7932832 63.7069306,30.4404469 63.6887457,27.0878451 C63.6852486,26.4771726 63.9216532,26.227885 64.5121985,26.2757257 C64.7047726,26.2914381 64.8996782,26.2834646 65.0934181,26.2785398 C65.7632312,26.2618894 66.0740077,26.5508097 66.061185,27.261385 C66.0322755,28.8982876 66.0520925,30.5358938 66.0520925,32.1735 L66.0544239,32.1735 C66.0544239,33.7327788 66.0581541,35.292292 66.0516262,36.8515708 L66.0516262,36.8515708 Z M56,48.9911504 C59.7551965,48.8527876 63.5339403,49.3152478 67.2641908,48.5479204 C67.6274239,48.4733451 67.844711,48.5603496 67.9563854,48.9494071 C68.0888092,49.4099912 68.1076936,49.9951018 68.8600385,49.9139602 C69.3594258,49.8602566 69.868605,49.9001239 70.3686917,49.8501726 C70.4302408,49.8440752 70.5253622,49.531 70.4987842,49.3792699 C70.1805472,47.5749248 69.8506532,45.7722212 69.4960462,43.974677 C69.4601426,43.7926947 69.2507823,43.5140929 69.1097322,43.506354 C68.4986705,43.4732876 67.8472755,43.4193496 67.2914682,43.6104779 C67.1317669,43.665823 67.2359807,44.5173407 67.234815,45.0039558 C67.2343487,45.1575619 67.2770135,45.3130442 67.3119846,45.4650088 C67.4092042,45.8864292 67.2758478,46.1509602 66.8275183,46.2121681 C65.9446146,46.3324735 65.0638092,46.4783407 64.1771753,46.5484602 C64.0328613,46.5594823 63.7281464,46.2379646 63.7248825,46.0660664 C63.6915434,44.3095619 63.7083295,42.5521195 63.7032004,40.794677 C63.7020347,40.4060885 63.8757245,40.2234027 64.2580751,40.2163673 C64.8008266,40.2062832 65.3456763,40.2137876 65.8858632,40.1675885 C67.7125202,40.0111681 68.4072794,39.3233407 68.4219672,37.5100841 C68.4515761,33.8784115 68.4469133,30.2462699 68.4161387,26.6145973 C68.401684,24.8784956 67.6794143,24.1409513 65.965131,23.9807788 C65.273869,23.9160531 64.2890829,24.1498628 63.9612871,23.7795664 C63.574973,23.3431372 63.7768728,22.3957035 63.6796532,21.6757478 C63.6484123,21.4438142 63.4910424,21.0486593 63.3691098,21.0397478 C62.7615453,20.9951903 62.1204085,20.9649381 61.5503796,21.1330841 C61.3813526,21.1828009 61.3892794,21.8917345 61.3452158,22.3018982 C61.3163064,22.572292 61.3195703,22.8499558 61.3435838,23.1212876 C61.3967399,23.7228142 61.1414509,23.9573274 60.5406474,23.9603761 C59.8069538,23.9643628 59.0641676,23.9927389 58.3423642,24.1137478 C57.4053719,24.2704027 56.842104,24.8874071 56.6709788,25.8299159 C56.6015029,26.211469 56.5604701,26.6040442 56.5593044,26.9916947 C56.5488131,30.389323 56.5483468,33.7869513 56.5513776,37.1843451 C56.5516108,37.4950752 56.5739923,37.809792 56.6250501,38.1160664 C56.832079,39.3592212 57.4510674,39.9717699 58.6906763,40.1129469 C59.2663006,40.1783761 59.8514836,40.176969 60.432237,40.1767345 C61.0248805,40.1762655 61.3678304,40.3404248 61.3510443,41.0449027 C61.3130424,42.6449867 61.3228343,44.2469469 61.3489461,45.8477345 C61.358738,46.447385 61.1477457,46.6788496 60.5420462,46.6661858 C59.0284971,46.6349956 57.5140154,46.6497699 56,46.6460177 L56,48.9911504 Z M177,49.9292035 C176.728857,49.9221681 176.457482,49.9088009 176.186339,49.9095044 C173.848638,49.9148982 173.845374,49.9181814 172.382649,48.135177 C171.962763,47.6232345 171.544742,47.1068363 171.164723,46.5651106 C170.831565,46.0899867 170.586767,46.1866062 170.287647,46.5902035 C169.661432,47.4360929 168.988121,48.2477434 168.384987,49.1093451 C167.964401,49.7101681 167.472474,50.0021372 166.724792,49.920292 C166.164555,49.8590841 165.592195,49.9083319 164.81164,49.9083319 C165.671929,48.7744602 166.399328,47.8296062 167.111106,46.8732611 C167.693025,46.0913938 168.230881,45.2755221 168.836813,44.5135885 C169.2159,44.0365885 169.158314,43.6796593 168.870152,43.1606814 C167.811461,41.2531504 166.797066,39.3191195 165.823237,37.3660929 C165.374441,36.4665 165.45301,36.4059956 166.450618,36.3844204 C166.722227,36.378323 166.996634,36.4059956 167.265911,36.3792611 C167.848297,36.3208673 168.163503,36.5659336 168.428584,37.1048451 C169.064358,38.3988894 169.785462,39.6502522 170.476491,40.9163894 C170.705435,41.3356991 170.947435,41.4065221 171.196197,40.9236593 C171.980715,39.4004956 172.82142,37.9035973 173.53553,36.3480708 C174.009738,35.3155088 173.814133,35.0683319 172.741686,35.062 C170.138671,35.0462876 167.535888,35.0474602 164.933106,35.062 C163.994015,35.0671593 163.9721,35.0934248 163.970002,36.0828363 C163.959977,40.264208 163.970468,44.4453451 163.953682,48.6267168 C163.95205,49.0321903 163.889802,49.7441726 163.722173,49.7870885 C163.140954,49.9362389 162.499351,49.8729204 161.884092,49.8363363 C161.789204,49.830708 161.663308,49.5476504 161.636497,49.3792699 C161.593832,49.1123938 161.621343,48.8340265 161.621343,48.5605841 C161.620644,40.3931903 161.618545,32.226031 161.625306,24.0588717 C161.625773,23.5945354 161.65305,23.1189425 161.754233,22.668208 C161.952869,21.7805752 162.549243,21.2573761 163.427017,21.0814912 C163.805871,21.0055088 164.197547,20.9614204 164.583395,20.9600133 C167.380383,20.9501637 170.177605,20.9529779 172.974827,20.9588407 C173.24527,20.9593097 173.517578,20.9944867 173.78569,21.0345885 C175.135108,21.2362699 175.814713,21.9107301 175.856678,23.2774735 C175.909135,24.9945796 175.898877,26.7161416 175.844788,28.4334823 C175.807019,29.6341903 175.208547,30.4425575 174.052869,30.5380044 C172.162331,30.6939558 170.254541,30.6449425 168.353746,30.6482257 C168.201039,30.6484602 167.956474,30.4113673 167.90938,30.2413451 C167.522133,28.8417699 167.905183,28.3542168 169.349489,28.3523407 C170.398389,28.3509336 171.447522,28.366646 172.495956,28.3438982 C173.374197,28.3246681 173.498227,28.1966239 173.517811,27.3120398 C173.538328,26.3746903 173.531333,25.4361681 173.521075,24.4985841 C173.509185,23.3944956 173.423855,23.278177 172.331358,23.2643407 C170.195091,23.2376062 168.058123,23.251677 165.921622,23.2523805 C165.572378,23.252615 165.222667,23.2631681 164.873655,23.2819292 C164.273784,23.3145265 163.961842,23.604385 163.964407,24.2446062 C163.975364,26.8627124 163.984224,29.4810531 163.958345,32.0991593 C163.950651,32.8702389 164.407141,32.8690664 164.94826,32.8678938 C167.706547,32.8613274 170.464834,32.8648451 173.222888,32.8646106 C173.417328,32.8646106 173.611534,32.8617965 173.80574,32.8625 C176.303376,32.8700044 177.249927,34.1886726 176.197996,36.5087124 C175.186399,38.7394027 173.950287,40.8699558 172.752177,43.0101239 C172.443965,43.5605265 172.358636,43.9251947 172.77689,44.4547257 C173.936299,45.9220752 175.027863,47.4428938 176.168154,48.9257212 C176.395233,49.2209735 176.720231,49.4402434 177,49.6946903 L177,49.9292035 Z" id="Fill-1"></path>
        </g>
    </g>
</svg>