<?xml version="1.0" encoding="UTF-8"?>
<svg width="232px" height="80px" viewBox="0 0 232 80" version="1.1" xmlns="http://www.w3.org/2000/svg" xmlns:xlink="http://www.w3.org/1999/xlink">
    <!-- Generator: Sketch 44.1 (41455) - http://www.bohemiancoding.com/sketch -->
    <title>wangyi</title>
    <desc>Created with Sketch.</desc>
    <defs></defs>
    <g id="Page-1" stroke="none" stroke-width="1" fill="none" fill-rule="evenodd">
        <g id="wangyi">
            <g id="Group" transform="translate(51.000000, 20.000000)">
                <path d="M19.4117833,20.5123667 C19.4131167,20.5277 19.41445,20.5432 19.4156167,20.5585333 C19.6926167,20.5462 19.9746167,20.5632 20.24495,20.5148667 C20.68045,20.4368667 21.01995,20.2245333 21.0927833,19.7330333 C21.1686167,19.2220333 20.96745,18.7852 20.4711167,18.6002 C20.17445,18.4895333 19.8292833,18.4587 19.5092833,18.4725333 C19.0987833,18.4903667 18.6887833,18.5742 18.2841167,18.6575333 C17.9361167,18.7292 17.5837833,18.8097 17.2556167,18.9417 C16.8602833,19.1007 16.5861167,19.6578667 16.6702833,20.0222 C16.75845,20.4040333 17.1131167,20.6825333 17.6047833,20.6662 C18.2081167,20.6460333 18.80945,20.5662 19.4117833,20.5123667 L19.4117833,20.5123667 Z M4.96345,23.4787 C5.61861667,23.4035333 5.94261667,23.0508667 6.10261667,22.5427 C6.48745,21.3187 6.28995,20.0775333 6.15428333,18.8457 C6.11095,18.4518667 5.64778333,18.1472 5.23495,18.1500333 C4.80145,18.1530333 4.43445,18.3693667 4.35828333,18.7762 C4.05611667,20.3912 3.88078333,22.0068667 4.96345,23.4787 L4.96345,23.4787 Z M37.7272833,6.3787 C37.8306167,6.36936667 38.0292833,6.37603333 38.2147833,6.32986667 C39.0331167,6.12636667 39.8511167,6.0872 40.6782833,6.27036667 C40.8107833,6.2997 40.96095,6.31303333 41.09045,6.28186667 C41.87795,6.0917 42.6551167,6.01653333 43.46095,6.22953333 C43.82295,6.32503333 44.15695,6.12653333 44.3666167,5.78536667 C44.5826167,5.4342 44.5177833,5.10253333 44.3141167,4.7727 C44.03345,4.31786667 43.6187833,4.20903333 43.1091167,4.22736667 C42.4532833,4.25103333 41.79545,4.2102 41.1382833,4.20503333 C40.6962833,4.20153333 40.24545,4.15853333 39.81395,4.2282 C39.1017833,4.34336667 38.40395,4.43003333 37.6757833,4.34153333 C37.02345,4.2622 36.51745,4.74203333 36.52945,5.31653333 C36.5431167,5.9687 36.9632833,6.3712 37.7272833,6.3787 L37.7272833,6.3787 Z M41.1687833,20.6338667 C41.40445,20.1595333 41.5036167,19.7520333 41.75595,19.4955333 C42.2751167,18.9682 42.8866167,18.5330333 43.44095,18.0385333 C44.1352833,17.4193667 44.8046167,16.7723667 45.49695,16.1508667 C45.7457833,15.9273667 45.78545,15.6793667 45.6366167,15.4125333 C45.4591167,15.0947 45.1532833,14.9135333 44.8021167,15.0147 C44.4937833,15.1033667 44.19495,15.2750333 43.9331167,15.4663667 C42.9981167,16.1492 42.0966167,16.8790333 41.1516167,17.5472 C40.24345,18.1895333 39.3027833,18.7872 38.36495,19.3865333 C37.6942833,19.8150333 37.0436167,20.3098667 36.31495,20.6048667 C35.09445,21.0988667 33.89595,21.6948667 32.5502833,21.8280333 C32.31245,21.8513667 32.0666167,21.9630333 31.8596167,22.0907 C31.3456167,22.4072 31.0776167,22.9693667 31.19095,23.4055333 C31.34845,24.0112 31.8557833,24.4093667 32.5336167,24.4005333 C32.94495,24.3952 33.3882833,24.4012 33.7592833,24.2547 C34.4662833,23.9757 35.0332833,23.3612 35.8676167,23.3728667 C35.8901167,23.3732 35.91095,23.3370333 35.9357833,23.3307 C37.2212833,23.0040333 38.0367833,21.8783667 39.22795,21.3895333 C39.32295,21.3505333 39.4166167,21.2532 39.4622833,21.1593667 C39.6442833,20.7852 39.9691167,20.7048667 40.3386167,20.6883667 C40.6397833,20.6747 40.9406167,20.6490333 41.1687833,20.6338667 L41.1687833,20.6338667 Z M83.8862833,15.9822 L83.8862833,23.1048667 L86.8837833,23.1048667 L86.8837833,15.9805333 L89.8316167,15.9805333 L89.8316167,13.6500333 L80.8872833,13.6500333 L80.8872833,15.9822 L83.8862833,15.9822 Z M105.448117,13.6368667 C104.242783,16.8470333 103.073117,19.9623667 101.891283,23.1102 L104.948617,23.1102 C105.11895,22.5977 105.273783,22.1323667 105.431283,21.6583667 L108.684283,21.6583667 C108.85595,22.1672 109.013783,22.6353667 109.167617,23.0917 L112.29695,23.0917 C111.083783,19.8705333 109.90045,16.7282 108.736117,13.6368667 L105.448117,13.6368667 Z M72.01445,13.6363667 L72.01445,23.1133667 L79.9686167,23.1133667 L79.9686167,20.9130333 L75.0592833,20.9130333 L75.0592833,19.1267 L79.4866167,19.1267 L79.4866167,17.1207 L75.05745,17.1207 L75.05745,15.6795333 L79.8367833,15.6795333 L79.8367833,13.6363667 L72.01445,13.6363667 Z M121.017117,16.3120333 C120.94795,15.4093667 120.650617,14.6332 119.913783,14.1705333 C119.394117,13.8443667 118.766283,13.6175333 118.158617,13.5195333 C117.00195,13.3328667 115.838617,13.3725333 114.71795,13.8183667 C113.932283,14.1308667 113.29845,14.7105333 113.062283,15.4353667 C112.65495,16.6853667 113.249617,17.8855333 114.46445,18.4857 C115.224117,18.8608667 116.07545,19.0493667 116.883617,19.3273667 C117.24895,19.4532 117.64745,19.5362 117.95945,19.7452 C118.17745,19.8912 118.41895,20.2385333 118.388117,20.4595333 C118.34995,20.7337 118.094283,21.0823667 117.839783,21.2023667 C117.089617,21.5558667 115.871783,21.3530333 115.624283,20.2820333 C115.588617,20.1268667 115.51245,19.9810333 115.434617,19.7775333 C114.51345,19.8355333 113.612117,19.8923667 112.622117,19.9548667 C112.850617,21.3475333 113.347617,22.4465333 114.660283,22.9343667 C115.84445,23.3745333 117.075117,23.4637 118.335117,23.2177 C119.178617,23.0532 119.914283,22.7363667 120.521283,22.1227 C121.482283,21.1515333 121.836283,19.1362 120.381617,17.9870333 C119.572783,17.3480333 118.61645,17.0973667 117.653283,16.8463667 C117.170783,16.7205333 116.67695,16.6255333 116.211283,16.4538667 C116.043283,16.3918667 115.82645,16.1358667 115.83995,15.9872 C115.85895,15.7792 116.027783,15.5148667 116.210783,15.4047 C116.78545,15.0583667 117.769617,15.3855333 118.078117,15.9872 C118.16045,16.1478667 118.20795,16.3265333 118.278617,16.5160333 C119.202117,16.4472 120.081283,16.3817 121.017117,16.3120333 L121.017117,16.3120333 Z M0.882616667,13.2888667 C1.15545,13.6845333 1.15545,13.6845333 1.16528333,14.5123667 C1.17628333,15.4498667 1.84211667,16.3730333 2.75428333,16.6420333 C3.16528333,16.7633667 3.60778333,16.7737 4.02795,16.8698667 C5.39978333,17.1835333 6.65811667,17.0785333 7.68361667,15.9742 C7.86995,15.7737 8.08811667,15.5900333 8.32161667,15.4483667 C9.38411667,14.8035333 9.75061667,13.9198667 9.31245,12.7313667 C9.25545,12.5767 9.21845,12.4087 9.20678333,12.2443667 C9.15045,11.4538667 8.75261667,10.8423667 8.22645,10.2863667 C7.37128333,9.38253333 7.55911667,8.4467 8.68861667,7.9342 C9.65128333,7.49753333 9.90828333,6.00786667 9.15095,5.25736667 C8.52861667,4.6407 7.34561667,4.4737 6.60528333,4.89803333 C6.24061667,5.10703333 6.17961667,5.38986667 6.43011667,5.71036667 C6.93628333,6.3587 6.95861667,6.37236667 6.54545,7.03903333 C6.27895,7.46886667 5.99578333,7.87453333 5.49861667,8.13603333 C4.85461667,8.47436667 4.50995,8.52086667 3.89461667,8.0687 C3.19395,7.55386667 3.04961667,7.28186667 3.35611667,6.53586667 C3.64645,5.82836667 4.10761667,5.19253333 4.41745,4.49153333 C4.64878333,3.96803333 5.04311667,3.74186667 5.54178333,3.62303333 C5.83095,3.5542 6.12978333,3.5067 6.42628333,3.4922 C6.93678333,3.4672 7.24828333,3.13936667 7.42561667,2.74503333 C7.59745,2.36303333 7.42228333,1.95803333 7.08861667,1.71153333 C6.83911667,1.52753333 6.52811667,1.36303333 6.22778333,1.3262 C5.70845,1.2627 5.17261667,1.34153333 4.65028333,1.2917 C4.19645,1.24853333 3.91428333,1.4382 3.68761667,1.7837 C3.24161667,2.4637 2.85128333,3.18903333 2.33878333,3.81453333 C1.74461667,4.54003333 1.44095,5.3807 1.07095,6.21436667 C0.73345,6.97453333 0.953783333,7.5632 1.37745,8.1267 C1.60878333,8.4342 1.95411667,8.66253333 2.26845,8.89953333 C2.99061667,9.44353333 3.10228333,10.0420333 2.62395,10.7748667 C2.52711667,10.9232 2.51861667,11.1287 2.46828333,11.3075333 C2.43345,11.4312 2.43211667,11.5852 2.35545,11.6725333 C1.89078333,12.2017 1.40878333,12.7155333 0.882616667,13.2888667 L0.882616667,13.2888667 Z M100.291783,23.1043667 L100.291783,20.3230333 L95.0182833,20.3230333 L95.0182833,18.0123667 L99.7742833,18.0123667 L99.7742833,15.5585333 L95.0041167,15.5585333 L95.0041167,13.7030333 L100.134617,13.7030333 L100.134617,11.1642 L91.7567833,11.1642 L91.7567833,23.1043667 L100.291783,23.1043667 Z M41.5896167,12.5422 C41.0487833,12.9573667 40.5276167,13.4098667 39.9557833,13.7855333 C38.8481167,14.5133667 37.72045,15.2120333 36.5846167,15.8955333 C35.8761167,16.3217 35.1712833,16.7885333 34.4041167,17.0745333 C33.42895,17.4382 32.39245,17.6377 31.38195,17.9063667 C31.2211167,17.9492 31.04195,17.9527 30.89895,18.0273667 C30.4521167,18.2607 30.0196167,18.5378667 29.97345,19.1023667 C29.9291167,19.6415333 30.2651167,20.0710333 30.6987833,20.2103667 C31.1401167,20.3520333 31.6972833,20.3385333 32.1476167,20.2045333 C33.0957833,19.9227 34.0472833,19.5953667 34.9231167,19.1428667 C35.9671167,18.6037 36.9791167,17.9755333 37.9231167,17.2757 C39.6297833,16.0105333 41.3046167,14.6977 42.9311167,13.3315333 C43.4826167,12.8683667 44.0407833,12.8077 44.6812833,12.7882 C45.57145,12.7610333 45.6451167,13.4472 45.8377833,14.0415333 C45.8462833,14.0678667 45.8511167,14.0955333 45.8582833,14.1222 C45.9571167,14.4893667 46.19395,14.5913667 46.5542833,14.5157 C46.87895,14.4475333 47.2096167,14.3880333 47.5396167,14.3747 C47.71295,14.3678667 47.93945,14.4162 48.0581167,14.5283667 C48.6996167,15.1340333 49.1882833,15.8353667 49.1256167,16.7735333 C49.0051167,18.5800333 47.9782833,19.7550333 46.4361167,20.5543667 C46.2701167,20.6403667 46.01045,20.6400333 45.9232833,20.7677 C45.4532833,21.4562 44.6837833,21.3982 44.01595,21.5593667 C43.49495,21.6850333 42.9707833,21.5947 42.52295,21.2420333 C42.3951167,21.1412 42.2527833,21.0515333 42.1041167,20.9862 C41.7966167,20.8508667 41.4761167,20.7163667 41.1742833,20.9968667 C40.86095,21.2880333 40.90695,21.6562 41.0412833,21.9927 C41.1942833,22.3760333 41.4341167,22.7238667 41.6007833,23.1025333 C41.9607833,23.9205333 42.59395,24.3352 43.46545,24.3745333 C43.8161167,24.3902 44.1862833,24.3663667 44.51995,24.2673667 C45.0157833,24.1202 45.4762833,23.8567 45.9702833,23.7015333 C47.83895,23.1137 49.1301167,21.7542 50.41445,20.3927 C50.6272833,20.1670333 50.83045,19.8145333 50.82395,19.5255333 C50.81245,19.0262 51.05895,18.6377 51.18045,18.1980333 C51.23895,17.9863667 51.29445,17.7637 51.29145,17.5468667 C51.2806167,16.7600333 51.3006167,15.9543667 50.96795,15.2247 C50.58395,14.3825333 50.3262833,13.4495333 49.4732833,12.8948667 C49.27145,12.7637 49.1506167,12.5100333 48.9516167,12.3715333 C48.07695,11.7623667 47.2267833,11.0978667 46.1062833,10.9852 C45.2601167,10.9000333 44.4162833,10.7893667 43.5697833,10.7083667 C43.2397833,10.6768667 42.90195,10.6642 42.5731167,10.6970333 C41.42945,10.8118667 41.0701167,11.4872 41.5896167,12.5422 L41.5896167,12.5422 Z M66.1746167,11.1673667 L66.1746167,17.5715333 C64.88695,15.3383667 63.67845,13.2425333 62.4911167,11.1833667 L59.5057833,11.1833667 L59.5057833,23.1062 L62.5147833,23.1062 L62.5147833,16.9205333 C62.55345,16.9143667 62.5921167,16.9080333 62.6307833,16.9018667 C63.83045,18.9783667 65.02995,21.0550333 66.21695,23.1097 C66.8951167,23.1458667 67.5386167,23.1177 68.1572833,23.2283667 C68.9792833,23.3752 69.2457833,23.2342 69.2496167,22.4282 C69.2577833,20.7080333 69.2496167,18.9875333 69.2491167,17.2672 C69.2486167,15.2488667 69.24895,13.2308667 69.24895,11.1673667 L66.1746167,11.1673667 Z M23.2036167,23.5410333 C23.2711167,23.5103667 23.3977833,23.3993667 23.5142833,23.4092 C24.2811167,23.4733667 24.4511167,22.9192 24.5767833,22.3678667 C24.6482833,22.0540333 24.6477833,21.7067 24.5981167,21.3870333 C24.5447833,21.0435333 24.27195,20.6993667 24.31095,20.3822 C24.4701167,19.0878667 23.9886167,17.9492 23.5787833,16.7833667 C23.51945,16.6142 23.53745,16.4103667 23.55045,16.2245333 C23.5936167,15.5982 23.6831167,14.9735333 23.69495,14.3470333 C23.7121167,13.4340333 23.6391167,12.5185333 23.6746167,11.6067 C23.7166167,10.5290333 23.89295,9.4542 23.8961167,8.3777 C23.8982833,7.66453333 24.02895,7.04053333 24.3976167,6.43803333 C24.68995,5.9602 24.70545,5.4322 24.4707833,4.92086667 C24.08345,4.07703333 23.22795,3.6927 22.61295,3.0712 C22.57995,3.03786667 22.5081167,3.04303333 22.4542833,3.0307 C21.9501167,2.91603333 21.4486167,2.71903333 20.9412833,2.70286667 C19.55845,2.65886667 18.14595,2.52403333 16.7967833,2.74286667 C15.56295,2.94286667 14.3151167,2.86536667 13.0976167,3.12186667 C12.9951167,3.14353333 12.8782833,3.10136667 12.7687833,3.0842 C11.75095,2.9247 11.33995,3.1032 10.9126167,4.01936667 C10.6236167,4.63886667 10.42095,5.29886667 10.18845,5.94386667 C10.14695,6.05903333 10.0976167,6.21036667 10.1381167,6.3102 C10.4337833,7.0377 10.7776167,7.74653333 11.0516167,8.4817 C11.20395,8.8907 11.3147833,9.33603333 11.3332833,9.7697 C11.3771167,10.7955333 11.3827833,11.8252 11.3497833,12.8517 C11.3231167,13.6765333 11.2517833,14.5037 11.1357833,15.3208667 C11.0352833,16.0277 10.82195,16.7178667 10.69895,17.4223667 C10.5332833,18.3718667 10.17845,19.2438667 9.77211667,20.0998667 C9.67245,19.7772 9.65578333,19.4688667 9.57978333,19.1758667 C9.44278333,18.6475333 9.32095,18.1052 9.09728333,17.6120333 C8.89445,17.1652 8.38845,16.9563667 7.99095,17.1820333 C7.69645,17.3492 7.38445,17.7145333 7.33061667,18.0340333 C7.15411667,19.0780333 8.02028333,20.5213667 8.98128333,20.9672 C8.98128333,21.1365333 9.00861667,21.3082 8.97695,21.4682 C8.76945,22.5168667 9.62495,23.3520333 10.5836167,22.9490333 C10.9707833,22.7865333 11.3917833,22.3800333 11.52245,21.9920333 C11.9221167,20.8053667 12.2097833,19.5787 12.49795,18.3573667 C12.66745,17.6392 12.75545,16.9017 12.87395,16.2087 C13.58645,16.0780333 13.7797833,16.5972 14.07195,16.9315333 C13.54045,17.8672 13.80595,18.7868667 14.08895,19.6620333 C14.2351167,20.1138667 14.7107833,20.3607 15.2172833,20.4050333 C15.80295,20.4563667 16.3067833,19.8908667 16.0346167,19.3897 C15.5362833,18.4723667 15.7106167,17.5733667 15.8827833,16.6438667 C15.9462833,16.3005333 16.1156167,16.1273667 16.4392833,16.0067 C17.4826167,15.6178667 18.5427833,15.5885333 19.63295,15.7312 C20.0587833,15.7867 20.5032833,15.7455333 20.93445,15.7013667 C21.3392833,15.6597 21.4657833,15.3333667 21.4891167,14.9825333 C21.5197833,14.5220333 21.33345,14.1315333 20.88395,14.0013667 C20.4402833,13.8727 19.9661167,13.8342 19.5021167,13.7930333 C18.0261167,13.6618667 17.9626167,13.5987 18.0381167,12.1492 C18.0406167,12.0997 18.08045,12.0520333 18.12495,11.9557 C18.91095,11.6260333 19.76345,11.5892 20.6202833,11.7210333 C20.8741167,11.7602 21.1216167,11.9343667 21.3401167,12.0910333 C22.1512833,12.6722 22.0097833,13.5352 21.9741167,14.3590333 C21.9526167,14.8538667 21.8751167,15.3485333 21.88495,15.8420333 C21.92245,17.6972 21.96695,19.5528667 22.04745,21.4065333 C22.0847833,22.2640333 22.1411167,23.1535333 23.2036167,23.5410333 L23.2036167,23.5410333 Z M-5e-05,20.5000333 L-5e-05,3.33333333e-05 L38.1666167,3.33333333e-05 C37.9152833,0.407366667 37.47895,0.264366667 37.1201167,0.355033333 C36.6411167,0.476033333 36.1301167,0.538366667 35.6967833,0.754033333 C35.1546167,1.02403333 34.9707833,1.6427 35.1776167,2.0922 C35.3811167,2.5342 35.9216167,2.73636667 36.5206167,2.57903333 C37.1712833,2.40836667 37.81945,2.07103333 38.46695,2.0757 C40.4597833,2.0897 42.4531167,2.21236667 44.44345,2.33603333 C45.1157833,2.37786667 45.6122833,2.77153333 45.9371167,3.3822 C46.4411167,4.3292 46.5652833,5.3637 46.6771167,6.40353333 C46.68595,6.48503333 46.6747833,6.5707 46.66145,6.65236667 C46.5212833,7.5102 45.9382833,8.00053333 45.0771167,8.04886667 C44.5276167,8.07953333 43.9832833,8.1952 43.43395,8.2392 C42.8306167,8.2877 42.2042833,8.4072 41.62345,8.30103333 C40.5566167,8.1062 39.53745,8.16686667 38.5026167,8.4487 C37.82845,8.63236667 37.14195,8.67636667 36.4502833,8.44636667 C35.8826167,8.25753333 35.5086167,7.9317 35.3137833,7.3502 C35.08045,6.6537 34.9951167,5.9762 35.09445,5.23203333 C35.1881167,4.5302 35.12095,3.8002 35.0632833,3.08736667 C35.0297833,2.67136667 34.75695,2.3682 34.30995,2.32386667 C33.8561167,2.27886667 33.46195,2.4682 33.29395,2.88086667 C33.0992833,3.35936667 32.9207833,3.87686667 32.8966167,4.38503333 C32.8561167,5.23736667 32.9606167,6.0957 32.9717833,6.95186667 C32.98395,7.88886667 32.9942833,8.8142 33.77295,9.50853333 C33.82895,9.55836667 33.8222833,9.67586667 33.87645,9.7312 C34.0996167,9.95986667 34.3081167,10.2178667 34.5716167,10.3888667 C35.1091167,10.7377 35.7262833,10.7395333 36.3436167,10.6870333 C36.6682833,10.6593667 36.99345,10.6393667 37.31845,10.6158667 C37.35395,10.6673667 37.38945,10.7188667 37.42495,10.7702 C37.2586167,10.9923667 37.1341167,11.2775333 36.9166167,11.4233667 C36.4857833,11.7120333 36.01445,11.9483667 35.5401167,12.1620333 C34.6882833,12.5457 33.8316167,12.9232 32.9557833,13.2453667 C32.6916167,13.3427 32.34195,13.3068667 32.05795,13.2318667 C31.3017833,13.0325333 30.7586167,13.2420333 30.26145,13.8542 C30.01445,14.1583667 29.9057833,14.2882 30.1447833,14.6593667 C30.6281167,15.4100333 30.85945,15.5857 31.72795,15.3943667 C32.53345,15.2168667 33.3147833,14.8382 34.12245,14.7847 C35.0076167,14.7260333 35.7061167,14.3118667 36.4402833,13.9528667 C36.9797833,13.6892 37.4817833,13.3307 37.9581167,12.9600333 C38.79245,12.3110333 39.6761167,11.7032 40.0797833,10.6412 C40.1446167,10.4707 40.4856167,10.2477 40.6262833,10.2902 C41.2732833,10.4853667 41.88795,10.2797 42.5171167,10.2553667 C43.70295,10.2095333 44.8921167,10.2542 46.0776167,10.2050333 C47.4142833,10.1495333 48.8481167,9.08736667 48.9486167,7.67903333 C49.0791167,5.84953333 48.7466167,4.10736667 48.06795,2.39286667 C47.61345,1.2447 46.78945,0.844866667 45.69045,0.619866667 C45.1697833,0.513033333 44.5417833,0.523866667 44.1666167,3.33333333e-05 L130.833283,3.33333333e-05 L130.833283,21.0000333 C129.15895,20.9695333 127.484783,20.9392 125.815117,20.9087 L125.815117,19.1027 L130.273617,19.1027 L130.273617,17.1003667 L125.81295,17.1003667 L125.81295,15.6865333 L130.645117,15.6865333 L130.645117,13.6410333 L122.809783,13.6410333 L122.809783,23.1667 L130.833283,23.1667 L130.833283,27.0000333 C130.52795,26.9983667 130.222617,26.9950333 129.917283,26.9950333 C87.2776167,26.9945333 44.63795,26.9940333 1.99828333,26.9940333 C1.33211667,26.9940333 0.666116667,26.9978667 -5e-05,27.0000333 L-5e-05,23.1667 C0.458116667,23.2805333 0.888783333,23.7728667 1.38295,23.3882 C1.78195,23.0777 2.22395,22.7163667 2.41995,22.2765333 C2.68761667,21.6760333 2.75978333,20.9922 3.11395,20.4038667 C3.20961667,20.2448667 3.21628333,19.8793667 3.10678333,19.7775333 C2.73861667,19.4350333 2.92211667,19.0890333 2.97895,18.7237 C3.06111667,18.1962 2.87578333,17.7972 2.52395,17.6735333 C2.11278333,17.5292 1.76495,17.7373667 1.47178333,18.2610333 C1.06495,18.9880333 0.641283333,19.7057 0.21495,20.4213667 C0.184616667,20.4722 0.0736166667,20.4748667 -5e-05,20.5000333 L-5e-05,20.5000333 Z" id="Fill-1" fill="#FCFDFD"></path>
                <path d="M42.7031667,36.91 L44.6643333,36.91 L44.6643333,35.0386667 L42.7031667,35.0386667 L42.7031667,36.91 Z M89.057,36.8928333 L91.0625,36.8928333 L91.0625,35.0735 L89.057,35.0735 L89.057,36.8928333 Z M104.017333,34.6536667 C103.5535,33.1476667 102.528333,32.5361667 101.116833,32.4931667 C100.004167,32.4593333 98.9621667,32.6636667 98.1955,33.5815 C97.0216667,34.9863333 97.1996667,37.6248333 98.5888333,38.8123333 C98.9248333,39.0995 99.3648333,39.3441667 99.792,39.4258333 C100.382,39.5383333 101.007667,39.5193333 101.613667,39.4828333 C102.8675,39.4075 103.857833,38.4043333 103.988667,37.092 C103.397333,36.9295 102.7985,36.7651667 102.202,36.6011667 C102.131167,36.7995 102.099167,36.9053333 102.056167,37.0065 C101.772,37.6761667 101.371833,37.928 100.710167,37.8581667 C100.111,37.7951667 99.7541667,37.4663333 99.6795,36.7533333 C99.6225,36.2085 99.6121667,35.6358333 99.7161667,35.102 C99.8815,34.2531667 100.807167,33.8523333 101.5195,34.2901667 C101.784333,34.4528333 101.968667,34.7465 102.2475,35.0413333 C102.771667,34.9266667 103.36,34.7976667 104.017333,34.6536667 L104.017333,34.6536667 Z M55.3573333,39.7968333 L55.3573333,29.8255 L53.174,29.8255 C52.568,31.244 51.3903333,31.982 50.0435,32.4205 L50.0435,34.8031667 C50.9896667,34.3263333 51.8345,33.9003333 52.7391667,33.4446667 L52.7391667,39.7968333 L55.3573333,39.7968333 Z M113.065667,39.5023333 C115.1675,39.4938333 116.312833,38.6508333 116.597333,36.8241667 C116.944667,34.5958333 116.1325,32.732 113.572,32.5073333 C112.2205,32.3888333 110.938833,32.6428333 110.1595,33.9225 C109.375667,35.2096667 109.390667,36.6023333 110.041167,37.9023333 C110.6595,39.138 111.818,39.5853333 113.065667,39.5023333 L113.065667,39.5023333 Z M122.151333,39.083 L124.016,39.083 C124.016,37.8536667 124.013333,36.6653333 124.018,35.4771667 C124.019,35.2281667 123.987667,34.9536667 124.081333,34.7388333 C124.151333,34.5785 124.4025,34.399 124.565833,34.4056667 C124.722,34.412 124.9305,34.6208333 125.003667,34.7893333 C125.086667,34.9801667 125.054,35.2251667 125.055,35.4466667 C125.059167,36.3353333 125.057167,37.224 125.057333,38.1126667 L125.057333,39.0778333 L126.974167,39.0778333 C126.974167,38.8126667 126.9735,38.5971667 126.974333,38.3816667 C126.978167,37.2988333 126.988167,36.2156667 126.9845,35.1328333 C126.982667,34.6283333 127.177667,34.3453333 127.817167,34.3851667 C128.238,35.915 127.8575,37.5016667 128.051333,39.0606667 L129.9115,39.0606667 C129.9115,37.8956667 129.919833,36.7893333 129.907667,35.6831667 C129.902,35.1575 129.9165,34.621 129.818333,34.1091667 C129.622333,33.0868333 128.791,32.4143333 127.804333,32.5283333 C127.3525,32.5805 126.928333,32.8721667 126.4335,33.0798333 C126.075167,32.656 125.503333,32.331 124.885,32.5418333 C124.173333,32.7845 123.483,32.6165 122.786667,32.6678333 C122.5765,32.6835 122.366333,32.698 122.151333,32.7135 L122.151333,39.083 Z M17.649,32.6103333 C17.3083333,33.723 16.991,34.7596667 16.6736667,35.7961667 C16.6268333,35.7836667 16.58,35.771 16.5331667,35.7585 C16.3343333,34.7261667 16.1355,33.694 15.9318333,32.6368333 L13.8721667,32.6368333 C14.3816667,34.9198333 14.8783333,37.1451667 15.373,39.3613333 L17.4881667,39.3613333 C17.8513333,38.0761667 18.2126667,36.7978333 18.574,35.5195 C18.6141667,35.5185 18.6541667,35.5173333 18.6943333,35.5163333 C19.0521667,36.7826667 19.4101667,38.0491667 19.7713333,39.3275 L21.9155,39.3275 C22.4111667,37.0645 22.894,34.8605 23.3845,32.6216667 L21.3805,32.6216667 C21.1383333,33.7013333 20.9021667,34.7535 20.6661667,35.806 C20.626,35.8021667 20.5858333,35.7985 20.5456667,35.795 C20.2396667,34.7361667 19.9336667,33.6773333 19.6251667,32.6103333 L17.649,32.6103333 Z M30.4728333,35.956 C30.4375,35.9571667 30.4021667,35.9581667 30.3668333,35.9593333 C30.1511667,34.8555 29.9355,33.7518333 29.7173333,32.635 L27.6618333,32.635 C28.1746667,34.9178333 28.675,37.1445 29.1728333,39.3598333 L31.2755,39.3598333 C31.6436667,38.0741667 32.0078333,36.8021667 32.372,35.5305 C32.4125,35.5343333 32.453,35.5381667 32.4935,35.542 C32.8525,36.8106667 33.2115,38.0793333 33.566,39.3326667 L35.7085,39.3326667 C36.21,37.0598333 36.6953333,34.8605 37.1896667,32.6205 L35.1518333,32.6205 C34.923,33.7441667 34.6978333,34.85 34.4336667,36.1471667 C34.0618333,34.849 33.7441667,33.7403333 33.4323333,32.6515 L31.4123333,32.6515 C31.0898333,33.7861667 30.7813333,34.8711667 30.4728333,35.956 L30.4728333,35.956 Z M130.833333,28.1666667 L130.833333,40 L80.5,40 C80.7108333,39.8975 80.9191667,39.7891667 81.133,39.6933333 C82.302,39.1691667 82.9183333,38.2593333 83.039,36.9933333 C83.1511667,35.819 82.7568333,34.9296667 81.6361667,34.4318333 C81.6023333,34.4166667 81.5951667,34.3415 81.5325,34.1908333 C81.6116667,34.1393333 81.7326667,34.0715 81.8421667,33.988 C83.0831667,33.04 82.8028333,30.6356667 80.9685,30.034 C80.0733333,29.7405 79.1613333,29.7306667 78.2533333,29.8396667 C76.7845,30.016 75.8681667,30.9085 75.5605,32.4051667 C76.3638333,32.5498333 77.1653333,32.6941667 77.9586667,32.837 C78.3048333,31.7641667 78.612,31.4796667 79.2681667,31.5823333 C79.7345,31.6553333 79.9698333,31.9398333 79.9828333,32.4456667 C80.0021667,33.19 79.686,33.4485 78.4875,33.6516667 C78.4423333,34.2678333 78.3968333,34.8901667 78.3503333,35.5246667 C79.786,35.344 80.1623333,35.4985 80.3368333,36.301 C80.5373333,37.2236667 80.2223333,38.0108333 79.5823333,38.1858333 C78.7933333,38.4016667 78.3968333,38.0778333 77.96,36.8503333 C77.802,36.8503333 77.636,36.8308333 77.476,36.8536667 C76.7955,36.9503333 76.1166667,37.0593333 75.3751667,37.1736667 C75.7085,38.3453333 76.2846667,39.2265 77.3721667,39.7185 C77.5351667,39.7921667 77.68,39.9051667 77.8333333,40 L67.1666667,40 C67.2196667,39.9465 67.2638333,39.8623333 67.3273333,39.8436667 C68.8425,39.3975 69.6518333,38.3646667 69.7841667,36.7706667 C69.8715,35.7175 69.3986667,34.8371667 68.9131667,33.9896667 C68.7458333,33.6975 68.2378333,33.5868333 67.8716667,33.4243333 C67.0563333,33.0621667 66.2508333,33.1228333 65.4741667,33.5475 C65.2605,33.6641667 65.068,33.8191667 64.686,34.0786667 C64.8826667,33.296 64.9965,32.6731667 65.2036667,32.0828333 C65.3263333,31.7331667 65.6476667,31.5381667 66.0625,31.5408333 C66.4981667,31.5438333 66.7111667,31.7925 66.8495,32.1575 C66.8956667,32.2795 66.9518333,32.3978333 66.9936667,32.495 C67.6223333,32.495 68.2023333,32.5256667 68.7775,32.487 C69.435,32.4425 69.6116667,32.0793333 69.3105,31.4881667 C68.6493333,30.1896667 67.5323333,29.8098333 66.1476667,29.777 C64.3233333,29.7335 62.7985,30.7656667 62.3346667,32.6895 C62.0036667,34.0625 61.9791667,35.4531667 62.2528333,36.8173333 C62.531,38.2046667 63.2193333,39.3526667 64.69,39.8215 C64.7505,39.8408333 64.7861667,39.9386667 64.8333333,40 L0,40 L0,33.1666667 C0.1075,33.3646667 0.265666667,33.5511667 0.314666667,33.7628333 C0.744666667,35.6196667 1.15516667,37.4808333 1.57666667,39.3641667 L3.69583333,39.3641667 C4.0575,38.0848333 4.41116667,36.8328333 4.765,35.581 C4.81466667,35.5875 4.86433333,35.5941667 4.91383333,35.6008333 C5.274,36.86 5.63383333,38.1193333 5.97983333,39.3293333 L8.12133333,39.3293333 C8.61733333,37.0736667 9.10066667,34.8753333 9.59283333,32.6373333 L7.56266667,32.6373333 C7.33716667,33.7508333 7.11866667,34.829 6.90033333,35.907 C6.8575,35.8985 6.8145,35.8898333 6.7715,35.8811667 C6.46133333,34.7981667 6.15116667,33.7151667 5.84266667,32.6386667 L3.82933333,32.6386667 C3.50816667,33.7578333 3.1915,34.8611667 2.875,35.9645 C2.83633333,35.953 2.79766667,35.9413333 2.759,35.93 C2.55333333,34.8518333 2.34766667,33.7738333 2.1365,32.6666667 L0,32.6666667 L0,28.1666667 C0.582666667,28.1606667 1.16533333,28.1491667 1.74816667,28.1491667 C44.4993333,28.1483333 87.2505,28.1483333 130.001667,28.1491667 C130.278833,28.1491667 130.556167,28.1606667 130.833333,28.1666667 L130.833333,28.1666667 Z" id="Fill-4" fill="#FCFDFD"></path>
                <path d="M130.833333,28.1666667 C130.556167,28.1606667 130.278833,28.1491667 130.001667,28.1491667 C87.2505,28.1483333 44.4993333,28.1483333 1.74816667,28.1491667 C1.16533333,28.1491667 0.582666667,28.1606667 0,28.1666667 L0,27 C0.666166667,26.9978333 1.33216667,26.994 1.99816667,26.994 C44.638,26.994 87.2776667,26.9945 129.917333,26.9951667 C130.222667,26.9951667 130.528,26.9983333 130.833333,27 L130.833333,28.1666667 Z" id="Fill-6" fill="#080808"></path>
                <path d="M44.1666667,0 C44.5418333,0.524 45.1698333,0.513166667 45.6905,0.619833333 C46.7893333,0.844833333 47.6135,1.24466667 48.068,2.39283333 C48.7466667,4.1075 49.0791667,5.8495 48.9485,7.679 C48.848,9.08733333 47.4141667,10.1495 46.0776667,10.205 C44.8921667,10.2541667 43.7028333,10.2095 42.5171667,10.2553333 C41.888,10.2796667 41.2733333,10.4853333 40.6261667,10.2901667 C40.4856667,10.2476667 40.1446667,10.4706667 40.0798333,10.6413333 C39.6761667,11.7031667 38.7923333,12.311 37.9581667,12.96 C37.4818333,13.3306667 36.9798333,13.6891667 36.4403333,13.9528333 C35.706,14.312 35.0075,14.726 34.1225,14.7846667 C33.3148333,14.8381667 32.5335,15.2168333 31.728,15.3943333 C30.8593333,15.5858333 30.6281667,15.41 30.1448333,14.6593333 C29.9058333,14.2881667 30.0143333,14.1583333 30.2613333,13.8541667 C30.7586667,13.2421667 31.3018333,13.0325 32.058,13.232 C32.342,13.3068333 32.6915,13.3426667 32.9558333,13.2455 C33.8316667,12.9231667 34.6883333,12.5456667 35.54,12.162 C36.0145,11.9483333 36.4858333,11.712 36.9166667,11.4235 C37.1341667,11.2775 37.2585,10.9925 37.425,10.7703333 C37.3895,10.7188333 37.354,10.6673333 37.3185,10.6158333 C36.9935,10.6393333 36.6683333,10.6593333 36.3436667,10.687 C35.7263333,10.7396667 35.109,10.7376667 34.5716667,10.3888333 C34.3081667,10.2178333 34.0996667,9.95983333 33.8763333,9.73133333 C33.8223333,9.676 33.829,9.5585 33.773,9.5085 C32.9943333,8.81416667 32.984,7.88883333 32.9718333,6.95183333 C32.9606667,6.09566667 32.856,5.23733333 32.8966667,4.385 C32.9208333,3.87683333 33.0991667,3.35933333 33.294,2.881 C33.462,2.46816667 33.8561667,2.27883333 34.3098333,2.32383333 C34.757,2.36816667 35.0296667,2.67133333 35.0633333,3.08733333 C35.121,3.80016667 35.188,4.53033333 35.0943333,5.23216667 C34.9951667,5.97616667 35.0805,6.65366667 35.3138333,7.35033333 C35.5085,7.93166667 35.8826667,8.2575 36.4503333,8.44633333 C37.142,8.67633333 37.8285,8.63233333 38.5026667,8.44866667 C39.5375,8.16683333 40.5565,8.10633333 41.6235,8.30116667 C42.2043333,8.40716667 42.8306667,8.28783333 43.434,8.23933333 C43.9833333,8.19516667 44.5276667,8.07966667 45.0771667,8.04883333 C45.9381667,8.0005 46.5213333,7.51033333 46.6613333,6.6525 C46.6746667,6.57066667 46.6858333,6.48516667 46.6771667,6.4035 C46.5653333,5.36383333 46.4411667,4.32933333 45.9371667,3.38216667 C45.6123333,2.7715 45.1156667,2.378 44.4435,2.33616667 C42.453,2.21233333 40.4598333,2.08966667 38.4668333,2.07566667 C37.8195,2.071 37.1711667,2.4085 36.5206667,2.57916667 C35.9216667,2.73633333 35.3811667,2.53416667 35.1776667,2.09216667 C34.9708333,1.64266667 35.1546667,1.024 35.6968333,0.754 C36.1301667,0.538333333 36.6411667,0.476 37.12,0.355 C37.479,0.264333333 37.9153333,0.407333333 38.1666667,0 L44.1666667,0 Z" id="Fill-7" fill="#EF0C0E"></path>
                <path d="M130.833333,23.1666667 L122.809667,23.1666667 L122.809667,13.6411667 L130.645167,13.6411667 L130.645167,15.6866667 L125.813,15.6866667 L125.813,17.1003333 L130.273667,17.1003333 L130.273667,19.1028333 L125.815167,19.1028333 L125.815167,20.9086667 C127.484833,20.9391667 129.159,20.9695 130.833333,21 L130.833333,23.1666667 Z" id="Fill-8" fill="#080808"></path>
                <path d="M64.7875167,36.6222333 C64.8975167,36.9320667 64.99685,37.3334 65.1785167,37.6930667 C65.38835,38.1077333 65.78985,38.2245667 66.23885,38.1902333 C66.68185,38.1565667 66.96835,37.8792333 67.1070167,37.5072333 C67.3470167,36.8630667 67.32835,36.2014 67.0186833,35.5722333 C66.8156833,35.1599 66.4785167,34.9860667 66.0096833,34.9820667 C65.5181833,34.9779 65.22185,35.2390667 65.03885,35.6292333 C64.91285,35.8977333 64.88635,36.2129 64.7875167,36.6222333 L64.7875167,36.6222333 Z M64.83335,40.0000667 C64.7861833,39.9385667 64.7505167,39.8409 64.6900167,39.8214 C63.21935,39.3527333 62.5310167,38.2045667 62.25285,36.8174 C61.9790167,35.4530667 62.0036833,34.0625667 62.3346833,32.6894 C62.79835,30.7655667 64.32335,29.7335667 66.1476833,29.7770667 C67.53235,29.8099 68.6491833,30.1895667 69.3105167,31.4880667 C69.6116833,32.0792333 69.4350167,32.4425667 68.7775167,32.4869 C68.20235,32.5257333 67.62235,32.4949 66.9936833,32.4949 C66.95185,32.3977333 66.8956833,32.2794 66.8495167,32.1575667 C66.7111833,31.7924 66.4981833,31.5437333 66.0625167,31.5409 C65.6476833,31.5380667 65.32635,31.7332333 65.2036833,32.0829 C64.9965167,32.6732333 64.8826833,33.2960667 64.6860167,34.0785667 C65.0680167,33.8192333 65.2605167,33.6642333 65.4741833,33.5475667 C66.25085,33.1229 67.05635,33.0622333 67.8716833,33.4244 C68.23785,33.5869 68.74585,33.6974 68.9130167,33.9897333 C69.3986833,34.8372333 69.8715167,35.7174 69.7841833,36.7707333 C69.65185,38.3647333 68.8425167,39.3974 67.32735,39.8435667 C67.26385,39.8622333 67.2196833,39.9464 67.1666833,40.0000667 L64.83335,40.0000667 Z" id="Fill-9" fill="#080808"></path>
                <path d="M77.8333333,40 C77.68,39.9051667 77.5351667,39.7921667 77.3721667,39.7185 C76.2846667,39.2265 75.7085,38.3453333 75.3751667,37.1736667 C76.1166667,37.0593333 76.7955,36.9503333 77.476,36.8536667 C77.636,36.8308333 77.8021667,36.8503333 77.96,36.8503333 C78.3968333,38.0778333 78.7933333,38.4016667 79.5823333,38.1858333 C80.2223333,38.0108333 80.5373333,37.2236667 80.3368333,36.301 C80.1623333,35.4985 79.786,35.344 78.3503333,35.5246667 C78.3968333,34.8901667 78.4423333,34.2678333 78.4875,33.6516667 C79.686,33.4485 80.0021667,33.19 79.9828333,32.4456667 C79.9698333,31.9398333 79.7345,31.6553333 79.2681667,31.5823333 C78.612,31.4796667 78.3048333,31.7641667 77.9586667,32.837 C77.1653333,32.6941667 76.3638333,32.5498333 75.5605,32.4051667 C75.8681667,30.9085 76.7845,30.016 78.2533333,29.8396667 C79.1613333,29.7306667 80.0733333,29.7405 80.9685,30.034 C82.8028333,30.6356667 83.0831667,33.04 81.8421667,33.988 C81.7326667,34.0715 81.6116667,34.1393333 81.5325,34.1908333 C81.5951667,34.3415 81.6023333,34.4166667 81.6361667,34.4318333 C82.7568333,34.9296667 83.1511667,35.819 83.039,36.9933333 C82.9183333,38.2593333 82.302,39.1691667 81.133,39.6933333 C80.9191667,39.7891667 80.7108333,39.8975 80.5,40 L77.8333333,40 Z" id="Fill-10" fill="#080808"></path>
                <path d="M0,32.6666667 L2.1365,32.6666667 C2.34766667,33.7738333 2.55333333,34.8518333 2.759,35.93 C2.79766667,35.9413333 2.83633333,35.953 2.875,35.9645 C3.1915,34.8611667 3.50816667,33.7578333 3.82933333,32.6386667 L5.84266667,32.6386667 C6.15116667,33.7151667 6.46133333,34.7981667 6.7715,35.8811667 C6.8145,35.8898333 6.8575,35.8985 6.90033333,35.907 C7.11866667,34.829 7.33716667,33.7508333 7.56266667,32.6373333 L9.59283333,32.6373333 C9.10066667,34.8753333 8.61733333,37.0736667 8.12133333,39.3293333 L5.97983333,39.3293333 C5.63383333,38.1193333 5.274,36.86 4.91383333,35.6008333 C4.86433333,35.5941667 4.81466667,35.5875 4.765,35.581 C4.41116667,36.8328333 4.0575,38.0848333 3.69583333,39.3641667 L1.57666667,39.3641667 C1.15516667,37.4808333 0.744666667,35.6196667 0.314666667,33.7628333 C0.265666667,33.5511667 0.1075,33.3646667 0,33.1666667 L0,32.6666667 Z" id="Fill-11" fill="#080808"></path>
                <path d="M0,20.5 C0.0735,20.475 0.184666667,20.4721667 0.215,20.4213333 C0.641333333,19.7056667 1.065,18.988 1.47183333,18.261 C1.76483333,17.7373333 2.11266667,17.5291667 2.524,17.6736667 C2.87566667,17.7971667 3.061,18.1961667 2.979,18.7236667 C2.92216667,19.089 2.73866667,19.435 3.10683333,19.7775 C3.21633333,19.8793333 3.20966667,20.2448333 3.114,20.4038333 C2.75983333,20.9921667 2.68766667,21.6761667 2.42,22.2765 C2.22383333,22.7163333 1.782,23.0776667 1.383,23.3881667 C0.888833333,23.773 0.458166667,23.2806667 0,23.1666667 L0,20.5 Z" id="Fill-12" fill="#EF0C0E"></path>
                <path d="M14.6825333,11.9047833 C14.2523667,12.1761167 13.6968667,12.3551167 13.4392,12.7356167 C13.1603667,13.1471167 13.1593667,13.74695 13.0310333,14.2907833 C13.5047,14.1766167 13.8700333,14.0581167 14.2447,14.0066167 C14.6245333,13.9546167 15.0137,13.95545 15.3985333,13.95795 C15.7260333,13.9601167 15.9922,13.89695 16.1340333,13.55945 C16.4750333,12.7476167 16.0905333,12.1097833 15.2050333,12.01745 C15.0222,11.99845 14.8432,11.94045 14.6825333,11.9047833 M19.7285333,9.74828333 C20.1468667,9.82645 20.5333667,9.86495 20.8987,9.97445 C21.5748667,10.1776167 21.8980333,10.0296167 21.9702,9.36061667 C22.0503667,8.61745 22.1030333,7.86811667 22.1098667,7.12095 C22.1242,5.57328333 20.5538667,4.30578333 19.0077,4.55778333 C18.6328667,4.61895 18.2332,4.61961667 17.8573667,4.56378333 C17.0190333,4.43928333 16.2132,4.43745 15.4128667,4.78511667 C15.0927,4.92428333 14.7147,4.93878333 14.3600333,4.98878333 C13.1148667,5.16461667 12.3998667,6.03078333 12.4908667,7.28195 C12.5290333,7.80745 12.5767,8.33295 12.6433667,8.85545 C12.7402,9.61428333 13.3843667,10.2402833 14.1523667,10.21795 C15.1165333,10.1897833 16.0785333,10.0722833 17.0407,9.98445 C17.8793667,9.90778333 18.3702,9.42661667 18.3100333,8.59361667 C18.2542,7.82161667 18.4457,7.11245 18.6365333,6.39278333 C18.7830333,5.84028333 19.4870333,5.29178333 19.9008667,5.38045 C20.2773667,5.46145 20.7013667,6.10495 20.6328667,6.66861667 C20.5688667,7.19478333 20.5435333,7.75495 20.1388667,8.19195 C19.7592,8.60195 19.6303667,9.10261667 19.7285333,9.74828333 M23.2035333,23.54095 C22.1412,23.15345 22.0847,22.26395 22.0473667,21.4066167 C21.9670333,19.5527833 21.9225333,17.6972833 21.8850333,15.8421167 C21.8750333,15.3486167 21.9525333,14.8537833 21.9740333,14.35895 C22.0098667,13.5351167 22.1513667,12.6722833 21.3402,12.0911167 C21.1215333,11.93445 20.8742,11.7601167 20.6203667,11.7211167 C19.7633667,11.5891167 18.9108667,11.62595 18.1250333,11.9557833 C18.0803667,12.0521167 18.0407,12.0996167 18.0382,12.1491167 C17.9627,13.5987833 18.0262,13.6617833 19.5020333,13.79295 C19.9660333,13.8341167 20.4402,13.8726167 20.8840333,14.0012833 C21.3333667,14.13145 21.5197,14.5221167 21.4890333,14.9826167 C21.4658667,15.33345 21.3392,15.6597833 20.9345333,15.7012833 C20.5032,15.7456167 20.0587,15.7867833 19.6328667,15.7311167 C18.5427,15.5886167 17.4827,15.61795 16.4392,16.0067833 C16.1155333,16.1272833 15.9462,16.3006167 15.8827,16.6437833 C15.7107,17.57345 15.5362,18.4722833 16.0345333,19.3897833 C16.3067,19.8907833 15.8028667,20.45645 15.2173667,20.4051167 C14.7108667,20.3606167 14.2350333,20.11395 14.0888667,19.66195 C13.8060333,18.78695 13.5403667,17.8671167 14.0718667,16.93145 C13.7798667,16.5971167 13.5863667,16.0781167 12.8740333,16.2086167 C12.7553667,16.9016167 12.6675333,17.6391167 12.4980333,18.35745 C12.2097,19.5786167 11.9220333,20.8052833 11.5223667,21.99195 C11.3917,22.3801167 10.9707,22.78645 10.5835333,22.9491167 C9.62503333,23.3521167 8.76936667,22.51695 8.97686667,21.4682833 C9.0087,21.3082833 8.98136667,21.1366167 8.98136667,20.9671167 C8.0202,20.5212833 7.15403333,19.0781167 7.33053333,18.03395 C7.38453333,17.7146167 7.69653333,17.3491167 7.99103333,17.18195 C8.38836667,16.95645 8.89453333,17.1652833 9.0972,17.61195 C9.32103333,18.1051167 9.4427,18.64745 9.5797,19.1757833 C9.6557,19.46895 9.67236667,19.7772833 9.7722,20.09995 C10.1783667,19.24395 10.5332,18.3717833 10.6990333,17.4222833 C10.8218667,16.7177833 11.0353667,16.0277833 11.1357,15.32095 C11.2517,14.5037833 11.3232,13.67645 11.3497,12.8516167 C11.3828667,11.8251167 11.3770333,10.7956167 11.3333667,9.76961667 C11.3148667,9.33595 11.2040333,8.89061667 11.0515333,8.48161667 C10.7777,7.74645 10.4337,7.03761667 10.1382,6.31011667 C10.0977,6.21045 10.1468667,6.05911667 10.1883667,5.94395 C10.4208667,5.29878333 10.6237,4.63878333 10.9125333,4.01928333 C11.3398667,3.10311667 11.7510333,2.92478333 12.7688667,3.08428333 C12.8782,3.10145 12.9950333,3.14361667 13.0975333,3.12195 C14.3152,2.86545 15.5628667,2.94295 16.7968667,2.74278333 C18.1460333,2.52395 19.5583667,2.65895 20.9412,2.70295 C21.4485333,2.71895 21.9500333,2.91595 22.4542,3.03061667 C22.5082,3.04295 22.5800333,3.03795 22.6130333,3.07128333 C23.2280333,3.69261667 24.0833667,4.07695 24.4707,4.92095 C24.7055333,5.43228333 24.6900333,5.96011667 24.3977,6.43811667 C24.0288667,7.04061667 23.8983667,7.66461667 23.8962,8.37778333 C23.8928667,9.45411667 23.7167,10.52895 23.6747,11.6067833 C23.6392,12.5186167 23.7122,13.43395 23.6950333,14.3471167 C23.6830333,14.9736167 23.5937,15.5982833 23.5503667,16.22445 C23.5375333,16.4102833 23.5193667,16.6142833 23.5788667,16.78345 C23.9885333,17.9492833 24.4700333,19.08795 24.3110333,20.3821167 C24.2720333,20.69945 24.5448667,21.04345 24.5982,21.3871167 C24.6477,21.7067833 24.6483667,22.0541167 24.5768667,22.3677833 C24.4510333,22.9192833 24.2810333,23.4732833 23.5143667,23.4091167 C23.3978667,23.39945 23.2712,23.51045 23.2035333,23.54095" id="Fill-13" fill="#EF0C0E"></path>
                <path d="M66.17465,11.1674 L69.2489833,11.1674 C69.2489833,13.2307333 69.24865,15.2489 69.24915,17.2672333 C69.24965,18.9875667 69.2578167,20.7080667 69.24965,22.4282333 C69.2458167,23.2342333 68.9793167,23.3752333 68.1573167,23.2284 C67.53865,23.1177333 66.89515,23.1459 66.2169833,23.1097333 C65.0299833,21.0550667 63.8304833,18.9784 62.6308167,16.9019 C62.59215,16.9080667 62.5533167,16.9142333 62.5148167,16.9205667 L62.5148167,23.1060667 L59.5058167,23.1060667 L59.5058167,11.1834 L62.49115,11.1834 C63.6783167,13.2425667 64.8868167,15.3382333 66.17465,17.5715667 L66.17465,11.1674 Z" id="Fill-14" fill="#080808"></path>
                <path d="M41.5896833,12.54215 C41.0701833,11.48715 41.4295167,10.8119833 42.5730167,10.69715 C42.9020167,10.66415 43.23985,10.6769833 43.56985,10.7084833 C44.41635,10.7893167 45.2600167,10.8999833 46.10635,10.98515 C47.22685,11.0978167 48.0770167,11.7623167 48.9516833,12.3714833 C49.1506833,12.51015 49.27135,12.76365 49.47335,12.8948167 C50.32635,13.4494833 50.5840167,14.3824833 50.9680167,15.22465 C51.3006833,15.9544833 51.2806833,16.76015 51.2915167,17.5468167 C51.2945167,17.76365 51.2390167,17.9863167 51.18035,18.19815 C51.0590167,18.63765 50.8125167,19.02615 50.82385,19.5254833 C50.8305167,19.8144833 50.62735,20.1669833 50.4145167,20.3928167 C49.1301833,21.75415 47.8390167,23.1138167 45.97035,23.7014833 C45.47635,23.8568167 45.0156833,24.1203167 44.5200167,24.2674833 C44.18635,24.3663167 43.8160167,24.39015 43.4655167,24.3744833 C42.5940167,24.3353167 41.96085,23.92065 41.6006833,23.1024833 C41.4340167,22.7238167 41.1941833,22.3759833 41.0411833,21.99265 C40.9070167,21.6563167 40.8610167,21.28815 41.17435,20.9969833 C41.4760167,20.7163167 41.7966833,20.8509833 42.1041833,20.98615 C42.25285,21.05165 42.3951833,21.1413167 42.5230167,21.2419833 C42.9706833,21.59465 43.4950167,21.6849833 44.0160167,21.5594833 C44.68385,21.3983167 45.45335,21.45615 45.9231833,20.7678167 C46.01035,20.6399833 46.2701833,20.6403167 46.4360167,20.5543167 C47.97835,19.7549833 49.0050167,18.5799833 49.1256833,16.7734833 C49.1881833,15.8354833 48.6996833,15.13415 48.0581833,14.5283167 C47.93935,14.4163167 47.7130167,14.3678167 47.5396833,14.3748167 C47.2096833,14.38815 46.87885,14.4474833 46.55435,14.51565 C46.1940167,14.5913167 45.9571833,14.4893167 45.85835,14.12215 C45.8510167,14.0954833 45.84635,14.0679833 45.8376833,14.04165 C45.6451833,13.44715 45.5715167,12.7609833 44.6811833,12.78815 C44.04085,12.80765 43.4825167,12.8683167 42.9311833,13.3314833 C41.3046833,14.69765 39.62985,16.0104833 37.9231833,17.27565 C36.9790167,17.97565 35.9670167,18.60365 34.9230167,19.1428167 C34.0471833,19.5953167 33.0956833,19.92265 32.1476833,20.20465 C31.69735,20.3384833 31.1401833,20.3519833 30.69885,20.2103167 C30.2650167,20.0709833 29.9291833,19.64165 29.9735167,19.1023167 C30.0196833,18.5378167 30.4520167,18.2608167 30.89885,18.0273167 C31.04185,17.95265 31.2211833,17.94915 31.3820167,17.9064833 C32.3925167,17.6378167 33.4290167,17.43815 34.4041833,17.0744833 C35.1711833,16.78865 35.8761833,16.3218167 36.5845167,15.8954833 C37.72035,15.2119833 38.8481833,14.5134833 39.95585,13.7854833 C40.5275167,13.4099833 41.04885,12.9574833 41.5896833,12.54215" id="Fill-15" fill="#EF0C0E"></path>
                <polygon id="Fill-16" fill="#080808" points="100.291833 23.1043333 91.7568333 23.1043333 91.7568333 11.1641667 100.134667 11.1641667 100.134667 13.703 95.004 13.703 95.004 15.5586667 99.7743333 15.5586667 99.7743333 18.0125 95.0181667 18.0125 95.0181667 20.3231667 100.291833 20.3231667"></polygon>
                <path d="M5.45866667,14.9292833 C5.46483333,14.89745 5.47083333,14.86545 5.47683333,14.83345 C5.615,14.83345 5.75366667,14.84145 5.89116667,14.8321167 C6.7445,14.7746167 7.0955,14.3591167 7.33733333,13.5431167 C7.5915,12.68545 7.31966667,11.98345 6.99216667,11.24495 C6.6235,10.4132833 5.42366667,10.2602833 4.8655,11.0092833 C4.33316667,11.7242833 3.66683333,12.3336167 3.31266667,13.1922833 C3.09166667,13.72795 3.22266667,14.4347833 3.7865,14.60645 C4.32666667,14.7707833 4.9,14.8261167 5.45866667,14.9292833 M0.882666667,13.2887833 C1.40883333,12.71545 1.89083333,12.2016167 2.3555,11.6726167 C2.43216667,11.5852833 2.4335,11.4312833 2.46833333,11.3076167 C2.5185,11.1287833 2.52716667,10.9231167 2.624,10.77495 C3.10216667,10.0421167 2.99066667,9.44361667 2.2685,8.89945 C1.95416667,8.66261667 1.60866667,8.43411667 1.3775,8.12678333 C0.953833333,7.56328333 0.7335,6.97445 1.07083333,6.21428333 C1.441,5.38078333 1.74466667,4.54011667 2.33883333,3.81461667 C2.85116667,3.18911667 3.2415,2.46378333 3.68766667,1.78361667 C3.91416667,1.43828333 4.1965,1.24861667 4.65033333,1.29178333 C5.17266667,1.34145 5.7085,1.26261667 6.22766667,1.32628333 C6.52816667,1.36311667 6.83916667,1.52745 7.0885,1.71161667 C7.42233333,1.95811667 7.5975,2.36311667 7.42566667,2.74511667 C7.24816667,3.13945 6.93683333,3.46728333 6.42633333,3.49228333 C6.12966667,3.50678333 5.831,3.55428333 5.54183333,3.62311667 C5.043,3.74178333 4.64883333,3.96811667 4.4175,4.49145 C4.10766667,5.19245 3.6465,5.82845 3.356,6.53578333 C3.04966667,7.28178333 3.194,7.55395 3.89466667,8.06878333 C4.51,8.52095 4.85466667,8.47445 5.4985,8.13595 C5.99583333,7.87461667 6.279,7.46878333 6.5455,7.03895 C6.95866667,6.37245 6.93633333,6.35861667 6.43016667,5.71045 C6.17966667,5.38978333 6.24066667,5.10711667 6.60533333,4.89811667 C7.34566667,4.47378333 8.5285,4.64061667 9.15083333,5.25728333 C9.90833333,6.00795 9.65116667,7.49745 8.68866667,7.93411667 C7.55916667,8.44661667 7.37133333,9.38261667 8.2265,10.28645 C8.75266667,10.84245 9.15033333,11.45395 9.20666667,12.24445 C9.2185,12.4086167 9.25533333,12.5767833 9.3125,12.7312833 C9.7505,13.9197833 9.38416667,14.8036167 8.32166667,15.4482833 C8.088,15.5901167 7.87,15.7737833 7.68366667,15.9742833 C6.658,17.0786167 5.39983333,17.1836167 4.028,16.8697833 C3.60783333,16.7736167 3.16533333,16.76345 2.75416667,16.6421167 C1.842,16.3731167 1.17633333,15.44995 1.16533333,14.5122833 C1.1555,13.68445 1.1555,13.68445 0.882666667,13.2887833" id="Fill-17" fill="#EF0C0E"></path>
                <path d="M121.017083,16.3121 C120.08125,16.3817667 119.202083,16.4472667 118.278583,16.5161 C118.208083,16.3266 118.160417,16.1479333 118.078083,15.9871 C117.76975,15.3856 116.785417,15.0584333 116.21075,15.4046 C116.02775,15.5149333 115.858917,15.7792667 115.840083,15.9872667 C115.826417,16.1357667 116.04325,16.3919333 116.21125,16.4539333 C116.676917,16.6256 117.17075,16.7206 117.65325,16.8464333 C118.616417,17.0974333 119.57275,17.3481 120.381583,17.9871 C121.83625,19.1362667 121.48225,21.1516 120.52125,22.1227667 C119.91425,22.7362667 119.178583,23.0532667 118.335083,23.2177667 C117.07525,23.4637667 115.844417,23.3746 114.66025,22.9344333 C113.347583,22.4466 112.850583,21.3474333 112.622083,19.9549333 C113.612083,19.8924333 114.513583,19.8356 115.434583,19.7776 C115.512583,19.9811 115.588583,20.1269333 115.624417,20.2821 C115.87175,21.3531 117.08975,21.5557667 117.839917,21.2022667 C118.09425,21.0824333 118.349917,20.7337667 118.38825,20.4594333 C118.418917,20.2386 118.177417,19.8912667 117.959417,19.7452667 C117.647417,19.5362667 117.249083,19.4531 116.883583,19.3274333 C116.075583,19.0494333 115.224083,18.8609333 114.464583,18.4857667 C113.24975,17.8854333 112.654917,16.6852667 113.06225,15.4352667 C113.298417,14.7106 113.93225,14.1309333 114.717917,13.8184333 C115.838583,13.3724333 117.001917,13.3329333 118.15875,13.5196 C118.76625,13.6176 119.394083,13.8442667 119.91375,14.1706 C120.650583,14.6331 120.947917,15.4094333 121.017083,16.3121" id="Fill-18" fill="#080808"></path>
                <polygon id="Fill-19" fill="#080808" points="72.0144833 13.6364 79.8368167 13.6364 79.8368167 15.6795667 75.0574833 15.6795667 75.0574833 17.1207333 79.48665 17.1207333 79.48665 19.1267333 75.0593167 19.1267333 75.0593167 20.9130667 79.96865 20.9130667 79.96865 23.1134 72.0144833 23.1134"></polygon>
                <path d="M107.063967,16.2395 C106.7178,17.3676667 106.416467,18.35 106.097133,19.391 L108.0218,19.391 C107.703967,18.3448333 107.4093,17.3758333 107.063967,16.2395 M105.448133,13.6368333 L108.736133,13.6368333 C109.900467,16.7281667 111.0838,19.8706667 112.2968,23.0916667 L109.167633,23.0916667 C109.0138,22.6353333 108.855967,22.1671667 108.6843,21.6583333 L105.4313,21.6583333 C105.2738,22.1323333 105.118967,22.5976667 104.948633,23.1101667 L101.8913,23.1101667 C103.073133,19.9623333 104.2428,16.847 105.448133,13.6368333" id="Fill-20" fill="#080808"></path>
                <polygon id="Fill-21" fill="#080808" points="83.8862333 15.9821833 80.8872333 15.9821833 80.8872333 13.6500167 89.8315667 13.6500167 89.8315667 15.9805167 86.8837333 15.9805167 86.8837333 23.10485 83.8862333 23.10485"></polygon>
                <path d="M41.1688667,20.6337833 C40.9405333,20.6491167 40.6398667,20.6746167 40.3387,20.6882833 C39.9692,20.70495 39.6443667,20.7851167 39.4623667,21.1592833 C39.4167,21.2532833 39.3228667,21.3506167 39.2278667,21.38945 C38.0367,21.87845 37.2213667,23.0041167 35.9357,23.3307833 C35.9108667,23.3371167 35.8900333,23.3732833 35.8677,23.37295 C35.0333667,23.3611167 34.4663667,23.9757833 33.7592,24.2547833 C33.3883667,24.4011167 32.9450333,24.3951167 32.5335333,24.4006167 C31.8558667,24.4092833 31.3485333,24.0112833 31.1910333,23.4056167 C31.0775333,22.96945 31.3455333,22.4072833 31.8595333,22.0906167 C32.0667,21.9631167 32.3125333,21.85145 32.5502,21.82795 C33.8960333,21.6947833 35.0943667,21.0987833 36.3150333,20.6047833 C37.0437,20.30995 37.6943667,19.8151167 38.3648667,19.38645 C39.3028667,18.7871167 40.2433667,18.1896167 41.1517,17.5472833 C42.0967,16.87895 42.9980333,16.1492833 43.9330333,15.4662833 C44.1950333,15.2751167 44.4938667,15.10345 44.8022,15.0146167 C45.1533667,14.91345 45.4592,15.0947833 45.6365333,15.41245 C45.7855333,15.6792833 45.7458667,15.92745 45.4970333,16.1507833 C44.8047,16.77245 44.1352,17.41945 43.4408667,18.0386167 C42.8865333,18.5331167 42.2750333,18.9681167 41.7560333,19.4956167 C41.5035333,19.7521167 41.4045333,20.15945 41.1688667,20.6337833" id="Fill-22" fill="#EF0C0E"></path>
                <path d="M37.7272167,6.37875 C36.9632167,6.37125 36.54305,5.96875 36.5293833,5.31658333 C36.5173833,4.74208333 37.02355,4.26225 37.6758833,4.34158333 C38.40405,4.43008333 39.1017167,4.34341667 39.81405,4.22825 C40.24555,4.15858333 40.6962167,4.20158333 41.1383833,4.20508333 C41.7953833,4.21008333 42.4532167,4.25091667 43.1092167,4.22741667 C43.6187167,4.20891667 44.03355,4.31791667 44.31405,4.77258333 C44.5177167,5.10241667 44.5827167,5.43425 44.3667167,5.78541667 C44.15705,6.12641667 43.8228833,6.32508333 43.4608833,6.22941667 C42.65505,6.01658333 41.8778833,6.09175 41.0903833,6.28175 C40.9608833,6.31308333 40.8107167,6.29975 40.6782167,6.27041667 C39.85105,6.08725 39.03305,6.12625 38.2148833,6.32991667 C38.0292167,6.37608333 37.8307167,6.36925 37.7272167,6.37875" id="Fill-23" fill="#EF0C0E"></path>
                <path d="M4.96338333,23.4786833 C3.88071667,22.00685 4.05605,20.39135 4.35838333,18.7761833 C4.43455,18.36935 4.80155,18.1530167 5.23488333,18.1500167 C5.64771667,18.1471833 6.11105,18.45185 6.15438333,18.8456833 C6.28988333,20.0775167 6.48755,21.3186833 6.10255,22.5426833 C5.94255,23.0510167 5.61871667,23.4035167 4.96338333,23.4786833" id="Fill-24" fill="#EF0C0E"></path>
                <path d="M19.4117833,20.5123667 C18.80945,20.5662 18.2081167,20.6460333 17.6047833,20.6662 C17.1131167,20.6825333 16.75845,20.4040333 16.6702833,20.0222 C16.5861167,19.6578667 16.8602833,19.1007 17.2556167,18.9417 C17.5837833,18.8097 17.9361167,18.7292 18.2841167,18.6575333 C18.6887833,18.5742 19.0987833,18.4903667 19.5092833,18.4725333 C19.8292833,18.4587 20.17445,18.4895333 20.4711167,18.6002 C20.96745,18.7852 21.1686167,19.2220333 21.0927833,19.7330333 C21.01995,20.2245333 20.68045,20.4368667 20.24495,20.5148667 C19.9746167,20.5632 19.6926167,20.5462 19.4156167,20.5585333 C19.41445,20.5432 19.4131167,20.5277 19.4117833,20.5123667" id="Fill-25" fill="#EF0C0E"></path>
                <path d="M30.4729,35.95605 C30.7814,34.87105 31.0897333,33.78605 31.4122333,32.65155 L33.4322333,32.65155 C33.7440667,33.7403833 34.0617333,34.8488833 34.4337333,36.14705 C34.6979,34.8498833 34.9230667,33.7442167 35.1519,32.6203833 L37.1897333,32.6203833 C36.6954,34.86055 36.2100667,37.0598833 35.7085667,39.3327167 L33.5660667,39.3327167 C33.2114,38.0792167 32.8524,36.8107167 32.4935667,35.54205 C32.4529,35.5382167 32.4125667,35.5343833 32.3720667,35.5303833 C32.0079,36.8022167 31.6437333,38.0742167 31.2755667,39.3598833 L29.1729,39.3598833 C28.6750667,37.14455 28.1747333,34.9178833 27.6617333,32.6348833 L29.7174,32.6348833 C29.9355667,33.7517167 30.1512333,34.8553833 30.3669,35.9593833 C30.4022333,35.9582167 30.4375667,35.9572167 30.4729,35.95605" id="Fill-26" fill="#080808"></path>
                <path d="M17.649,32.61035 L19.6251667,32.61035 C19.9336667,33.67735 20.2396667,34.7361833 20.5456667,35.79485 C20.5858333,35.7985167 20.626,35.8021833 20.6661667,35.8060167 C20.9021667,34.7535167 21.1383333,33.70135 21.3805,32.6216833 L23.3845,32.6216833 C22.894,34.8605167 22.4111667,37.0645167 21.9155,39.3275167 L19.7713333,39.3275167 C19.4101667,38.0491833 19.0521667,36.7826833 18.6943333,35.51635 C18.6541667,35.51735 18.6141667,35.5185167 18.574,35.5195167 C18.2126667,36.79785 17.8513333,38.0761833 17.4881667,39.36135 L15.373,39.36135 C14.8783333,37.1451833 14.3816667,34.9196833 13.8721667,32.63685 L15.9318333,32.63685 C16.1355,33.6940167 16.3343333,34.7261833 16.5331667,35.7585167 C16.58,35.7710167 16.6268333,35.7836833 16.6736667,35.7961833 C16.991,34.7596833 17.3083333,33.7230167 17.649,32.61035" id="Fill-27" fill="#080808"></path>
                <path d="M122.151367,39.083 L122.151367,32.7135 C122.366367,32.698 122.576533,32.6835 122.7867,32.6678333 C123.483033,32.6165 124.173367,32.7845 124.884867,32.5418333 C125.5032,32.331 126.0752,32.6558333 126.433367,33.0798333 C126.928367,32.8721667 127.352533,32.5805 127.804367,32.5283333 C128.791033,32.4143333 129.622367,33.0866667 129.818367,34.1091667 C129.916533,34.621 129.902033,35.1575 129.9077,35.6831667 C129.9197,36.7893333 129.911533,37.8956667 129.911533,39.0606667 L128.0512,39.0606667 C127.857367,37.5016667 128.238033,35.915 127.8172,34.3851667 C127.1777,34.3453333 126.9827,34.6281667 126.984533,35.1328333 C126.9882,36.2156667 126.9782,37.2988333 126.9742,38.3816667 C126.973533,38.5971667 126.9742,38.8126667 126.9742,39.0778333 L125.057367,39.0778333 L125.057367,38.1126667 C125.0572,37.224 125.0592,36.3353333 125.055033,35.4466667 C125.054033,35.2251667 125.086533,34.9801667 125.0037,34.7893333 C124.930533,34.6208333 124.722033,34.412 124.5657,34.4056667 C124.402533,34.399 124.151367,34.5785 124.081367,34.7388333 C123.9877,34.9536667 124.019033,35.2281667 124.018033,35.4771667 C124.013367,36.6653333 124.016033,37.8536667 124.016033,39.083 L122.151367,39.083 Z" id="Fill-28" fill="#080808"></path>
                <path d="M114.502117,36.1572333 C114.484783,35.7929 114.497117,35.5679 114.459617,35.3514 C114.326783,34.5839 113.82245,34.1480667 113.104783,34.1585667 C112.395617,34.1689 111.906783,34.6269 111.832117,35.4155667 C111.790617,35.8539 111.789617,36.3044 111.840117,36.7412333 C111.921117,37.4414 112.379617,37.8479 113.041783,37.8840667 C113.750117,37.9229 114.176617,37.6225667 114.37095,36.9119 C114.450117,36.6225667 114.475283,36.3182333 114.502117,36.1572333 M113.065617,39.5022333 C111.818117,39.5852333 110.65945,39.1380667 110.041117,37.9024 C109.390617,36.6024 109.375617,35.2095667 110.15945,33.9225667 C110.938783,32.6429 112.220617,32.3889 113.57195,32.5074 C116.13245,32.7319 116.944617,34.5959 116.597283,36.8242333 C116.312783,38.6509 115.16745,39.4939 113.065617,39.5022333" id="Fill-29" fill="#080808"></path>
                <path d="M55.3573333,39.7968667 L52.7391667,39.7968667 L52.7391667,33.4447 C51.8345,33.9003667 50.9896667,34.3263667 50.0435,34.8032 L50.0435,32.4205333 C51.3903333,31.9818667 52.568,31.2440333 53.174,29.8255333 L55.3573333,29.8255333 L55.3573333,39.7968667 Z" id="Fill-30" fill="#080808"></path>
                <path d="M104.017417,34.65365 C103.360083,34.79765 102.771583,34.92665 102.247583,35.0413167 C101.96875,34.7464833 101.784417,34.4528167 101.519583,34.29015 C100.807083,33.8523167 99.8815833,34.25315 99.7160833,35.1019833 C99.6120833,35.6359833 99.6225833,36.2084833 99.6795833,36.7533167 C99.75425,37.4663167 100.111083,37.79515 100.710083,37.8583167 C101.371917,37.9279833 101.771917,37.67615 102.056083,37.0064833 C102.099083,36.9053167 102.13125,36.7994833 102.201917,36.6013167 C102.798583,36.76515 103.39725,36.9294833 103.988583,37.0919833 C103.857917,38.4043167 102.867583,39.4074833 101.613583,39.4829833 C101.007583,39.5193167 100.382083,39.5384833 99.7919167,39.4258167 C99.3649167,39.3443167 98.92475,39.0994833 98.5889167,38.8123167 C97.19975,37.6248167 97.0215833,34.9863167 98.1954167,33.5814833 C98.96225,32.6638167 100.00425,32.4593167 101.116917,32.49315 C102.52825,32.53615 103.553583,33.14765 104.017417,34.65365" id="Fill-31" fill="#080808"></path>
                <polygon id="Fill-32" fill="#080808" points="89.057 36.8928333 91.0625 36.8928333 91.0625 35.0735 89.057 35.0735"></polygon>
                <polygon id="Fill-33" fill="#080808" points="42.7031667 36.91 44.6643333 36.91 44.6643333 35.0386667 42.7031667 35.0386667"></polygon>
                <path d="M64.7875167,36.6222333 C64.88635,36.2129 64.91285,35.8977333 65.03885,35.6292333 C65.22185,35.2390667 65.5181833,34.9779 66.0096833,34.9820667 C66.4785167,34.9860667 66.8156833,35.1599 67.0186833,35.5722333 C67.32835,36.2014 67.3470167,36.8630667 67.1070167,37.5072333 C66.96835,37.8792333 66.68185,38.1565667 66.23885,38.1902333 C65.78985,38.2245667 65.38835,38.1077333 65.1785167,37.6930667 C64.99685,37.3334 64.8975167,36.9320667 64.7875167,36.6222333" id="Fill-34" fill="#FCFDFD"></path>
                <path d="M15.7858833,9.32055 C16.0253833,9.10021667 16.48505,8.84788333 16.4578833,8.66955 C16.38355,8.18121667 16.4447167,7.72671667 16.46605,7.25105 C16.47855,6.96955 16.24605,6.63355 16.03955,6.39455 C15.6163833,5.90405 14.7913833,5.98155 14.4738833,6.49888333 C14.1802167,6.97705 14.3308833,7.92471667 14.7542167,8.32121667 C15.08855,8.63455 15.4128833,8.95838333 15.7858833,9.32055 M19.72855,9.74821667 C19.6303833,9.10255 19.7592167,8.60188333 20.1388833,8.19188333 C20.5433833,7.75488333 20.5688833,7.19471667 20.6328833,6.66855 C20.7013833,6.10505 20.2773833,5.46138333 19.9008833,5.38055 C19.48705,5.29171667 18.7828833,5.84038333 18.63655,6.39288333 C18.4457167,7.11238333 18.2542167,7.82171667 18.31005,8.59371667 C18.3702167,9.42655 17.8793833,9.90771667 17.0407167,9.98438333 C16.07855,10.0722167 15.11655,10.1898833 14.1523833,10.2178833 C13.3843833,10.2403833 12.7402167,9.61421667 12.6433833,8.85538333 C12.5767167,8.33288333 12.52905,7.80738333 12.4907167,7.28205 C12.3998833,6.03088333 13.1148833,5.16455 14.36005,4.98888333 C14.7147167,4.93871667 15.0927167,4.92421667 15.4128833,4.78505 C16.21305,4.43755 17.01905,4.43921667 17.8573833,4.56371667 C18.2332167,4.61955 18.6328833,4.61905 19.0077167,4.55788333 C20.5538833,4.30571667 22.1242167,5.57321667 22.1098833,7.12088333 C22.10305,7.86821667 22.0502167,8.61738333 21.9702167,9.36055 C21.89805,10.02955 21.5748833,10.17755 20.8987167,9.97455 C20.5333833,9.86488333 20.1468833,9.82655 19.72855,9.74821667" id="Fill-35" fill="#FCFDFD"></path>
                <path d="M14.6825333,11.9047833 C14.8432,11.94045 15.0222,11.99845 15.2050333,12.01745 C16.0905333,12.1097833 16.4750333,12.7476167 16.1340333,13.55945 C15.9922,13.89695 15.7260333,13.9601167 15.3985333,13.95795 C15.0137,13.95545 14.6245333,13.9546167 14.2447,14.0066167 C13.8700333,14.0581167 13.5047,14.1766167 13.0310333,14.2907833 C13.1593667,13.74695 13.1603667,13.1471167 13.4392,12.7356167 C13.6968667,12.3551167 14.2523667,12.1761167 14.6825333,11.9047833" id="Fill-36" fill="#FCFDFD"></path>
                <path d="M5.45866667,14.9292833 C4.9,14.8261167 4.32666667,14.7707833 3.7865,14.60645 C3.22266667,14.4347833 3.09166667,13.72795 3.31266667,13.1922833 C3.66683333,12.3336167 4.33316667,11.7242833 4.8655,11.0092833 C5.42366667,10.2602833 6.6235,10.4132833 6.99216667,11.24495 C7.31966667,11.98345 7.5915,12.68545 7.33733333,13.5431167 C7.0955,14.3591167 6.7445,14.7746167 5.89116667,14.8321167 C5.75366667,14.84145 5.615,14.83345 5.47683333,14.83345 C5.47083333,14.86545 5.46483333,14.89745 5.45866667,14.9292833" id="Fill-37" fill="#FCFDFD"></path>
                <path d="M107.063967,16.2395 C107.4093,17.3758333 107.703967,18.3448333 108.0218,19.391 L106.097133,19.391 C106.416467,18.35 106.7178,17.3676667 107.063967,16.2395" id="Fill-38" fill="#FCFDFD"></path>
                <path d="M114.502117,36.1572333 C114.475283,36.3182333 114.450117,36.6225667 114.37095,36.9119 C114.176617,37.6225667 113.750117,37.9229 113.041783,37.8840667 C112.379617,37.8479 111.921117,37.4414 111.840117,36.7412333 C111.789617,36.3044 111.790617,35.8539 111.832117,35.4155667 C111.906783,34.6269 112.395617,34.1689 113.104783,34.1585667 C113.82245,34.1480667 114.326783,34.5839 114.459617,35.3514 C114.497117,35.5679 114.484783,35.7929 114.502117,36.1572333" id="Fill-39" fill="#FCFDFD"></path>
                <path d="M15.7858833,9.32055 C15.4128833,8.95838333 15.08855,8.63455 14.7542167,8.32121667 C14.3308833,7.92471667 14.1802167,6.97705 14.4738833,6.49888333 C14.7913833,5.98155 15.6163833,5.90405 16.03955,6.39455 C16.24605,6.63355 16.47855,6.96955 16.46605,7.25105 C16.4447167,7.72671667 16.38355,8.18121667 16.4578833,8.66955 C16.48505,8.84788333 16.0253833,9.10021667 15.7858833,9.32055" id="Fill-40" fill="#EF0C0E"></path>
            </g>
        </g>
    </g>
</svg>