<?xml version="1.0" encoding="UTF-8"?>
<svg width="232px" height="80px" viewBox="0 0 232 80" version="1.1" xmlns="http://www.w3.org/2000/svg" xmlns:xlink="http://www.w3.org/1999/xlink">
    <!-- Generator: Sketch 44.1 (41455) - http://www.bohemiancoding.com/sketch -->
    <title>58</title>
    <desc>Created with Sketch.</desc>
    <defs></defs>
    <g id="Page-1" stroke="none" stroke-width="1" fill="none" fill-rule="evenodd">
        <g id="58">
            <g id="Group" transform="translate(59.000000, 21.000000)">
                <path d="M3.5447,22.2875 C1.9797,22.2875 0.7107,21.0185 0.7107,19.4535 L0.7107,8.1495 C0.7107,6.0005 2.4587,4.2515 4.6077,4.2515 L15.5917,4.2515 C17.1577,4.2515 18.4267,5.5205 18.4267,7.0865 C18.4267,8.6525 17.1577,9.9215 15.5917,9.9215 L6.3787,9.9215 L6.3787,19.4535 C6.3787,21.0185 5.1097,22.2875 3.5447,22.2875 Z" id="Fill-1" fill="#FF2828"></path>
                <path d="M30.4734,19.8422 C26.9564,19.8422 24.0954,22.7032 24.0954,26.2202 C24.0954,29.7372 26.9564,32.5982 30.4734,32.5982 C33.9904,32.5982 36.8514,29.7372 36.8514,26.2202 C36.8514,22.7032 33.9904,19.8422 30.4734,19.8422 M30.4734,38.2682 C23.8304,38.2682 18.4264,32.8632 18.4264,26.2202 C18.4264,19.5772 23.8304,14.1732 30.4734,14.1732 C37.1164,14.1732 42.5204,19.5772 42.5204,26.2202 C42.5204,32.8632 37.1164,38.2682 30.4734,38.2682" id="Fill-3" fill="#FF8C13"></path>
                <path d="M30.4734,5.6693 C28.1294,5.6693 26.2214,7.5763 26.2214,9.9213 C26.2214,12.2653 28.1294,14.1733 30.4734,14.1733 C32.8184,14.1733 34.7254,12.2653 34.7254,9.9213 C34.7254,7.5763 32.8184,5.6693 30.4734,5.6693 M30.4734,19.8423 C25.0034,19.8423 20.5524,15.3913 20.5524,9.9213 C20.5524,4.4503 25.0034,0.0003 30.4734,0.0003 C35.9444,0.0003 40.3944,4.4503 40.3944,9.9213 C40.3944,15.3913 35.9444,19.8423 30.4734,19.8423" id="Fill-6" fill="#50C413"></path>
                <path d="M30.4734,14.1732 C27.7344,14.1732 25.2074,15.0932 23.1814,16.6392 C24.9954,18.6072 27.5924,19.8422 30.4734,19.8422 C33.3544,19.8422 35.9524,18.6072 37.7654,16.6392 C35.7404,15.0932 33.2124,14.1732 30.4734,14.1732" id="Fill-8" fill="#28A032"></path>
                <path d="M9.2142,35.433 C5.7582,35.433 2.5072,33.745 0.5172,30.916 C-0.3838,29.636 -0.0768,27.868 1.2032,26.966 C2.4842,26.066 4.2522,26.372 5.1532,27.653 C6.0832,28.975 7.6012,29.764 9.2142,29.764 C11.9492,29.764 14.1742,27.538 14.1742,24.803 C14.1742,22.068 11.9492,19.842 9.2142,19.842 C7.8342,19.842 6.5532,20.395 5.6062,21.399 C4.5312,22.537 2.7372,22.589 1.5982,21.515 C0.4602,20.44 0.4082,18.646 1.4832,17.507 C3.4832,15.389 6.3012,14.173 9.2142,14.173 C15.0752,14.173 19.8432,18.942 19.8432,24.803 C19.8432,30.664 15.0752,35.433 9.2142,35.433" id="Fill-10" fill="#0091D7"></path>
                <path d="M1.4827,17.5072 C0.9577,18.0632 0.7037,18.7762 0.7117,19.4842 C0.7117,19.5462 0.7157,19.6082 0.7207,19.6692 C0.7237,19.7022 0.7247,19.7352 0.7287,19.7682 C0.7347,19.8262 0.7447,19.8832 0.7547,19.9402 C0.7607,19.9752 0.7657,20.0112 0.7737,20.0462 C0.7847,20.1012 0.7997,20.1542 0.8147,20.2082 C0.8247,20.2432 0.8327,20.2782 0.8437,20.3132 C0.8607,20.3682 0.8827,20.4222 0.9037,20.4762 C0.9157,20.5072 0.9257,20.5392 0.9397,20.5702 C0.9637,20.6262 0.9917,20.6812 1.0197,20.7362 C1.0327,20.7622 1.0447,20.7892 1.0587,20.8162 C1.0887,20.8692 1.1217,20.9212 1.1547,20.9732 C1.1707,20.9982 1.1867,21.0262 1.2037,21.0512 C1.2357,21.0982 1.2707,21.1422 1.3047,21.1872 C1.3277,21.2162 1.3497,21.2452 1.3737,21.2742 C1.4057,21.3132 1.4407,21.3492 1.4757,21.3862 C1.5057,21.4182 1.5347,21.4502 1.5667,21.4822 C1.6017,21.5152 1.6377,21.5472 1.6727,21.5782 C1.7077,21.6092 1.7427,21.6392 1.7777,21.6682 C1.8157,21.6982 1.8557,21.7272 1.8957,21.7552 C1.9307,21.7802 1.9667,21.8062 2.0027,21.8292 C2.0447,21.8572 2.0877,21.8822 2.1307,21.9072 C2.1677,21.9292 2.2047,21.9492 2.2417,21.9692 C2.2857,21.9912 2.3307,22.0132 2.3767,22.0332 C2.4157,22.0512 2.4547,22.0692 2.4947,22.0842 C2.5397,22.1032 2.5857,22.1182 2.6307,22.1342 C2.6727,22.1492 2.7147,22.1622 2.7577,22.1752 C2.8037,22.1882 2.8507,22.1992 2.8977,22.2102 C2.9407,22.2212 2.9837,22.2302 3.0267,22.2382 C3.0757,22.2472 3.1257,22.2542 3.1747,22.2612 C3.2167,22.2662 3.2587,22.2722 3.3017,22.2762 C3.3547,22.2792 3.4077,22.2812 3.4617,22.2832 C3.5017,22.2842 3.5427,22.2862 3.5827,22.2852 C3.6357,22.2852 3.6887,22.2812 3.7417,22.2782 C3.7827,22.2752 3.8247,22.2732 3.8667,22.2682 C3.9137,22.2632 3.9607,22.2542 4.0067,22.2462 C4.0527,22.2392 4.0987,22.2332 4.1437,22.2232 C4.1857,22.2142 4.2267,22.2012 4.2677,22.1912 C4.3157,22.1782 4.3637,22.1662 4.4107,22.1522 C4.4517,22.1392 4.4897,22.1232 4.5297,22.1092 C4.5757,22.0912 4.6227,22.0752 4.6677,22.0562 C4.7087,22.0372 4.7487,22.0172 4.7887,21.9972 C4.8307,21.9772 4.8727,21.9572 4.9137,21.9352 C4.9537,21.9122 4.9917,21.8882 5.0297,21.8642 C5.0697,21.8392 5.1097,21.8162 5.1497,21.7882 C5.1837,21.7652 5.2167,21.7382 5.2507,21.7132 C5.2917,21.6822 5.3327,21.6522 5.3727,21.6172 C5.4017,21.5932 5.4287,21.5672 5.4567,21.5412 C5.4987,21.5032 5.5407,21.4642 5.5807,21.4222 C6.0747,20.9122 6.3787,20.2182 6.3787,19.4532 L6.3787,14.5642 C4.5257,15.0792 2.8207,16.0902 1.4827,17.5072" id="Fill-12" fill="#006EC8"></path>
                <path d="M18.8333,29.3207 C19.4803,27.9487 19.8433,26.4187 19.8433,24.8027 C19.8433,23.6867 19.6693,22.6107 19.3493,21.5987 C18.7553,23.0227 18.4263,24.5837 18.4263,26.2197 C18.4263,27.2927 18.5693,28.3317 18.8333,29.3207" id="Fill-14" fill="#006EC8"></path>
                <path d="M49.9612,35.433 C48.9822,35.433 48.1902,34.64 48.1902,33.662 L48.1902,7.625 C48.1902,5.82 49.6952,4.351 51.5452,4.351 L74.5932,4.351 C76.4402,4.351 77.9422,5.82 77.9422,7.625 L77.9422,30.114 C77.9422,33.009 75.5702,35.365 72.6562,35.365 L70.2262,35.365 C69.2472,35.365 68.4532,34.572 68.4532,33.593 C68.4532,32.615 69.2472,31.822 70.2262,31.822 L72.6562,31.822 C73.6172,31.822 74.3982,31.055 74.3982,30.114 L74.3982,7.895 L51.7332,7.895 L51.7332,33.662 C51.7332,34.64 50.9402,35.433 49.9612,35.433" id="Fill-16" fill="#505050"></path>
                <path d="M70.4993,15.2748 L55.6333,15.2748 C54.6543,15.2748 53.8613,14.4818 53.8613,13.5038 C53.8613,12.5248 54.6543,11.7318 55.6333,11.7318 L70.4993,11.7318 C71.4783,11.7318 72.2703,12.5248 72.2703,13.5038 C72.2703,14.4818 71.4783,15.2748 70.4993,15.2748" id="Fill-18" fill="#505050"></path>
                <path d="M89.5628,15.2748 L82.5928,15.2748 C81.6148,15.2748 80.8218,14.4818 80.8218,13.5038 C80.8218,12.5248 81.6148,11.7318 82.5928,11.7318 L89.5628,11.7318 C90.5418,11.7318 91.3348,12.5248 91.3348,13.5038 C91.3348,14.4818 90.5418,15.2748 89.5628,15.2748" id="Fill-20" fill="#505050"></path>
                <path d="M82.5921,29.7182 C81.8011,29.7182 81.0801,29.1852 80.8761,28.3832 C80.6351,27.4352 81.2081,26.4712 82.1561,26.2302 C83.3481,25.9262 86.8081,24.9232 88.4871,23.9362 C89.3301,23.4402 90.4161,23.7212 90.9121,24.5652 C91.4081,25.4082 91.1261,26.4942 90.2821,26.9902 C87.8241,28.4362 83.2241,29.6142 83.0291,29.6632 C82.8831,29.7002 82.7371,29.7182 82.5921,29.7182" id="Fill-22" fill="#505050"></path>
                <path d="M58.43,25.3975 L67.702,25.3975 L67.702,21.0145 L58.43,21.0145 L58.43,25.3975 Z M69.474,28.9415 L56.658,28.9415 C55.679,28.9415 54.886,28.1485 54.886,27.1705 L54.886,19.2435 C54.886,18.2655 55.679,17.4715 56.658,17.4715 L69.474,17.4715 C70.452,17.4715 71.245,18.2655 71.245,19.2435 L71.245,27.1705 C71.245,28.1485 70.452,28.9415 69.474,28.9415 L69.474,28.9415 Z" id="Fill-24" fill="#505050"></path>
                <path d="M86.2151,28.1771 C85.2361,28.1771 84.4431,27.3841 84.4431,26.4061 L84.4431,5.6451 C84.4431,4.6661 85.2361,3.8731 86.2151,3.8731 C87.1941,3.8731 87.9861,4.6661 87.9861,5.6451 L87.9861,26.4061 C87.9861,27.3841 87.1941,28.1771 86.2151,28.1771" id="Fill-26" fill="#505050"></path>
                <path d="M86.5979,35.3783 C85.9459,35.3783 85.3189,35.0173 85.0089,34.3943 C84.5749,33.5173 84.9319,32.4533 85.8089,32.0193 C88.6789,30.5943 90.7109,29.1313 90.7109,23.2423 L90.7109,10.7333 C90.7109,9.3243 91.8429,8.1783 93.2349,8.1783 L108.5049,8.1783 C108.3659,7.7523 108.1899,7.3023 107.9719,6.8773 C107.5269,6.0053 107.8719,4.9383 108.7439,4.4933 C109.6159,4.0483 110.6819,4.3943 111.1269,5.2653 C112.1769,7.3193 112.4879,9.6233 112.4999,9.7193 C112.5669,10.2253 112.4109,10.7353 112.0759,11.1183 C111.7389,11.5023 111.2529,11.7213 110.7439,11.7213 L94.2539,11.7213 L94.2539,23.2423 C94.2539,30.3553 91.6249,33.0883 87.3839,35.1923 C87.1299,35.3183 86.8619,35.3783 86.5979,35.3783" id="Fill-27" fill="#505050"></path>
                <path d="M97.8235,28.8441 C97.1775,28.8441 96.5545,28.4891 96.2425,27.8731 C95.7995,27.0001 96.1475,25.9341 97.0205,25.4911 C97.3805,25.3091 97.7935,24.9751 97.7935,24.0011 L97.7935,18.4181 L92.8305,18.4181 C91.8515,18.4181 91.0585,17.6251 91.0585,16.6461 C91.0585,15.6681 91.8515,14.8751 92.8305,14.8751 L99.5645,14.8751 C100.5435,14.8751 101.3365,15.6681 101.3365,16.6461 L101.3365,24.0011 C101.3365,26.1131 100.3735,27.7641 98.6235,28.6521 C98.3665,28.7821 98.0935,28.8441 97.8235,28.8441" id="Fill-28" fill="#505050"></path>
                <path d="M97.7513,34.8266 C97.0503,34.8266 96.3863,34.4076 96.1073,33.7176 C95.7413,32.8086 96.1813,31.7766 97.0883,31.4116 C103.1703,28.9596 107.2003,24.0376 108.7433,17.1776 C108.9583,16.2226 109.9073,15.6226 110.8603,15.8376 C111.8153,16.0526 112.4153,17.0006 112.2003,17.9556 C110.3913,26.0026 105.6233,31.7916 98.4133,34.6976 C98.1953,34.7856 97.9723,34.8266 97.7513,34.8266" id="Fill-29" fill="#505050"></path>
                <path d="M111.6253,35.3715 C111.2183,35.3715 110.8093,35.2315 110.4753,34.9465 C108.6043,33.3465 105.9513,29.7135 103.9453,21.4905 C102.6903,16.3465 101.9403,10.3875 101.9403,5.5505 C101.9403,4.5715 102.7343,3.7785 103.7133,3.7785 C104.6913,3.7785 105.4843,4.5715 105.4843,5.5505 C105.4843,13.9155 108.0813,28.2385 112.7773,32.2535 C113.5213,32.8895 113.6083,34.0085 112.9733,34.7515 C112.6223,35.1615 112.1253,35.3715 111.6253,35.3715" id="Fill-30" fill="#505050"></path>
            </g>
        </g>
    </g>
</svg>