<?xml version="1.0" encoding="UTF-8" standalone="no"?>
<svg width="232px" height="80px" viewBox="0 0 232 80" version="1.1" xmlns="http://www.w3.org/2000/svg" xmlns:xlink="http://www.w3.org/1999/xlink">
    <!-- Generator: Sketch 46.2 (44496) - http://www.bohemiancoding.com/sketch -->
    <title>Artboard 2</title>
    <desc>Created with Sketch.</desc>
    <defs>
        <polygon id="path-1" points="67.86 26.8269 67.86 0.282 0 0.282 0 26.8269 0 53.3718 67.86 53.3718"></polygon>
    </defs>
    <g id="Page-1" stroke="none" stroke-width="1" fill="none" fill-rule="evenodd">
        <g id="Artboard-2">
            <g id="Page-1" transform="translate(82.000000, 13.000000)">
                <g id="Group-3" transform="translate(0.000000, 0.718300)">
                    <mask id="mask-2" fill="white">
                        <use xlink:href="#path-1"></use>
                    </mask>
                    <g id="Clip-2"></g>
                    <path d="M0,6.4218 L0,0.4218 C0,0.3118 0,0.2818 0.14,0.2818 L67.72,0.2818 C67.85,0.2818 67.86,0.2818 67.86,0.4318 L67.86,53.2218 C67.86,53.3408 67.86,53.3718 67.72,53.3718 L0.16,53.3718 L0.02,53.3718 C0.148,53.3138 0.29,53.2898 0.43,53.3008 C1.449,53.2158 2.455,53.0188 3.43,52.7118 C4.493,52.4048 5.497,51.9218 6.4,51.2818 C6.946,50.8788 7.422,50.3878 7.81,49.8318 C7.97,49.6018 8.01,49.6018 8.18,49.8318 C8.986,50.8428 10.012,51.6568 11.18,52.2118 C12.305,52.7628 13.522,53.1018 14.77,53.2118 C15.07,53.2118 15.38,53.2718 15.68,53.2718 C15.98,53.2718 15.9,53.2718 15.9,53.0618 L15.9,51.7718 C15.9,51.5908 15.9,51.5718 15.71,51.5718 C14.761,51.5368 13.822,51.3688 12.92,51.0718 C12.396,50.9308 11.887,50.7398 11.4,50.5018 C10.75,50.1548 10.181,49.6738 9.73,49.0908 C9.702,49.0578 9.678,49.0208 9.66,48.9818 C9.66,48.9118 9.66,48.8618 9.73,48.8408 C9.81,48.8338 9.89,48.8338 9.97,48.8408 L15.6,48.8408 C15.69,48.8408 15.74,48.8408 15.74,48.7118 L15.74,47.3408 C15.74,47.2618 15.74,47.2218 15.61,47.2218 L9.18,47.2218 C8.82,47.2218 8.8,47.2218 8.84,46.8408 C8.848,46.7018 8.848,46.5618 8.84,46.4218 C8.84,46.3318 8.84,46.2718 8.7,46.2718 L7.12,46.2718 C7,46.2818 7,46.2818 7,46.4218 C6.997,46.6138 6.974,46.8048 6.93,46.9918 C6.93,47.1718 6.85,47.2018 6.67,47.2118 L0.37,47.2118 C0.27,47.2118 0.23,47.2118 0.23,47.3618 L0.23,48.7018 C0.224,48.7728 0.276,48.8368 0.348,48.8428 C0.358,48.8438 0.369,48.8428 0.38,48.8408 L5.89,48.8408 C5.99,48.8408 6.12,48.8408 6.17,48.9018 C6.22,48.9618 6.11,49.0818 6.06,49.1618 C5.516,49.9158 4.745,50.4758 3.86,50.7618 C2.837,51.1258 1.778,51.3738 0.7,51.5018 L0.16,51.5018 C0.125,51.5168 0.085,51.5168 0.05,51.5018 L0.05,26.0518 C0.16,26.0518 0.13,26.1718 0.14,26.2418 C0.215,26.8768 0.383,27.4968 0.64,28.0818 C1.519,30.1688 3.459,31.6148 5.71,31.8618 C6.098,31.9128 6.489,31.9358 6.88,31.9318 L25,31.9318 C26.224,31.9478 27.424,31.5988 28.45,30.9318 C29.61,30.2328 30.518,29.1818 31.04,27.9318 C31.279,27.3098 31.427,26.6558 31.48,25.9918 L31.48,24.6718 L31.48,6.6718 C31.468,5.4218 31.085,4.2038 30.38,3.1718 C29.303,1.5328 27.518,0.4958 25.56,0.3718 C24.69,0.3118 23.81,0.3718 22.93,0.3718 L6.58,0.3718 C4.839,0.3418 3.164,1.0338 1.95,2.2818 C0.925,3.2888 0.285,4.6228 0.14,6.0518 C0.137,6.1708 0.117,6.2888 0.08,6.4018 L0,6.4218 Z" id="Fill-1" fill="#FEFEFE" mask="url(#mask-2)"></path>
                </g>
                <path d="M0.0498,7.1401 C0.1098,5.8751 0.5528,4.6581 1.3198,3.6501 C2.3518,2.2431 3.9188,1.3241 5.6498,1.1101 C5.9818,1.0691 6.3158,1.0491 6.6498,1.0501 L24.8698,1.0501 C28.0658,0.9571 30.8448,3.2221 31.3998,6.3701 C31.4798,6.7921 31.5168,7.2211 31.5098,7.6501 L31.5098,26.1601 C31.5648,27.5311 31.1638,28.8811 30.3698,30.0001 C29.3338,31.4351 27.7538,32.3821 25.9998,32.6201 C25.4728,32.6821 24.9408,32.7061 24.4098,32.6901 L6.5398,32.6901 C3.9068,32.7211 1.5248,31.1321 0.5398,28.6901 C0.2988,28.1051 0.1428,27.4891 0.0798,26.8601 L0.0798,26.7501 L0.0798,26.7001 C0.1088,26.6121 0.1088,26.5171 0.0798,26.4301 L0.0798,19.1101 C0.0958,19.0511 0.0958,18.9891 0.0798,18.9301 L0.0798,14.1401 L0.0798,12.5001 C0.0968,12.4451 0.0968,12.3851 0.0798,12.3301 L0.0798,9.5101 C0.0938,9.2371 0.0938,8.9631 0.0798,8.6901 L0.0798,7.3901 C0.0618,7.3081 0.0518,7.2241 0.0498,7.1401" id="Fill-4" fill="#31BBAC"></path>
                <path d="M0,52.2197 C1.371,52.1377 2.721,51.8397 4,51.3397 C4.817,51.0327 5.517,50.4777 6,49.7497 L6.06,49.6597 C6.001,49.6427 5.939,49.6427 5.88,49.6597 L0.34,49.6597 C0.2,49.6597 0.15,49.6597 0.15,49.4807 L0.15,48.1397 C0.15,47.9807 0.15,47.9297 0.35,47.9297 L6.6,47.9297 C6.78,47.9297 6.86,47.9297 6.88,47.6997 C6.9,47.4697 6.94,47.2897 6.94,47.0797 C6.94,46.8697 6.94,46.9597 7.06,46.9597 L8.8,46.9597 C8.9,46.9597 8.93,46.9597 8.92,47.0897 C8.934,47.3027 8.934,47.5167 8.92,47.7307 C8.92,47.8797 8.92,47.9297 9.09,47.9297 L15.61,47.9297 C15.85,47.9297 15.82,47.9297 15.82,48.1507 L15.82,49.4907 C15.82,49.6297 15.82,49.6597 15.65,49.6597 L9.65,49.6597 C9.65,49.7307 9.65,49.7597 9.72,49.7997 C10.456,50.7497 11.487,51.4287 12.65,51.7307 C13.506,51.9997 14.387,52.1847 15.28,52.2807 C15.453,52.2897 15.627,52.2897 15.8,52.2807 C15.91,52.2807 15.95,52.2807 15.94,52.4197 L15.94,53.9297 C15.94,54.0707 15.94,54.0897 15.77,54.0797 C14.895,54.0637 14.023,53.9557 13.17,53.7597 C12.831,53.6927 12.497,53.6027 12.17,53.4907 C10.578,52.9417 9.171,51.9577 8.11,50.6507 L8,50.4407 C7.85,50.6597 7.7,50.8797 7.52,51.0797 C6.753,51.9527 5.775,52.6147 4.68,52.9997 C4.39,53.1107 4.08,53.1997 3.79,53.3097 C2.672,53.6987 1.509,53.9437 0.33,54.0397 L0,54.0397 L0,52.2197 Z" id="Fill-6" fill="#666666"></path>
                <path d="M0.0601,14.1201 L0.0601,18.9401 L0.0601,19.1001 L0.0601,14.1001 C0.0601,14.1001 0.0001,14.1101 0.0601,14.1201" id="Fill-8" fill="#54C7BA"></path>
                <path d="M0.0601,14.1201 L0.0601,14.1201 L0.0601,12.3201 C0.1101,12.3201 0.0601,12.4201 0.0601,12.4801 L0.0601,14.1201 Z" id="Fill-10" fill="#44C1B4"></path>
                <path d="M0.0601,7.3701 L0.0601,8.7001 L0.0601,7.3801 C0.0601,7.3801 0.0001,7.3601 0.0601,7.3701" id="Fill-12" fill="#66CDC1"></path>
                <polygon id="Fill-14" fill="#43C1B4" points="0 8.7002 0 8.7002 0 9.3602 0 9.5202"></polygon>
                <path d="M0,26.4301 C0.053,26.5121 0.053,26.6171 0,26.7001 L0,26.4301 Z" id="Fill-16" fill="#73D1C7"></path>
                <polygon id="Fill-18" fill="#B9E8E2" points="0.0601 7.3701 0.0601 7.3701 0.0601 7.1301"></polygon>
                <path d="M52.0596,32.6904 L42.7196,32.6904 C40.0726,32.7114 37.6856,31.0954 36.7196,28.6294 C36.4046,27.8244 36.2446,26.9654 36.2496,26.1004 L36.2496,7.5894 C36.2156,4.3214 38.6216,1.5384 41.8606,1.1004 C42.3716,1.0454 42.8856,1.0254 43.4006,1.0404 L61.3096,1.0404 C63.2186,0.9994 65.0396,1.8444 66.2406,3.3304 C67.1066,4.3544 67.6306,5.6234 67.7406,6.9604 L67.7406,7.7904 L67.7406,25.9194 C67.7836,27.0614 67.5326,28.1944 67.0096,29.2104 C66.0576,31.0434 64.2836,32.3074 62.2406,32.6104 C61.9096,32.6594 61.5746,32.6824 61.2406,32.6794 L52.0396,32.6794 L52.0596,32.6904 Z" id="Fill-20" fill="#FE6633"></path>
                <path d="M18.5698,46.0498 L18.5698,38.2398 C18.5698,38.0898 18.5698,38.0398 18.7598,38.0398 L33.0998,38.0398 C33.2698,38.0398 33.2998,38.0398 33.2998,38.2498 L33.2998,52.3798 C33.3278,53.2748 32.6258,54.0218 31.7318,54.0498 C31.6978,54.0508 31.6638,54.0508 31.6298,54.0498 L18.8198,54.0498 C18.5798,54.0498 18.5798,54.0498 18.5798,53.7998 C18.5728,51.2198 18.5698,48.6368 18.5698,46.0498" id="Fill-22" fill="#666666"></path>
                <path d="M4.3101,39.6796 C3.9101,39.0306 3.5401,38.4096 3.1701,37.7496 L4.6301,37.7496 C5.0021,37.7806 5.3261,38.0156 5.4701,38.3606 C5.6901,38.7806 5.9601,39.1696 6.1901,39.5796 C6.2181,39.6296 6.2731,39.6576 6.3301,39.6506 L9.6501,39.6506 C9.7191,39.6556 9.7841,39.6146 9.8101,39.5496 C10.0501,39.1396 10.3101,38.7496 10.5301,38.3296 C10.6891,37.9646 11.0511,37.7286 11.4501,37.7306 L12.8001,37.7306 C12.4401,38.3796 12.0601,38.9996 11.6701,39.6506 L15.3401,39.6506 C15.5001,39.6506 15.5301,39.6506 15.5201,39.8396 L15.5201,41.0796 C15.5201,41.2306 15.5201,41.2696 15.3401,41.2696 L9.5901,41.2696 L9.1001,41.2696 C8.9401,41.2696 8.9001,41.2696 8.9101,41.4506 C8.9241,41.6796 8.9241,41.9096 8.9101,42.1396 C8.9101,42.2806 8.9101,42.3206 9.0901,42.3206 L14.5501,42.3206 C14.6601,42.3206 14.6801,42.3206 14.6801,42.4506 L14.6801,43.8096 C14.6801,43.9506 14.6801,43.9696 14.5101,43.9696 L9.1101,43.9696 C8.9301,43.9696 8.8901,43.9696 8.9001,44.1796 C8.9131,44.3996 8.9131,44.6196 8.9001,44.8396 C8.9001,44.9806 8.9001,45.0196 9.0701,45.0196 L15.6101,45.0196 C15.7401,45.0196 15.7801,45.0196 15.7801,45.1796 L15.7801,46.4506 C15.7801,46.5896 15.7801,46.6296 15.6001,46.6296 L0.3501,46.6296 C0.2001,46.6296 0.1501,46.6296 0.1601,46.4406 L0.1601,45.1906 C0.1601,45.0496 0.1601,45.0306 0.3301,45.0306 L6.8401,45.0306 C7.0201,45.0306 7.0601,45.0306 7.0501,44.8206 C7.0371,44.6066 7.0371,44.3936 7.0501,44.1796 C7.0501,44.0306 7.0501,43.9806 6.8601,43.9806 L1.4501,43.9806 C1.3201,43.9806 1.2801,43.9806 1.2801,43.8206 L1.2801,42.5196 C1.2801,42.3696 1.2801,42.3296 1.4601,42.3296 L6.8301,42.3296 C7.0001,42.3296 7.0601,42.3296 7.0401,42.1196 C7.0261,41.9006 7.0261,41.6796 7.0401,41.4596 C7.0401,41.3206 7.0401,41.2806 6.8601,41.2806 L0.6201,41.2806 C0.4801,41.2806 0.4301,41.2806 0.4401,41.1106 L0.4401,39.8396 C0.4401,39.7006 0.4401,39.6696 0.6101,39.6696 L4.3201,39.6696 L4.3101,39.6796 Z" id="Fill-24" fill="#666666"></path>
                <path d="M41.9199,49.2402 L36.4809,49.2402 C36.3299,49.2402 36.2899,49.2402 36.2899,49.0592 L36.2899,42.6502 C36.2899,42.4902 36.2899,42.4602 36.4899,42.4602 L40.4899,42.4602 C40.6299,42.4602 40.6699,42.4602 40.6699,42.2802 L40.6699,37.9402 C40.6699,37.7902 40.6699,37.7402 40.8599,37.7402 L42.3699,37.7402 C42.5299,37.7402 42.5599,37.7402 42.5499,37.9292 L42.5499,39.4692 C42.5499,39.6302 42.5499,39.6792 42.7499,39.6792 L49.7499,39.6792 C49.9199,39.6792 49.9699,39.6792 49.9599,39.8892 L49.9599,41.1302 C49.9599,41.2692 49.9599,41.3092 49.7799,41.3092 L42.7799,41.3092 C42.5999,41.3092 42.5499,41.3602 42.5599,41.5302 C42.5749,41.7792 42.5749,42.0302 42.5599,42.2802 C42.5599,42.4502 42.6099,42.4802 42.7699,42.4802 L48.7699,42.4802 C48.9299,42.4802 48.9809,42.4802 48.9809,42.6792 L48.9809,47.5592 C49.0309,48.4472 48.3539,49.2092 47.4659,49.2602 C47.4029,49.2632 47.3419,49.2632 47.2799,49.2602 L41.9199,49.2402 Z" id="Fill-26" fill="#666666"></path>
                <path d="M62.4199,38.0498 L67.6399,38.0498 C67.7799,38.0498 67.8199,38.0498 67.8199,38.2198 L67.8199,39.5198 C67.8199,39.6598 67.8199,39.6908 67.6499,39.6908 L63.5699,39.6908 C63.3999,39.6908 63.3699,39.6908 63.3699,39.9008 L63.3699,46.9008 C63.3699,47.0498 63.3699,47.0998 63.5599,47.0998 L67.6299,47.0998 C67.7999,47.0998 67.8299,47.0998 67.8299,47.3098 L67.8299,48.5598 C67.8299,48.7098 67.8299,48.7498 67.6499,48.7498 L63.5799,48.7498 C63.4199,48.7498 63.3699,48.7498 63.3699,48.9498 L63.3699,53.9498 C63.3699,54.0998 63.3699,54.1398 63.1799,54.1398 L61.6499,54.1398 C61.5099,54.1398 61.4699,54.1398 61.4699,53.9598 L61.4699,48.9598 C61.4699,48.7798 61.4199,48.7498 61.2499,48.7498 L57.1999,48.7498 C57.0399,48.7498 57.0099,48.7498 57.0099,48.5498 L57.0099,47.2798 C57.0099,47.1398 57.0099,47.0998 57.1799,47.0998 L61.2599,47.0998 C61.4299,47.0998 61.4599,47.0998 61.4599,46.8898 L61.4599,39.8898 C61.4599,39.7398 61.4599,39.6908 61.2699,39.6908 L57.1909,39.6908 C57.0499,39.6908 57.0099,39.6908 57.0099,39.5198 L57.0099,38.2198 C57.0099,38.0798 57.0099,38.0498 57.1799,38.0598 L62.4199,38.0498 Z" id="Fill-28" fill="#666666"></path>
                <path d="M55.9102,47 L55.9102,52.34 C55.9512,53.072 55.5092,53.746 54.8202,54 C54.6592,54.056 54.4902,54.087 54.3202,54.09 L52.3202,54.09 C52.2002,54.09 52.1702,54.09 52.1702,53.94 L52.1702,52.58 C52.1702,52.46 52.1702,52.43 52.3202,52.43 L53.4902,52.43 C53.7482,52.459 53.9802,52.272 54.0092,52.015 C54.0132,51.983 54.0132,51.951 54.0102,51.92 L54.0102,51.85 L54.0102,43.21 C54.0102,43.09 54.0102,43.05 53.8492,43.05 L52.3092,43.05 C52.1902,43.05 52.1602,43.05 52.1602,42.9 L52.1602,41.58 C52.1602,41.46 52.1602,41.43 52.3092,41.43 L55.7202,41.43 C55.8492,41.43 55.8892,41.43 55.8892,41.6 C55.9032,43.394 55.9102,45.193 55.9102,47" id="Fill-30" fill="#666666"></path>
                <path d="M58.5703,41.4101 L59.3703,41.4101 C59.4803,41.4101 59.5303,41.4101 59.5493,41.5501 C59.6603,42.2201 59.7803,42.8891 59.9003,43.5501 C60.0193,44.2101 60.0903,44.6391 60.1903,45.1801 C60.1903,45.2901 60.1903,45.3301 60.0803,45.3301 L58.4503,45.3301 C58.3303,45.3301 58.2993,45.3301 58.2803,45.1801 L57.8303,42.5801 C57.7693,42.2401 57.7193,41.8891 57.6393,41.5801 C57.6393,41.4301 57.6393,41.4201 57.7803,41.4201 L58.5703,41.4101 Z" id="Fill-32" fill="#666666"></path>
                <path d="M65.6104,45.3398 L64.7994,45.3398 C64.7004,45.3398 64.6604,45.3398 64.6794,45.2098 C64.8934,43.9968 65.1064,42.7798 65.3204,41.5598 C65.3204,41.4408 65.3894,41.4008 65.5194,41.4008 L67.0994,41.4008 C67.2194,41.4008 67.2594,41.4008 67.2404,41.5598 C67.0264,42.7528 66.8164,43.9458 66.6104,45.1398 C66.6104,45.2798 66.5494,45.3498 66.3804,45.3398 C66.2104,45.3298 65.8604,45.3398 65.6104,45.3398" id="Fill-34" fill="#666666"></path>
                <path d="M38.1699,50.29 L37.3699,52.76 C37.2429,53.153 37.1199,53.547 36.9999,53.94 C36.9899,54.017 36.9199,54.07 36.8429,54.061 C36.8419,54.061 36.8409,54.061 36.8399,54.06 L35.1299,54.06 C35.0099,54.06 34.9999,54.06 35.0399,53.93 L36.1799,50.41 C36.1799,50.35 36.1799,50.3 36.2999,50.3 L38.1699,50.29 Z" id="Fill-36" fill="#666666"></path>
                <path d="M50.54,54.0498 L48.71,54.0498 C48.64,54.0498 48.59,54.0498 48.56,53.9598 C48.173,52.7398 47.783,51.5238 47.39,50.3098 C46.8,48.4898 47.47,50.3098 47.5,50.3098 L49.21,50.3098 C49.3,50.3098 49.35,50.3098 49.38,50.4198 L50.53,53.9998 C50.534,54.0168 50.537,54.0328 50.54,54.0498" id="Fill-38" fill="#666666"></path>
                <path d="M43.4502,50.29 L45.3002,50.29 C45.3802,50.29 45.3892,50.29 45.4102,50.39 L46.3602,53.95 C46.3602,54.03 46.3602,54.06 46.2802,54.06 L44.5502,54.06 C44.4902,54.06 44.4502,54.06 44.4292,53.98 L43.4502,50.29 Z" id="Fill-40" fill="#666666"></path>
                <path d="M42.1104,54.0498 L40.3304,54.0498 C40.2504,54.0498 40.2104,54.0498 40.2004,53.9408 C40.0004,52.7598 39.7934,51.5828 39.5804,50.4098 C39.5804,50.2898 39.5804,50.2798 39.6904,50.2798 L41.3304,50.2798 C41.4204,50.2798 41.4604,50.2798 41.4804,50.3898 C41.6794,51.5638 41.8834,52.7368 42.0894,53.9098 C42.4004,55.6698 42.0994,53.9998 42.1104,54.0498" id="Fill-42" fill="#666666"></path>
                <path d="M54,39.6904 L52.29,39.6904 C52.18,39.6904 52.15,39.6904 52.15,39.5494 L52.15,38.1794 C52.15,38.0704 52.15,38.0494 52.29,38.0494 L55.75,38.0494 C55.85,38.0494 55.89,38.0494 55.89,38.1794 L55.89,39.5494 C55.89,39.6694 55.89,39.6904 55.74,39.6904 L54,39.6904 Z" id="Fill-44" fill="#666666"></path>
                <path d="M2.6802,17.1401 C2.5442,9.9011 8.3032,3.9221 15.5422,3.7861 C22.7812,3.6511 28.7602,9.4091 28.8952,16.6481 C29.0302,23.8541 23.3242,29.8171 16.1202,30.0001 C8.8882,30.1881 2.8712,24.4791 2.6822,17.2461 C2.6812,17.2111 2.6802,17.1751 2.6802,17.1401" id="Fill-46" fill="#FEFEFE"></path>
                <path d="M55.8701,15.5698 C58.0111,15.8598 60.0001,16.8358 61.5401,18.3498 C62.8101,19.5838 63.7431,21.1228 64.2501,22.8198 C64.3491,23.1498 64.4301,23.4898 64.5301,23.8198 C64.5301,23.9398 64.5301,23.9698 64.4301,23.9998 L61.2101,24.8498 C61.0901,24.8498 61.0591,24.8498 61.0401,24.7398 C60.9401,24.3498 60.8301,23.9598 60.7001,23.5698 C60.4001,22.6378 59.8831,21.7918 59.1901,21.0998 C58.0251,19.8888 56.4381,19.1728 54.7601,19.0998 C51.0821,18.8958 47.9341,21.7128 47.7301,25.3898 C47.6881,26.1598 47.7791,26.9308 48.0001,27.6698 C48.0591,27.8698 48.0991,28.0798 48.1601,28.2698 C48.2201,28.4598 48.1601,28.3798 48.0801,28.4098 C47.3001,28.6798 46.5001,28.8398 45.7101,29.0598 L44.8091,29.2998 C44.7301,29.2998 44.6901,29.2998 44.6601,29.2308 C44.3141,28.0708 44.1331,26.8688 44.1201,25.6598 C44.1461,23.0458 45.1731,20.5408 46.9901,18.6598 C47.1601,18.4798 47.3201,18.2998 47.5001,18.1398 L48.0501,17.6598 L47.2801,17.4698 C44.3141,16.6388 41.9541,14.3918 40.9801,11.4698 C40.9801,11.3398 40.9801,11.3098 41.0901,11.2798 L44.1901,10.4498 C44.3091,10.4498 44.3491,10.4498 44.4001,10.5598 C44.8681,11.7518 45.7101,12.7578 46.8001,13.4298 C47.6361,13.9608 48.6001,14.2548 49.5901,14.2798 C50.6171,14.3398 51.6401,14.0968 52.5301,13.5798 C54.0281,12.7568 55.0891,11.3158 55.4301,9.6398 C55.5581,8.9488 55.5581,8.2408 55.4301,7.5498 C55.4301,7.4498 55.4301,7.4098 55.5301,7.3798 L58.6801,6.5398 C58.7901,6.5398 58.8201,6.5398 58.8491,6.6498 C59.3071,8.9908 58.8561,11.4188 57.5901,13.4398 C57.1431,14.1538 56.6011,14.8028 55.9791,15.3698 L55.8201,15.5198 L55.8701,15.5698 Z" id="Fill-48" fill="#FEFEFE"></path>
                <path d="M49.8096,4.4799 C52.0196,4.4819 53.8086,6.2749 53.8056,8.4839 C53.8036,10.6929 52.0106,12.4819 49.8016,12.4799 C47.5926,12.4779 45.8036,10.6849 45.8056,8.4759 C45.8056,8.4179 45.8076,8.3579 45.8096,8.2999 C45.9066,6.1619 47.6686,4.4779 49.8096,4.4799" id="Fill-50" fill="#FEFEFE"></path>
                <path d="M20.3398,46 L20.3398,39.85 C20.3398,39.69 20.3398,39.65 20.5398,39.65 L31.3498,39.65 C31.4898,39.65 31.5298,39.65 31.5298,39.83 L31.5298,51.77 C31.5298,52.17 31.3298,52.37 30.9198,52.37 L20.5198,52.37 C20.3698,52.37 20.3298,52.37 20.3298,52.18 C20.3368,50.146 20.3398,48.087 20.3398,46" id="Fill-52" fill="#FEFEFE"></path>
                <path d="M42.6201,44.1103 L46.9101,44.1103 C47.0501,44.1103 47.0801,44.1103 47.0801,44.2903 L47.0801,47.0493 C47.1151,47.3063 46.9351,47.5443 46.6791,47.5803 C46.6361,47.5863 46.5931,47.5863 46.5501,47.5803 L38.3301,47.5803 C38.1901,47.5803 38.1601,47.5803 38.1601,47.4103 L38.1601,44.2903 C38.1601,44.1393 38.1601,44.0993 38.3401,44.0993 L42.6201,44.1103 Z" id="Fill-54" fill="#FEFEFE"></path>
                <path d="M16.7402,17.1001 L16.7402,12.2401 C16.7402,12.0801 16.7402,12.0201 16.9502,12.0201 L25.9502,12.0201 C26.0902,12.0201 26.1302,12.0201 26.1302,12.1901 L26.1302,21.1001 C26.1472,21.5621 25.8452,21.9751 25.4002,22.1001 C25.2942,22.1151 25.1862,22.1151 25.0802,22.1001 L16.9202,22.1001 C16.7802,22.1001 16.7402,22.1001 16.7402,21.9201 L16.7402,17.1001 Z" id="Fill-56" fill="#31BBAC"></path>
                <path d="M8,13 L7.4,12 L7.34,11.9 L7.34,11.8 L8.17,11.8 C8.372,11.815 8.553,11.932 8.65,12.11 L9.1,12.85 C9.14,12.934 9.227,12.985 9.32,12.98 L11.27,12.98 C11.362,12.993 11.451,12.944 11.49,12.86 C11.63,12.61 11.78,12.38 11.93,12.13 C12.051,11.907 12.287,11.772 12.54,11.78 L13.22,11.78 C13.35,11.78 13.35,11.78 13.29,11.91 L12.75,12.79 L12.65,12.97 L14.92,12.97 C15.05,12.97 15.1,12.97 15.09,13.13 C15.08,13.29 15.09,13.62 15.09,13.86 C15.09,14.1 15.09,14.03 14.92,14.03 L11.1,14.03 C10.94,14.03 10.88,14.03 10.9,14.23 C10.911,14.343 10.911,14.457 10.9,14.57 C10.9,14.67 10.9,14.71 11.03,14.7 L14.37,14.7 C14.53,14.7 14.57,14.7 14.56,14.9 C14.548,15.12 14.548,15.34 14.56,15.56 C14.56,15.7 14.56,15.73 14.39,15.73 L11.11,15.73 C10.94,15.73 10.88,15.73 10.9,15.94 C10.92,16.15 10.84,16.27 10.9,16.36 C10.96,16.45 11.17,16.36 11.31,16.36 L15.05,16.36 C15.2,16.36 15.25,16.36 15.24,16.55 C15.23,16.74 15.24,17.04 15.24,17.28 C15.24,17.37 15.24,17.41 15.12,17.4 L5.55,17.4 C5.38,17.4 5.32,17.4 5.33,17.19 C5.345,16.97 5.345,16.75 5.33,16.53 C5.33,16.39 5.33,16.36 5.5,16.36 L9.5,16.36 C9.66,16.36 9.73,16.36 9.7,16.16 C9.67,15.96 9.76,15.83 9.7,15.73 C9.64,15.63 9.42,15.73 9.28,15.73 L6.28,15.73 C6.14,15.73 6.09,15.73 6.1,15.55 C6.112,15.324 6.112,15.097 6.1,14.87 C6.1,14.72 6.1,14.7 6.28,14.7 L9.5,14.7 C9.67,14.7 9.73,14.7 9.71,14.48 C9.69,14.26 9.77,14.15 9.71,14.05 C9.65,13.95 9.42,14.05 9.27,14.05 L5.69,14.05 C5.55,14.05 5.51,14.05 5.51,13.87 C5.521,13.64 5.521,13.41 5.51,13.18 C5.51,13.04 5.51,12.99 5.69,12.99 L8,12.99 L8,13 Z" id="Fill-58" fill="#31BBAC"></path>
                <path d="M11.3398,19.3701 C11.7708,19.9731 12.3898,20.4161 13.0998,20.6301 C13.7908,20.8771 14.5168,21.0161 15.2498,21.0401 C15.3298,21.0401 15.3598,21.0401 15.3598,21.1501 L15.3598,22.0501 C15.3598,22.1801 15.2898,22.1601 15.2098,22.1601 C14.5848,22.1531 13.9628,22.0651 13.3598,21.9001 C12.1688,21.6061 11.1118,20.9191 10.3598,19.9501 L10.2998,19.8801 C10.0658,20.2611 9.7678,20.5991 9.4198,20.8801 C8.7148,21.3721 7.9138,21.7131 7.0698,21.8801 C6.5228,22.0221 5.9638,22.1161 5.3998,22.1601 C5.2598,22.1601 5.2298,22.1601 5.2298,22.0001 L5.2298,21.1701 C5.2298,21.0501 5.2298,21.0201 5.3798,21.0101 C6.2208,20.9611 7.0488,20.7751 7.8298,20.4601 C8.3718,20.2491 8.8288,19.8671 9.1298,19.3701 L5.5198,19.3701 C5.3798,19.3701 5.3298,19.3701 5.3398,19.2001 C5.3498,19.0301 5.3398,18.6901 5.3398,18.4401 C5.3398,18.1901 5.3398,18.2601 5.5198,18.2601 L9.3798,18.2601 C9.5598,18.2601 9.6198,18.2001 9.6198,18.0401 C9.6168,18.0001 9.6168,17.9601 9.6198,17.9201 C9.6198,17.6401 9.6198,17.6401 9.9498,17.6401 L10.7298,17.6401 C10.9898,17.6401 10.8998,17.6401 10.8798,17.8001 C10.8598,17.9601 10.8798,18.0401 10.8798,18.1501 C10.8798,18.2601 10.8798,18.2601 10.9698,18.2501 L15.0998,18.2501 C15.2398,18.2501 15.2898,18.2501 15.2798,18.4301 C15.2698,18.6101 15.2798,18.9501 15.2798,19.2101 C15.2798,19.4701 15.2798,19.3701 15.1198,19.3701 L11.3398,19.3701 Z" id="Fill-60" fill="#31BBAC"></path>
                <path d="M21.79,50.4101 L21.79,48.2691 C21.79,48.1701 21.86,48.1301 21.91,48.0801 L25.76,44.8601 L26.53,44.2101 C26.472,44.1871 26.408,44.1871 26.35,44.2101 L21.28,44.2101 C21.12,44.2101 21.07,44.2101 21.07,44.0101 L21.07,42.6901 C21.07,42.5301 21.07,42.4801 21.27,42.4801 L27.05,42.4801 C27.27,42.4801 27.27,42.4801 27.27,42.2601 L27.27,40.7501 C27.27,40.6301 27.27,40.5801 27.42,40.5801 L28.79,40.5801 C28.93,40.5801 28.96,40.5801 28.96,40.7501 L28.96,42.3301 C28.96,42.4501 28.96,42.4801 29.11,42.4801 L30.64,42.4801 C30.76,42.4801 30.8,42.4801 30.79,42.6301 L30.79,44.0501 C30.79,44.1701 30.79,44.2001 30.64,44.2001 L29.13,44.2001 C29,44.2001 28.96,44.2001 28.96,44.3701 L28.96,50.3701 C28.991,50.8941 28.648,51.3671 28.14,51.5001 C28.017,51.5151 27.893,51.5151 27.77,51.5001 L25,51.5001 C24.88,51.5001 24.83,51.5001 24.83,51.3491 L24.83,49.9901 C24.83,49.8701 24.83,49.8491 24.97,49.8491 L26.97,49.8491 C27.18,49.8491 27.28,49.7601 27.28,49.5591 L27.28,45.7501 C25.42,47.3001 23.65,48.8801 21.79,50.4101" id="Fill-62" fill="#666666"></path>
                <path d="M17.8799,17.1001 L17.8799,13.4201 C17.8799,13.2701 17.8799,13.2301 18.0699,13.2301 L24.8099,13.2301 C24.9399,13.2301 24.9799,13.2301 24.9799,13.3901 L24.9799,20.5401 C24.9799,20.8301 24.8599,20.9501 24.5599,20.9501 L17.9999,20.9501 C17.8699,20.9501 17.8399,20.9501 17.8399,20.7801 C17.8799,19.5601 17.8799,18.3301 17.8799,17.1001" id="Fill-64" fill="#FEFEFE"></path>
                <path d="M22.2598,17 C21.0798,18 19.9898,19 18.8198,20 C18.8018,19.952 18.8018,19.898 18.8198,19.85 L18.8198,18.73 C18.8118,18.594 18.8718,18.463 18.9798,18.38 L21.6598,16.04 L21.8198,15.9 L18.4398,15.9 C18.2998,15.9 18.2498,15.9 18.2598,15.72 C18.2698,15.54 18.2598,15.25 18.2598,15.01 C18.2598,14.77 18.2598,14.82 18.4398,14.82 L22.0998,14.82 C22.2598,14.82 22.3098,14.82 22.2998,14.62 C22.2898,14.42 22.2998,14.04 22.2998,13.76 C22.2998,13.66 22.2998,13.62 22.4398,13.63 L23.2398,13.63 C23.3698,13.63 23.3898,13.63 23.3898,13.79 L23.3898,14.65 C23.3898,14.93 23.3898,14.84 23.5798,14.83 L24.5098,14.83 C24.6198,14.83 24.6598,14.83 24.6598,14.97 L24.6598,15.77 C24.6598,16.04 24.6598,15.91 24.5098,15.91 L23.5598,15.91 C23.4298,15.91 23.3898,15.91 23.3898,16.08 L23.3898,19.79 C23.4498,20.178 23.1838,20.54 22.7968,20.6 C22.7248,20.611 22.6518,20.611 22.5798,20.6 L20.8998,20.6 C20.7898,20.6 20.7398,20.6 20.7398,20.45 L20.7398,19.67 C20.7398,19.41 20.7898,19.55 20.8798,19.55 L22.0998,19.55 C22.2398,19.55 22.3098,19.49 22.3098,19.35 L22.3098,17.08 C22.2958,17.052 22.2788,17.025 22.2598,17" id="Fill-66" fill="#31BBAC"></path>
            </g>
        </g>
    </g>
</svg>