<?xml version="1.0" encoding="UTF-8"?>
<svg width="232px" height="80px" viewBox="0 0 232 80" version="1.1" xmlns="http://www.w3.org/2000/svg" xmlns:xlink="http://www.w3.org/1999/xlink">
    <!-- Generator: Sketch 44.1 (41455) - http://www.bohemiancoding.com/sketch -->
    <title>zhihu</title>
    <desc>Created with Sketch.</desc>
    <defs></defs>
    <g id="Page-1" stroke="none" stroke-width="1" fill="none" fill-rule="evenodd">
        <g id="zhihu" fill="#1887E2">
            <path d="M125.913627,30.4239996 C125.205654,30.6798745 125.149455,30.873272 125.618193,31.5372909 C127.060197,33.5795808 128.522609,35.6074286 129.975915,37.6418695 C130.787808,38.7780797 130.786552,38.7790215 132.027938,37.9467217 C132.373918,37.7143936 132.714562,37.4735886 133.066507,37.2506792 C133.472768,36.9932345 133.469628,36.7012545 133.196799,36.3420878 C131.810994,34.5151724 130.441827,32.6753848 129.043777,30.8578881 C128.650075,30.3458243 128.130476,29.9926228 127.408689,30.0114602 C126.909498,30.1464617 126.398376,30.2491256 125.913627,30.4239996 L125.913627,30.4239996 Z M151.762015,30.2145903 C150.218603,32.1658327 148.755877,34.1804943 147.236326,36.150888 C146.909496,36.5750439 146.877787,36.8497562 147.345583,37.1583758 C147.90788,37.528845 148.460444,37.9168958 148.990717,38.331005 C149.360244,38.6195314 149.642806,38.5708681 149.920029,38.228969 C150.508071,37.5037285 151.116205,36.7938718 151.682898,36.0526195 C152.910783,34.4457879 154.096913,32.8063048 155.345205,31.216113 C155.762454,30.6845839 155.630906,30.369999 155.116331,30.129508 C154.512592,29.8472607 153.881852,29.6230955 153.120506,29.3160456 C152.656792,29.6130489 152.080681,29.8120975 151.762015,30.2145903 L151.762015,30.2145903 Z M98.842062,29.6406771 C98.8461434,28.5217346 98.870946,28.5016413 99.9402834,28.4959901 C102.550521,28.4824899 105.160759,28.4787225 107.770997,28.4925366 C108.831544,28.4981878 108.867021,28.5242462 108.868591,29.4846405 C108.879893,36.5844626 108.867335,43.6845986 108.889312,50.7844207 C108.891196,51.5096612 108.691205,51.9165494 107.928604,51.7806061 C105.695428,51.3825087 103.914978,52.3334842 102.18382,53.5723583 C101.249798,54.2410866 101.046668,54.1365389 100.784828,52.9560608 C100.634442,52.2782278 100.527383,51.7558035 99.6401405,51.9366427 C98.9980986,52.0675627 98.8452016,51.6468604 98.8483411,51.0968079 C98.8543063,49.9486674 98.8367247,48.8002129 98.8357829,47.6517584 C98.8332712,45.1457542 98.8351549,42.6397499 98.8351549,40.1340597 L98.8373526,40.1340597 C98.8373526,36.6362655 98.8295037,33.1384713 98.842062,29.6406771 L98.842062,29.6406771 Z M112.361675,40.2047 L112.361675,26.5626433 C112.361989,25.0035332 112.399036,25.0942667 110.935683,25.1011738 C106.336214,25.1231507 101.736431,25.1146739 97.1369619,25.1143599 C95.3725239,25.114046 95.3665587,25.1096506 95.3665587,26.8533674 C95.3662448,35.7914073 95.3693844,44.7291333 95.3712681,53.6671733 C95.3712681,53.9283855 95.3847682,54.1905395 95.3712681,54.4511237 C95.3433259,54.9883041 95.60548,55.2749467 96.1206833,55.1647479 C98.2788233,54.7026032 99.1459723,55.7970571 99.3318348,57.75866 C99.3412535,57.8584983 99.4197428,57.9508017 99.4357546,58.0515819 C99.5283719,58.6308324 99.745944,58.7253334 100.266799,58.3875158 C101.620581,57.5090643 103.027108,56.7116137 104.376495,55.8265691 C105.057781,55.3801223 105.734359,55.1339801 106.565089,55.1619222 C108.078989,55.2130972 109.596029,55.1851551 111.111813,55.1672595 C112.342838,55.1525035 112.353513,55.1374336 112.354768,53.8467566 C112.359792,49.2994044 112.356652,44.7520522 112.356652,40.2047 L112.361675,40.2047 Z M85.7268251,25.6735172 C83.897084,25.6735172 82.0664012,25.697064 80.2372881,25.6628427 C79.4589888,25.6480867 79.3029522,25.4264331 79.5415595,24.6895762 C79.9066914,23.5630987 80.3773129,22.4705286 80.7377354,21.3427953 C80.8548414,20.9764076 80.9298771,20.3792615 80.7317702,20.1833523 C80.4664766,19.9215123 80.0165763,19.9569894 79.4954078,20.1830384 C77.6584458,20.9792332 76.643423,22.3483994 76.0246139,24.173431 C75.3574554,26.1425689 74.6108659,28.0859623 73.8570553,30.0243324 C73.4416902,31.0924139 72.9299404,32.1225066 72.480982,33.1783438 C72.2222815,33.7861644 72.3258873,33.934666 72.9456383,33.8351417 C74.9634395,33.5108242 76.7916107,32.6549776 77.416699,30.6475369 C77.9598445,28.9019364 78.9808324,28.663957 80.4532904,28.817168 C80.660502,28.8388311 80.8711671,28.8303542 81.0802624,28.8272146 C81.7549559,28.8168541 81.9879119,29.1782185 81.9788072,29.8139813 C81.9417603,32.3758699 81.9565162,34.9387003 81.8805387,37.4987052 C81.8475732,38.6189035 81.5480583,38.8502898 80.4316274,38.862848 C78.6543172,38.8835692 76.8751233,38.9074299 75.0996968,38.8462083 C74.1330234,38.8132428 73.4934931,39.176805 73.0991632,40.0200933 C72.9236613,40.3949579 72.7961948,40.7924273 72.6401582,41.1767106 C72.4125394,41.7371238 72.4976217,42.0739995 73.1993155,42.0900114 C75.0758361,42.1336514 76.9517288,42.231292 78.8282494,42.2520131 C81.5075578,42.2808972 81.5392675,42.2658272 81.0196687,44.9319495 C80.004332,50.1417509 77.2820115,54.3625879 73.4150039,57.911871 C72.9073355,58.3777831 72.4699935,58.9206147 72,59.4276551 C72.7641712,59.5485285 73.5264586,59.6825881 74.2934554,59.7817985 C74.4906204,59.807229 74.7009715,59.7158676 74.9069272,59.6916929 C77.6801088,59.36298 79.5657342,57.7859743 80.9025628,55.4347508 C81.9593418,53.5761258 82.9175384,51.6713491 83.4647653,49.5926402 C83.6412091,48.9226561 83.9909572,49.0708438 84.3752405,49.3223233 C84.5432074,49.4325222 84.6546621,49.6296871 84.7887217,49.7901191 C86.0238283,51.2694842 87.2576791,52.750419 88.4930996,54.2294701 C89.2619801,55.1496779 90.0267792,56.0736532 90.8066482,56.9850702 C91.1118144,57.3417252 91.289514,57.2685733 91.3485379,56.7954402 C91.3868407,56.4880763 91.5356562,56.1929568 91.5648542,55.885593 C91.7249723,54.2043536 91.7899614,52.5727194 90.4603537,51.2016695 C89.3009108,50.0058075 88.2723879,48.6843628 87.1641199,47.4379538 C86.7851739,47.0112863 86.3930417,46.4474196 85.9070363,46.3171275 C85.5770676,46.2285917 85.0753644,46.787749 84.6464992,47.0502169 C84.5221723,47.1265085 84.3830894,47.1786253 84.2509135,47.2420446 C84.2342738,47.0960547 84.1812151,46.9434716 84.2066456,46.8056445 C84.3962756,45.7855984 84.6110221,44.7702617 84.7997102,43.7502156 C85.0731667,42.2708505 85.0665736,42.2670831 86.5462527,42.260176 C87.4874955,42.2554667 88.4287384,42.2595481 89.3696674,42.2586062 C90.4675748,42.2576644 91.566738,42.2250128 92.6630756,42.2648854 C93.3760718,42.2906298 93.5936439,41.9738473 93.5148407,41.3280379 C93.4960033,41.1729431 93.5076197,41.0143949 93.4978871,40.8580443 C93.3945952,39.2075727 93.0360564,38.8597085 91.4069339,38.8578247 C89.7338574,38.855627 88.0604669,38.877918 86.3877044,38.8634759 C85.3519605,38.8546852 85.318681,38.8323942 85.3469372,37.8311855 C85.421345,35.1713424 85.5208693,32.5124411 85.625103,29.8538538 C85.6643476,28.8523312 85.6828711,28.8350636 86.7126498,28.824703 C88.3857263,28.8077493 90.0591168,28.8303542 91.7318793,28.802412 C92.0075335,28.7980167 92.4238404,28.7025737 92.5305858,28.5120019 C93.1688602,27.3713963 92.2021868,25.7071106 90.903033,25.6876453 C89.1778397,25.6615869 87.4523324,25.6810522 85.7268251,25.6810522 L85.7268251,25.6735172 Z M151.335661,40.3933881 C154.003039,40.3933881 156.670104,40.3858531 159.337168,40.3968416 C160.420005,40.401551 160.504774,40.5214825 160.303841,41.5785755 C160.265224,41.7823336 160.193014,41.9794985 160.146863,42.1823147 C159.831022,43.5712602 159.806219,43.6098769 158.406285,43.6123885 C153.647012,43.6202374 148.887739,43.5973186 144.128466,43.6218072 C141.927,43.6334236 142.228085,43.2849314 142.206736,45.5162234 C142.178165,48.4444997 142.224631,51.3740318 142.187584,54.3023082 C142.166549,55.9675357 141.683683,57.4858315 140.383274,58.6327161 C138.03519,60.7045179 132.520536,60.5550744 130.303686,57.263236 C130.104638,56.9674886 129.996636,56.6105195 129.846251,56.2821206 C130.186266,56.2271781 130.526282,56.1229444 130.865355,56.12577 C132.486315,56.1383283 134.107275,56.2161896 135.72792,56.2017476 C137.773664,56.1838521 138.755093,55.1754224 138.765454,53.1303069 C138.779582,50.3056364 138.779268,47.4815938 138.762,44.6575512 C138.755721,43.6513192 138.725581,43.6255747 137.70114,43.6230631 C133.30794,43.6120746 128.914741,43.6221212 124.521541,43.6105048 C123.950454,43.609249 123.349854,43.6255747 122.816441,43.4607473 C121.958397,43.1960816 121.25011,42.6968901 120.814652,41.8313108 C120.249529,40.707659 120.349682,40.4583772 121.602056,40.4561795 C126.727403,40.4477026 131.85275,40.4539818 136.978097,40.4549236 C137.29174,40.4549236 137.607894,40.4329467 137.919026,40.4608888 C138.626371,40.5239942 138.784919,40.1685949 138.781465,39.5278088 C138.761058,35.6055448 138.761686,31.6829669 138.781151,27.760389 C138.784291,27.0907188 138.561382,26.8185182 137.873502,26.8590186 C135.947376,26.9720431 134.019681,27.0787885 132.091357,27.1296495 C129.79225,27.1902432 127.490946,27.2266622 125.191212,27.2021736 C123.880127,27.1880455 122.950187,26.4778749 122.376902,25.2986527 C121.929199,24.377503 122.006432,24.2261758 122.991943,24.1630704 C123.200725,24.1495703 123.410448,24.1571053 123.619543,24.1429772 C128.040057,23.8459739 132.461512,23.5577615 136.881084,23.2447464 C139.949385,23.0271743 143.022082,22.8378582 146.080964,22.5207617 C149.596654,22.1565717 153.152844,22.0962919 156.603231,21.1861308 C157.567392,20.9318257 158.077886,21.3245858 158.194051,22.3038175 C158.237063,22.664554 158.245226,23.0403604 158.197504,23.3998411 C157.870047,25.8709962 157.515904,25.8801009 155.533266,25.9648693 C151.364231,26.1428829 147.198651,26.4022113 143.030559,26.6050275 C142.461355,26.6326557 142.189782,26.7701688 142.193235,27.410327 C142.214584,31.4895694 142.221492,35.5694398 142.184759,39.6483683 C142.177852,40.4583772 142.627124,40.4539818 143.177176,40.4536678 C145.896985,40.452098 148.616166,40.4530399 151.335661,40.4530399 L151.335661,40.3933881 Z" id="Fill-1"></path>
        </g>
    </g>
</svg>