<?xml version="1.0" encoding="UTF-8"?>
<svg width="232px" height="80px" viewBox="0 0 232 80" version="1.1" xmlns="http://www.w3.org/2000/svg" xmlns:xlink="http://www.w3.org/1999/xlink">
    <!-- Generator: Sketch 44.1 (41455) - http://www.bohemiancoding.com/sketch -->
    <title> Groupon</title>
    <desc>Created with Sketch.</desc>
    <defs></defs>
    <g id="Page-1" stroke="none" stroke-width="1" fill="none" fill-rule="evenodd">
        <g id="-Groupon" fill-rule="nonzero" fill="#53A318">
            <path d="M74,40.2 C74,42.4 73.5,44.3 72.3,45.9 C70.4,48.6 67.3,50.3 64,50.3 C61.1,50.3 58.7,49.2 56.8,47.2 C54.9,45.2 54,42.8 54,39.9 C54,37.2 55,34.8 57,32.9 C58.9,31 61.3,30 64.1,30 C68.3,30 71.9,32.6 73.5,36.7 L68.1,36.7 C66.9,35.4 65.6,34.8 64.1,34.8 C61.2,34.8 59,37.1 59,39.9 C59,43 61.4,45.4 64.1,45.4 C65.9,45.4 67.5,44.5 68.5,42.8 L62.9,42.8 L62.9,38.9 L74,38.9 C73.9,39.3 74,39.8 74,40.2 L74,40.2 Z M75.2,49.9 L75.2,30.3 L81.7,30.3 C83.7,30.3 85.4,30.4 86.6,31.4 C88.4,32.6 89.2,34.4 89.2,36.9 C89.2,40.1 87.6,42.4 84.8,43.2 L89.6,49.9 L83.7,49.9 L80,43.6 L80,49.9 L75.2,49.9 Z M80.9,39.4 C83.3,39.4 84.4,38.8 84.4,37 C84.4,35.4 83.4,34.7 81.3,34.7 L80,34.7 L80,39.4 L80.9,39.4 Z M92.9,32.9 C94.8,31 97.3,30.1 100,30.1 C102.6,30.1 105.1,31.1 107,33 C109,34.9 110,37.4 110,40 C110,42.8 109,45.3 107.2,47.2 C105.3,49.2 102.7,50.2 100,50.2 C97.1,50.2 94.7,49.2 92.7,47.2 C90.9,45.2 89.9,42.8 89.9,40 C90,37.2 91,34.8 92.9,32.9 L92.9,32.9 Z M100,45.4 C102.8,45.4 105.1,43.2 105.1,40 C105.1,37.2 102.8,34.9 100.1,34.9 C97.2,34.9 94.9,37.2 94.9,40 C94.9,43 97.3,45.4 100,45.4 Z M116.1,30.4 L116.1,42.4 C116.1,44.6 116.8,45.7 118.4,45.7 C120.1,45.7 120.9,44.6 120.9,42.4 L120.9,30.4 L125.7,30.4 L125.7,42.6 C125.7,47.4 122.8,50.2 118.4,50.2 C114,50.2 111.3,47.5 111.3,42.6 L111.3,30.3 L116.1,30.4 Z M127,49.9 L127,30.3 L133.5,30.3 C135.5,30.3 137.2,30.4 138.4,31.4 C140.2,32.6 141,34.4 141,36.9 C141,39.4 139.9,41.5 137.9,42.7 C136.7,43.4 135.1,43.6 133.1,43.6 L131.7,43.6 L131.7,49.9 L127,49.9 Z M132.8,39.4 C135.2,39.4 136.3,38.8 136.3,37 C136.3,35.4 135.3,34.7 133.1,34.7 L131.8,34.7 L131.8,39.4 L132.8,39.4 Z M144.7,32.9 C146.5,31 149,30.1 151.8,30.1 C154.4,30.1 156.9,31.1 158.8,33 C160.8,34.9 161.8,37.4 161.8,40 C161.8,42.8 160.8,45.3 159,47.2 C157.1,49.2 154.5,50.3 151.8,50.3 C148.9,50.3 146.5,49.3 144.5,47.3 C142.7,45.3 141.7,42.9 141.7,40 C141.7,37.2 142.8,34.8 144.7,32.9 L144.7,32.9 Z M151.8,45.4 C154.6,45.4 156.9,43.2 156.9,40 C156.9,37.2 154.6,34.9 151.9,34.9 C149,34.9 146.7,37.2 146.7,40 C146.6,43 149.1,45.4 151.8,45.4 L151.8,45.4 Z M162.7,49.9 L162.7,30.3 L167,30.3 L174.2,41.1 L174.2,30.3 L179,30.3 L179,49.8 L174.8,49.8 L167.5,39 L167.5,49.9 L162.7,49.9 Z" id="Shape"></path>
        </g>
    </g>
</svg>