<?xml version="1.0" encoding="UTF-8"?>
<svg width="232px" height="80px" viewBox="0 0 232 80" version="1.1" xmlns="http://www.w3.org/2000/svg" xmlns:xlink="http://www.w3.org/1999/xlink">
    <!-- Generator: Sketch 44.1 (41455) - http://www.bohemiancoding.com/sketch -->
    <title>sharethis</title>
    <desc>Created with Sketch.</desc>
    <defs></defs>
    <g id="Page-1" stroke="none" stroke-width="1" fill="none" fill-rule="evenodd">
        <g id="sharethis">
            <g id="Group" transform="translate(45.000000, 25.000000)">
                <path d="M13.3754107,12.0719351 C14.5345028,12.1046875 15.2905799,11.5457933 15.5249268,10.5836538 C15.748173,9.6671875 15.2603615,8.7624399 14.3488754,8.40366587 C13.3701687,8.01875 12.2576377,8.31322115 11.8950167,9.28347356 C11.537946,10.2393029 10.8641987,10.6966346 10.0242501,11.1100962 C8.83524797,11.6954327 7.66042998,12.3099159 6.50226296,12.9511418 C5.80939786,13.3351563 5.18930364,13.5926683 4.35953062,13.1999399 C3.50108094,12.7936899 2.64602313,13.1701923 2.25287537,13.9204928 C1.96672548,14.4661659 1.90042998,15.2795673 2.0891409,15.8655048 C2.36018158,16.70625 3.25995032,17.1581731 4.08478972,16.8459736 C5.39929079,16.3483774 6.32866124,16.9466346 7.34899529,17.5058293 C8.42051563,18.0935697 9.54445567,18.5941707 10.5919246,19.2185697 C11.0328668,19.4814904 11.5077276,19.9063702 11.6683786,20.3585938 C12.1235049,21.6392428 13.3362501,21.8940505 14.25637,21.6299279 C15.2060916,21.3567909 15.7540317,20.3246394 15.4987169,19.3612981 C15.2020831,18.2423077 14.3386998,17.7888822 13.0087812,17.9826923 C12.5237448,18.0533053 11.9384942,18.1458534 11.5351709,17.9553486 C9.87654989,17.1713942 8.27281542,16.2786659 6.6441045,15.4340144 C5.92626296,15.0617188 6.23122227,14.7684495 6.71780043,14.5133413 C7.75540214,13.9685697 8.80379615,13.4430288 9.84756488,12.9090745 C10.9937062,12.3225361 12.0356248,11.3009014 13.3754107,12.0719351 M8.79423726,23.7528245 C6.48407024,23.752524 4.17390321,23.7657452 1.86404454,23.7477163 C0.414485653,23.7365986 0.0167126338,23.3688101 0.011779015,21.9832933 C-0.00394689507,17.3309495 -0.00394689507,12.6786058 0.011779015,8.02626202 C0.0164042827,6.68341346 0.385808994,6.30180288 1.7366955,6.29639423 C6.61357773,6.27626202 11.49046,6.27716346 16.3673422,6.29759615 C17.5285927,6.30240385 17.8181345,6.58635817 18.0053036,7.66418269 C18.0564899,7.9577524 18.0648154,8.2609375 18.0651238,8.55991587 C18.0685156,12.8621995 18.0774578,17.1644832 18.0623486,21.4664663 C18.0558732,23.3670072 17.6451495,23.7486178 15.7247383,23.7519231 C13.4145713,23.7558293 11.1044043,23.7528245 8.79423726,23.7528245" id="Fill-1" fill="#9ACA3E"></path>
                <path d="M108.885091,11.7685096 C108.8854,8.3156851 108.880774,4.86316106 108.890642,1.41033654 C108.891875,0.940985577 108.735849,0.355649038 109.54928,0.312079327 C110.24307,0.274819712 110.733965,0.32890625 110.710839,1.23665865 C110.658419,3.28683894 110.692646,5.33942308 110.708063,7.39110577 C110.709913,7.66364183 110.806119,7.9358774 110.858539,8.20811298 C111.072226,8.09092548 111.28468,7.97163462 111.499601,7.85655048 C114.483824,6.25739183 117.491481,6.2390625 120.394916,7.95540865 C121.876543,8.83100962 122.658522,10.3051683 122.693674,11.9947716 C122.764903,15.3959135 122.687815,18.8000601 122.749794,22.2018029 C122.765519,23.0629808 122.308235,23.2348558 121.655764,23.2784255 C120.875635,23.3304087 120.920346,22.7504808 120.919729,22.2450721 C120.915412,19.0927284 120.93638,15.9400841 120.906779,12.7880409 C120.883344,10.3132813 119.303969,8.67626202 116.776415,8.42475962 C113.551986,8.10354567 111.46229,9.23575721 110.840654,11.6792668 C110.719164,12.1558293 110.708988,12.6672476 110.706522,13.1627404 C110.692954,16.1149639 110.71238,19.067488 110.67507,22.0191106 C110.670136,22.3989183 110.512569,22.9614183 110.235053,23.1182692 C109.361802,23.6122596 108.895267,23.2522837 108.890642,22.1263822 C108.875532,18.6738582 108.885091,15.2210337 108.885091,11.7685096" id="Fill-4" fill="#9A9B9D"></path>
                <path d="M61.7050792,14.5045373 C60.7007794,14.7338041 59.5145525,14.8570012 58.4569079,15.2833834 C57.1476488,15.8113281 56.4239486,16.8669171 56.3850964,18.3323618 C56.350561,19.6430589 56.7541927,20.7353065 57.9657045,21.3425781 C60.0282655,22.3759315 62.1031606,22.2755709 64.0991178,21.1109075 C65.8557944,20.0856671 66.5662355,18.5925781 66.3926338,16.5832632 C66.3180128,15.7184796 65.9664925,15.2773738 65.1974647,15.1139123 C64.1065182,14.8825421 62.9986124,14.7259916 61.7050792,14.5045373 L61.7050792,14.5045373 Z M68.152394,17.1914363 C68.152394,18.7935998 68.1739786,20.3963642 68.14006,21.9979267 C68.1289593,22.5210637 68.4669122,23.273768 67.4169764,23.3236478 C66.4650964,23.3690204 66.2800857,22.859405 66.3565567,22.0979868 C66.3614904,22.048107 66.3624154,21.9973257 66.35594,21.9477464 C66.3247966,21.7022536 66.2908779,21.4576623 66.2578844,21.2121695 C66.0087366,21.359405 65.7293704,21.4735877 65.5153747,21.6592849 C63.1497045,23.7130709 60.4596488,23.9351262 57.6101756,22.9083834 C55.7465011,22.2365084 54.74806,20.8182392 54.633045,18.8990685 C54.5164882,16.9513522 55.3030921,15.3942608 57.036334,14.34378 C59.1802998,13.0445012 61.5271606,13.1033954 63.900848,13.3933594 C64.355666,13.4489483 64.8135675,13.5592248 65.2424839,13.7154748 C66.0170621,13.9970252 66.3408308,13.8624099 66.3750578,12.9675781 C66.4774304,10.2942007 65.0025867,8.63134014 62.2033747,8.40718149 C60.4374475,8.26595553 58.712531,8.45976562 57.0785782,9.15447716 C56.4702013,9.41319111 56.0434433,9.46397236 55.7212163,8.75694111 C55.3700043,7.98530649 56.0027409,7.88614784 56.4254904,7.71547476 C59.3338587,6.54089543 62.2820043,6.21186899 65.2020899,7.62713341 C67.0555889,8.52557091 68.0188779,10.094982 68.1209422,12.0850661 C68.2078972,13.7830829 68.1388266,15.4889123 68.1388266,17.1914363 L68.152394,17.1914363 Z" id="Fill-6" fill="#86878A"></path>
                <path d="M38.5299597,11.7756911 C38.5299597,8.32376803 38.5234844,4.87214543 38.5376685,1.42022236 C38.5395186,0.969801683 38.3289148,0.368239183 39.1620797,0.310246394 C39.8836214,0.260066106 40.3282638,0.377854567 40.3103794,1.24834736 C40.2693687,3.24834736 40.314388,5.25015024 40.3076043,7.25105168 C40.3051375,8.01006611 40.4540711,8.26307091 41.2625679,7.78771034 C43.4142424,6.52358774 45.7466107,6.50345553 48.0919298,7.12965745 C50.8060368,7.85381611 52.2383281,9.75736178 52.3175743,12.8589243 C52.3971289,15.9586839 52.3274415,19.0620493 52.3422424,22.1633113 C52.3453259,22.8030349 52.2278441,23.1921575 51.4236642,23.1960637 C50.5732317,23.2005709 50.5568891,22.7372296 50.5593559,22.1353666 C50.5707649,19.2339243 50.606842,16.33128 50.5386964,13.4313401 C50.5171118,12.5046575 50.3845208,11.5004507 49.9855143,10.6780349 C48.9392788,8.52208534 46.8665422,8.32016226 44.7352188,8.39678486 C42.8508848,8.46439303 41.316221,9.14438101 40.6005379,10.9595853 C40.3695829,11.5449219 40.3291889,12.2276142 40.3236385,12.8667368 C40.2965036,15.918119 40.3183966,18.9698017 40.3026707,22.0211839 C40.3005122,22.4773137 40.4960069,23.0614483 39.6986107,23.1753305 C38.8333773,23.2985276 38.539827,23.0881911 38.5358184,22.1308594 C38.5216343,18.6792368 38.5302681,15.2273137 38.5299597,11.7756911" id="Fill-8" fill="#86878A"></path>
                <path d="M88.2999366,13.5573017 C89.8383006,13.5573017 91.376973,13.5588041 92.915337,13.5564002 C93.3488788,13.5554988 93.7340094,13.5551983 93.6103606,12.911869 C93.1250158,10.3902344 91.5684591,8.43620793 88.9252728,8.35628005 C85.8038338,8.26192909 83.5220351,9.79287861 82.9756368,12.4497296 C82.8331786,13.1423377 82.8917653,13.6089844 83.8387118,13.5732272 C85.3240394,13.5170373 86.8127589,13.5582031 88.2999366,13.5573017 M89.4167846,15.0215445 C87.8250758,15.0221454 86.2330587,15.0059195 84.6416582,15.0266526 C83.1769901,15.0458834 82.7224805,15.5690204 82.8772728,16.9845853 C83.2346518,20.2547175 86.6422407,22.5579026 90.2336069,21.8767127 C91.2252642,21.6889123 92.1974955,21.3085036 93.1157653,20.8869291 C93.6399623,20.6459435 93.9449216,20.3989483 94.326352,21.0603065 C94.6972985,21.7036358 94.3525619,21.9761719 93.8727675,22.2273738 C91.0411786,23.7108474 88.1152343,24.0002103 85.1609216,22.66247 C82.2309687,21.3355469 81.0580009,18.8163161 80.8828574,15.8679988 C80.69723,12.7423978 81.4640994,9.87310697 84.2922964,7.95603966 C87.5740779,5.73218149 93.1512257,6.37070312 94.8687418,11.0603065 C95.2088531,11.9896935 95.3303435,12.9984075 95.5122707,13.9776743 C95.6519537,14.7315805 95.32726,15.0573017 94.499337,15.0347656 C92.8061807,14.9887921 91.110866,15.0209435 89.4167846,15.0215445" id="Fill-11" fill="#86878A"></path>
                <path d="M29.6585422,23.6383714 C27.7313473,23.5019531 25.9416771,23.1386719 24.2694887,22.2798978 C23.8726407,22.0764724 23.3638612,21.9211238 23.7530004,21.2901142 C24.0789276,20.7609675 24.3425679,20.4872296 25.0718184,20.8526142 C27.184024,21.9118089 29.4245036,22.3186599 31.7787649,21.7056791 C32.0741653,21.6290565 32.3778912,21.5509315 32.6464651,21.4154147 C33.62363,20.9214243 34.2292317,20.1852464 34.2748677,19.0569411 C34.3205036,17.9310397 33.6375058,17.2633714 32.7331118,16.8402945 C31.8623281,16.4334435 30.9042809,16.2026743 29.9816942,15.901893 C28.6702767,15.4746094 27.3156899,15.1452825 26.0533002,14.6092248 C24.1920925,13.8183594 23.307433,12.417518 23.5189619,10.7246094 C23.7456,8.91060697 24.8165036,7.75465745 26.6111075,7.17773438 C29.2919126,6.31595553 31.8762039,6.81926082 34.4515529,7.60351563 C35.1364009,7.81204928 35.2683752,8.21228966 35.0078184,8.87755409 C34.723827,9.60351563 34.3371546,9.44095553 33.8212831,9.1882512 C32.0078698,8.30003005 30.0606321,8.26126803 28.1004437,8.42352764 C27.5999897,8.46469351 27.069934,8.59480168 26.6311503,8.82466947 C25.7785593,9.27148438 25.2306193,9.93434495 25.2229105,10.9761118 C25.2155101,11.9637921 25.6743366,12.6521935 26.5349448,12.9914363 C27.7162381,13.456881 28.9653687,13.7549579 30.1716385,14.1636118 C31.4707221,14.6041166 32.8043409,14.9902344 34.0315786,15.5803786 C35.5236899,16.2979267 36.0845807,17.6768329 35.9757328,19.2204026 C35.8585593,20.8814603 35.0109019,22.2228065 33.3667734,22.8096454 C32.1854801,23.2315204 30.8984223,23.3721454 29.6585422,23.6383714" id="Fill-13" fill="#86878A"></path>
                <path d="M137.517163,23.6398437 C135.64393,23.5307692 133.904212,23.1734976 132.27396,22.3640024 C131.865703,22.1611779 131.197814,22.065024 131.560743,21.3135216 C131.88297,20.6464543 132.326996,20.6515625 132.939998,20.9409255 C134.535099,21.6933293 136.235039,22.049399 138.003741,21.9421274 C138.760743,21.8958534 139.534705,21.7519231 140.251313,21.5118389 C141.368778,21.1377404 142.045609,20.2780649 142.088778,19.1473558 C142.130097,18.0728365 141.547005,17.1936298 140.48936,16.8030048 C139.249172,16.3450721 137.947313,16.0481971 136.697566,15.611899 C135.451827,15.1771034 134.202696,14.7257813 133.016469,14.159375 C130.390859,12.9048678 131.129052,8.65276442 133.240949,7.64254808 C135.656881,6.48719952 138.075279,6.56021635 140.569531,7.11340144 C141.11778,7.23479567 141.66572,7.38894231 142.183442,7.59927885 C142.6176,7.77566106 143.245711,7.87061298 142.919784,8.62782452 C142.652135,9.24891827 142.303082,9.48689904 141.616384,9.17680288 C139.893009,8.39885817 138.056469,8.24020433 136.198345,8.42079327 C135.50548,8.48810096 134.770988,8.6734976 134.168778,9.00192308 C132.497514,9.91358173 132.531741,12.1879207 134.267758,12.9727764 C135.462311,13.5124399 136.795621,13.7561298 138.057703,14.1596755 C139.173934,14.5166466 140.329634,14.8084135 141.374636,15.3132212 C143.031716,16.1137019 143.888007,17.4373197 143.713788,19.3300481 C143.555296,21.0481971 142.724906,22.2939904 141.071219,22.8564904 C139.931861,23.2441106 138.704932,23.3871394 137.517163,23.6398437" id="Fill-15" fill="#9A9B9D"></path>
                <path d="M99.3406355,11.2775841 C99.3406355,8.67692308 99.3390938,6.07596154 99.341869,3.47530048 C99.3424857,2.92932692 99.2496719,2.31694712 100.062177,2.21628606 C100.692755,2.13816106 101.186117,2.21478365 101.155899,3.03479567 C101.120439,3.98401442 101.163916,4.93533654 101.149115,5.88545673 C101.140173,6.45637019 101.398571,6.69405048 101.979813,6.68533654 C103.057501,6.66941106 104.135496,6.68984375 105.213184,6.68112981 C105.781783,6.6766226 106.251402,6.77788462 106.285012,7.45606971 C106.323248,8.22770433 105.816935,8.35330529 105.179882,8.3436899 C104.409929,8.33227163 103.639051,8.32235577 102.870023,8.34699519 C101.567548,8.38816106 101.169775,8.72530048 101.159291,9.93563702 C101.132773,12.9864183 101.098546,16.0387019 101.171008,19.0879808 C101.225895,21.3995793 102.738666,22.3914663 105.020464,21.7532452 C105.217809,21.6982572 105.42903,21.6691106 105.607873,21.5792668 C106.048815,21.357512 106.46694,21.3683293 106.568387,21.8785457 C106.632524,22.2015625 106.547111,22.7271034 106.318623,22.9037861 C104.2058,24.5375 100.270931,23.2337139 99.6270938,20.6952524 C99.4451666,19.9777043 99.3634535,19.2204928 99.3532779,18.4798077 C99.3196677,16.0792668 99.3406355,13.6784255 99.3406355,11.2775841" id="Fill-17" fill="#9A9B9D"></path>
                <path d="M71.6349739,14.9074219 C71.6349739,12.6604267 71.6229482,10.4134315 71.6436077,8.16673678 C71.648233,7.65621995 71.4021687,6.96721755 72.1594792,6.76890024 C72.7644642,6.61024639 73.4320445,6.57929687 73.4718218,7.51559495 C73.4730552,7.54894832 73.9577833,7.62707332 74.1918218,7.57569111 C75.3339546,7.32629207 76.4551195,6.96030649 77.6080445,6.79504207 C78.3450039,6.68957332 79.1238989,6.86595553 79.8839846,6.90772236 C80.5561901,6.94468149 80.5444728,7.39960937 80.5201131,7.8695613 C80.4883529,8.48254207 80.03446,8.35634014 79.6308283,8.38007812 C78.3622715,8.45429687 77.051779,8.3866887 75.8368754,8.68326322 C73.7370039,9.19558293 73.4086099,9.76048678 73.4076848,11.8692608 C73.4055263,15.2646935 73.4021345,18.6601262 73.4107683,22.0552584 C73.4126184,22.6976863 73.4255692,23.2316406 72.4761559,23.1964844 C71.6220231,23.1646334 71.6309653,22.679357 71.6325071,22.0976262 C71.6389824,19.7006911 71.6352822,17.3040565 71.6349739,14.9074219" id="Fill-19" fill="#86878A"></path>
                <path d="M126.153035,15.2008714 C126.153035,12.9039964 126.167527,10.6074219 126.144401,8.31114784 C126.137,7.61493389 126.24924,7.18524639 127.13205,7.20147236 C127.997283,7.21739784 127.971073,7.71439303 127.970765,8.29221755 C127.965831,12.9352464 127.93993,17.5788762 127.992349,22.2213041 C128.002217,23.1035156 127.508546,23.2351262 126.88136,23.2783954 C126.110174,23.3315805 126.154576,22.7453425 126.15396,22.2405349 C126.151493,19.89378 126.153035,17.5473257 126.153035,15.2008714" id="Fill-21" fill="#9A9B9D"></path>
                <path d="M128.528911,3.08067909 C128.573314,3.86162861 127.923926,4.50766226 127.08922,4.51367187 C126.319884,4.51878005 125.689305,3.95958534 125.644286,3.23212139 C125.599884,2.5226863 126.187293,1.8757512 126.934736,1.81054687 C127.778385,1.73722957 128.484509,2.29972957 128.528911,3.08067909" id="Fill-23" fill="#9ACA3E"></path>
            </g>
        </g>
    </g>
</svg>