<?xml version="1.0" encoding="UTF-8"?>
<svg width="232px" height="80px" viewBox="0 0 232 80" version="1.1" xmlns="http://www.w3.org/2000/svg" xmlns:xlink="http://www.w3.org/1999/xlink">
    <!-- Generator: Sketch 44.1 (41455) - http://www.bohemiancoding.com/sketch -->
    <title>womply</title>
    <desc>Created with Sketch.</desc>
    <defs></defs>
    <g id="Page-1" stroke="none" stroke-width="1" fill="none" fill-rule="evenodd">
        <g id="womply" fill="#247FFF">
            <g id="Group" transform="translate(55.000000, 30.000000)">
                <path d="M27.0807671,0.346506024 C26.8791606,1.19686747 26.6793213,2.03815261 26.4802851,2.87959839 C25.1771928,8.38919679 23.8730562,13.8985141 22.5761084,19.4095181 C22.5296024,19.6071084 22.4634578,19.6707631 22.2532972,19.6696386 C20.409241,19.6595181 18.5651446,19.6617671 16.7210482,19.6673092 C16.5608876,19.6677912 16.4905261,19.6317671 16.4503253,19.4634137 C15.4880763,15.436506 14.519,11.4112851 13.551008,7.38578313 C13.5360683,7.3235743 13.5194819,7.26180723 13.4867912,7.13369478 C13.3590402,7.66369478 13.2449438,8.13208835 13.1332972,8.60104418 C12.2697631,12.2291165 11.4058273,15.8571486 10.5467108,19.4863052 C10.5138594,19.6250602 10.4608474,19.6674699 10.3184378,19.6670683 C8.46153012,19.6620884 6.60458233,19.6623695 4.74763454,19.6665462 C4.61008434,19.6668675 4.55136948,19.6344578 4.51711245,19.4893173 C3.02534538,13.1669076 1.52827711,6.84570281 0.032373494,0.524257028 C0.0192811245,0.468995984 0.0134578313,0.412008032 4.01606417e-06,0.329839357 L0.221971888,0.329839357 C1.6741004,0.329839357 3.12626908,0.333694779 4.57835743,0.325140562 C4.76687149,0.324016064 4.83743373,0.375220884 4.8787992,0.562811245 C5.86201205,5.01959839 6.85241365,9.47481928 7.84161044,13.9303213 C7.84570683,13.9489157 7.85153012,13.9671486 7.87325703,14.0464659 C8.0005261,13.5168675 8.11538554,13.0418474 8.22875904,12.566506 C9.18478313,8.55787149 10.14149,4.54943775 11.0927349,0.539718876 C11.1304056,0.380883534 11.1860281,0.324658635 11.3563896,0.325542169 C12.8470321,0.333012048 14.337755,0.332088353 15.8284378,0.326425703 C15.9787992,0.325823293 16.0343012,0.369437751 16.0702851,0.518072289 C17.1413695,4.9413253 18.2181165,9.36313253 19.2940602,13.7851807 C19.3092008,13.8473092 19.3257871,13.9090763 19.3610884,14.0465462 C19.4375141,13.7107229 19.5000843,13.4440562 19.5587992,13.1765863 C20.4863092,8.95068273 21.4127751,4.72453815 22.3460281,0.499919679 C22.3606064,0.433935743 22.4573936,0.337389558 22.5163092,0.337068273 C24.0005261,0.328032129 25.4847831,0.329959839 26.9690402,0.33064257 C26.9999639,0.330682731 27.0308876,0.339156627 27.0807671,0.346506024" id="Fill-1"></path>
                <path d="M49.4701084,19.6410884 C49.5699478,18.8999639 49.6686627,18.1625341 49.7688233,17.4252651 C50.1482209,14.6319719 50.528502,11.8388394 50.9076185,9.04550602 C51.2953695,6.18851807 51.6813936,3.33132932 52.0756506,0.4752249 C52.0832008,0.42024498 52.1833614,0.336188755 52.2405502,0.335947791 C54.0718755,0.328558233 55.903241,0.328036145 57.7344859,0.337393574 C57.7994659,0.337714859 57.9009116,0.437514056 57.9233213,0.510124498 C59.2254498,4.72353815 60.5210321,8.939 61.8174177,13.1542209 C61.8359719,13.2144618 61.8575382,13.2738193 61.8973373,13.3919719 C61.9335622,13.2789197 61.9547671,13.2178353 61.9727189,13.1557871 C63.194245,8.9450241 64.4164137,4.73450201 65.6329598,0.522333333 C65.6769357,0.370124498 65.7386627,0.325465863 65.8955301,0.325987952 C67.7011124,0.332052209 69.5067349,0.331610442 71.3123574,0.326630522 C71.4643655,0.326228916 71.5186225,0.364903614 71.5398675,0.523056225 C71.9929598,3.89602811 72.453,7.26807631 72.9111526,10.6403655 C73.3122369,13.5927349 73.7126787,16.5451847 74.1128795,19.4976747 C74.1188635,19.5418112 74.1183012,19.5867912 74.1225582,19.6626546 L73.9353695,19.6626546 C72.4638835,19.6626546 70.9923574,19.6599237 69.5209518,19.66651 C69.3615542,19.6672329 69.3193052,19.6138996 69.2988233,19.4653855 C68.8176185,15.9731365 68.3311928,12.4816506 67.846012,8.99004418 C67.7825582,8.53361847 67.7206305,8.07703213 67.6470161,7.54040562 C67.5921165,7.69928112 67.5605904,7.78229317 67.5345663,7.86699197 C66.3466546,11.7327349 65.1580201,15.5982771 63.9758112,19.465747 C63.9265743,19.6268715 63.8545663,19.6671526 63.6950482,19.6663092 C62.4292249,19.6597229 61.1632811,19.6575542 59.8975382,19.6677952 C59.6918353,19.6694418 59.6038032,19.6158273 59.5413133,19.4111687 C58.3563333,15.5311285 57.1621566,11.6538996 55.9698273,7.77610843 C55.9513936,7.71610843 55.9313534,7.65663052 55.890992,7.53177108 C55.779506,8.34630924 55.6768554,9.0938996 55.5749277,9.84157028 C55.1819558,12.7238193 54.7891044,15.6060683 54.3964538,18.4883173 C54.35051,18.8255462 54.3120763,19.1640201 54.2546867,19.499241 C54.244245,19.5602851 54.158743,19.6554659 54.107498,19.655747 C52.5846867,19.6634578 51.0617952,19.6612088 49.5389438,19.6600843 C49.5268956,19.6600843 49.5148474,19.6536988 49.4701084,19.6410884" id="Fill-3"></path>
                <path d="M43.1140562,9.98676707 C42.9997992,9.32524096 42.9395984,8.64881526 42.7614859,8.00495984 C42.1721285,5.8752008 40.5786345,4.5889759 38.338755,4.37459839 C36.3687952,4.18604418 34.4732129,5.2225502 33.5811647,7.04331325 C32.7266265,8.78753012 32.6712851,10.6086546 33.3459036,12.4130321 C34.7880723,16.2699799 39.4378313,16.4119478 41.5246988,14.1839157 C42.6295984,13.0042771 43.0229317,11.5699799 43.1140562,9.98676707 M48.0451807,9.9987751 C48.044498,15.7138755 43.741245,19.985241 37.9834538,19.9860442 C32.2201205,19.9868876 27.9535743,15.7301004 27.956506,9.98206827 C27.9593976,4.25439759 32.2392369,-0.00331325301 37.9903614,2.00803212e-05 C43.7414056,0.00335341365 48.0459438,4.28383534 48.0451807,9.9987751" id="Fill-5"></path>
                <path d="M82.8634859,10.093502 C82.8649719,10.1076386 82.866498,10.1218153 82.8679839,10.1359518 C83.4030442,10.0842651 83.9456145,10.0726185 84.4715582,9.97297992 C85.7709558,9.72671486 86.5302329,8.8617751 86.607502,7.60434538 C86.6985863,6.12229719 86.0858956,5.13354217 84.8020402,4.71302008 C83.8689478,4.40739759 82.914008,4.47306024 81.9604739,4.58249799 C81.9154137,4.58767871 81.8475823,4.68992771 81.8473815,4.74715663 C81.8413173,6.45466667 81.8408755,8.16221687 81.8490281,9.86968675 C81.8493092,9.92896386 81.9413173,10.032739 81.9991888,10.039245 C82.2856948,10.0714538 82.5750924,10.0779598 82.8634859,10.093502 M81.8467791,14.177759 L81.8467791,19.8112932 L77.0103534,19.8112932 L77.0103534,19.6077992 C77.0103534,13.3573976 77.0105542,7.10703614 77.008988,0.856674699 C77.0089478,0.733823293 77.0032851,0.643502008 77.1718795,0.620690763 C79.5173414,0.30362249 81.8698313,0.0849879518 84.2389076,0.19864257 C85.6574618,0.266714859 87.0262972,0.574626506 88.2787871,1.27739759 C90.2091084,2.36053012 91.1868996,4.0628996 91.4244096,6.22113253 C91.5738072,7.57856225 91.4887068,8.91896386 90.9545301,10.1963133 C90.1503534,12.119245 88.6344498,13.213502 86.6962972,13.8008916 C85.1646908,14.2650683 83.5954538,14.2768353 82.017743,14.1781606 C81.9676627,14.1750281 81.9171807,14.177759 81.8467791,14.177759" id="Fill-7"></path>
                <path d="M115.64708,19.6576185 L110.848365,19.6576185 L110.848365,19.413241 C110.848365,17.2221165 110.850052,15.030992 110.844028,12.8399478 C110.843707,12.712759 110.806277,12.5717952 110.744068,12.460751 C108.522141,8.49352209 106.295193,4.52914458 104.069129,0.564204819 C104.032261,0.498542169 103.998124,0.431353414 103.950976,0.342759036 C104.032783,0.337538153 104.093185,0.330349398 104.153586,0.330309237 C105.79206,0.329706827 107.430614,0.327096386 109.069048,0.337056225 C109.161819,0.337618474 109.296036,0.420028112 109.340173,0.502317269 C110.64202,2.9303494 111.934831,5.3632008 113.22941,7.79516867 C113.26206,7.8565743 113.297964,7.91633333 113.347924,8.00420482 C113.530454,7.64436546 113.700815,7.30886345 113.870855,6.9732008 C114.964952,4.81360241 116.057884,2.65344177 117.157602,0.49673494 C117.194992,0.423401606 117.299932,0.337216867 117.373827,0.336855422 C119.063707,0.327859438 120.753627,0.329987952 122.443546,0.330630522 C122.474189,0.330630522 122.504871,0.338261044 122.563104,0.346052209 C122.518486,0.437819277 122.484671,0.517779116 122.442301,0.592959839 C120.211699,4.54793976 117.979651,8.50215663 115.752663,12.4591446 C115.690333,12.5699076 115.651779,12.7104297 115.651418,12.8371767 C115.645394,15.028261 115.64708,17.2194257 115.64708,19.41051 L115.64708,19.6576185 Z" id="Fill-9"></path>
                <path d="M98.9152329,0.329839357 L98.9152329,0.610281124 C98.9152329,5.45409639 98.9167992,10.2979518 98.9100522,15.1417269 C98.9097711,15.3551406 98.9640281,15.4045382 99.173988,15.4037751 C101.448084,15.3957028 103.722261,15.4019277 105.996398,15.3935743 C106.212141,15.3927711 106.259249,15.4535341 106.257602,15.6613253 C106.247482,16.933253 106.250896,18.205261 106.254992,19.4772289 C106.255434,19.6098795 106.23451,19.6674297 106.079972,19.6672289 C102.129129,19.6628112 98.178245,19.6637751 94.2274016,19.663494 C94.1895703,19.663494 94.151739,19.6597992 94.0855944,19.6563855 L94.0855944,19.4487149 C94.0855944,13.1466265 94.0862369,6.84453815 94.0821406,0.542449799 C94.0820602,0.380441767 94.111257,0.324337349 94.2891687,0.325301205 C95.7602129,0.333333333 97.2313775,0.329839357 98.702502,0.329839357 L98.9152329,0.329839357 Z" id="Fill-11"></path>
            </g>
        </g>
    </g>
</svg>