<?xml version="1.0" encoding="UTF-8"?>
<svg width="232px" height="80px" viewBox="0 0 232 80" version="1.1" xmlns="http://www.w3.org/2000/svg" xmlns:xlink="http://www.w3.org/1999/xlink">
    <!-- Generator: Sketch 44.1 (41455) - http://www.bohemiancoding.com/sketch -->
    <title>alibaba</title>
    <desc>Created with Sketch.</desc>
    <defs></defs>
    <g id="Page-1" stroke="none" stroke-width="1" fill="none" fill-rule="evenodd">
        <g id="alibaba">
            <g id="Group" transform="translate(42.000000, 21.000000)">
                <polygon id="Fill-1" fill="#EC6C00" points="90.5477364 31.8467824 92.6649079 31.8467824 92.6649079 26.358466 90.5477364 26.358466"></polygon>
                <polygon id="Fill-2" fill="#EC6C00" points="90.4910042 25.4906634 92.7210167 25.4906634 92.7210167 23.9880675 90.4910042 23.9880675"></polygon>
                <polygon id="Fill-3" fill="#EC6C00" points="87.115749 31.8467824 89.174318 31.8467824 89.174318 23.9880675 87.115749 23.9880675"></polygon>
                <path d="M141.583665,31.8467824 L141.583665,26.358466 L142.384774,26.358466 L142.384774,27.1645526 C142.503226,26.9712178 142.784393,26.6462641 143.071795,26.4730814 C143.35795,26.2986392 143.656573,26.2249579 144.055569,26.2249579 C144.457059,26.2249579 144.788724,26.2986392 145.074879,26.4730814 C145.313029,26.6103681 145.473251,26.8773843 145.589209,27.1645526 C146.045561,26.5297594 146.61787,26.242591 147.306762,26.242591 C147.820469,26.242591 148.218841,26.358466 148.563598,26.7042016 C148.848506,26.9932592 148.963841,27.4561293 148.963841,28.0909225 L148.963841,31.8467824 L148.048644,31.8467824 L148.048644,28.3799801 C148.048644,28.0323553 148.038669,27.7773044 147.981314,27.6028622 C147.927699,27.4265308 147.761866,27.238234 147.632816,27.1828155 C147.483192,27.1072449 147.306762,27.0499372 147.076092,27.0499372 C146.675849,27.0499372 146.326728,27.1204698 146.075485,27.3963025 C145.844816,27.6859899 145.759406,27.8950686 145.759406,28.668408 L145.759406,31.8467824 L144.843586,31.8467824 L144.843586,28.2634754 C144.843586,27.7262942 144.763163,27.5329594 144.616657,27.3408841 C144.457059,27.1462897 144.215167,27.0499372 143.871657,27.0499372 C143.584255,27.0499372 143.314933,27.1028366 143.119176,27.2489398 C142.947732,27.3629255 142.74387,27.6097895 142.642251,27.8673594 C142.52754,28.1016283 142.499485,28.3409353 142.499485,29.0122543 L142.499485,31.8467824 L141.583665,31.8467824 Z" id="Fill-4" fill="#EC6C00"></path>
                <path d="M133.630681,31.1533589 C133.402505,31.3838493 132.77284,32.0217913 131.629468,32.0217913 C130.141338,32.0217913 128.653832,30.8076234 128.653832,29.0732776 C128.653832,27.2809944 130.083359,26.0680859 131.629468,26.0680859 C132.712991,26.0680859 133.402505,26.7041386 133.630681,26.9339992 C133.51784,27.1644896 133.34515,27.6859269 133.230438,27.8584798 C132.712991,27.1644896 132.029087,26.9931962 131.629468,26.9931962 C130.486095,26.9931962 129.566535,27.9756143 129.566535,29.0732776 C129.566535,30.1709409 130.486095,31.0954215 131.629468,31.0954215 C132.199284,31.0954215 132.830196,30.8076234 133.230438,30.1709409 C133.402505,30.6898591 133.572702,30.9814358 133.630681,31.1533589" id="Fill-6" fill="#EC6C00"></path>
                <polygon id="Fill-8" fill="#EC6C00" points="126.670573 31.8820487 127.543377 31.8820487 127.543377 31.0022807 126.670573 31.0022807"></polygon>
                <path d="M80.0186732,28.7244562 L81.5068029,25.7198942 L82.8241126,28.7244562 L80.0186732,28.7244562 Z M82.9388238,23.9880675 L80.3066983,23.9880675 L76.2437987,31.8467824 L78.589146,31.8467824 L79.2774138,30.286249 L83.5672423,30.286249 L84.2542632,31.8467824 L86.7716774,31.8467824 L82.9388238,23.9880675 Z" id="Fill-10" fill="#EC6C00"></path>
                <path d="M98.7288962,30.286249 C98.5000971,30.5753067 98.099231,30.6899221 97.6435029,30.6899221 C97.1291724,30.6899221 96.7831682,30.5753067 96.4995071,30.286249 C96.2669674,29.9984509 96.0973941,29.5922588 96.0973941,29.0733406 C96.0973941,28.493336 96.2669674,28.0323553 96.4995071,27.7420381 C96.7551138,27.4252713 97.1254318,27.2961715 97.6416326,27.2961715 C98.099231,27.2961715 98.5000971,27.4561293 98.7288962,27.7420381 C99.0162979,28.0909225 99.1285155,28.4379176 99.1285155,28.9599846 C99.1285155,29.5355809 99.0162979,29.9405134 98.7288962,30.286249 M100.560536,26.9932592 C100.001319,26.42522 99.4495824,26.1909511 98.5586996,26.1878023 C98.216436,26.1840238 97.801231,26.2589647 97.5674444,26.3294973 C97.0400218,26.4863063 96.4995071,26.818817 96.1547498,27.1645526 L96.1547498,23.9880675 L94.0375782,23.9880675 L94.0375782,30.6351334 L94.0375782,31.2113594 C94.0375782,31.3839123 94.0375782,31.6156622 93.980846,31.8467824 L96.0973941,31.8467824 C96.126072,31.7435025 96.1497623,31.6087349 96.1547498,31.4437391 L96.1547498,30.8656238 C96.4022519,31.2075809 96.7719464,31.5432404 97.3199423,31.7995507 C97.6541013,31.9431349 98.2126954,32.0218543 98.5000971,32.0218543 C99.3585615,32.0218543 100.044959,31.7309074 100.560536,31.2113594 C101.016888,30.6899221 101.246934,29.9984509 101.246934,29.0733406 C101.246934,28.2049082 101.09357,27.6148276 100.560536,26.9932592" id="Fill-11" fill="#EC6C00"></path>
                <path d="M114.74995,30.286249 C114.521151,30.5753067 114.120908,30.6899221 113.664556,30.6899221 C113.149603,30.6899221 112.804845,30.5753067 112.51869,30.286249 C112.288644,29.9984509 112.119695,29.5922588 112.119695,29.0733406 C112.119695,28.493336 112.288644,28.0323553 112.51869,27.7420381 C112.776167,27.4252713 113.147109,27.2961715 113.662063,27.2961715 C114.118414,27.2961715 114.521151,27.4561293 114.74995,27.7420381 C115.037975,28.0909225 115.151439,28.4379176 115.151439,28.9599846 C115.151439,29.5355809 115.037975,29.9405134 114.74995,30.286249 M116.580967,26.9932592 C116.021749,26.42522 115.471883,26.1909511 114.582247,26.1878023 C114.238736,26.1840238 113.821661,26.2589647 113.587874,26.3294973 C113.062946,26.4863063 112.51869,26.818817 112.175803,27.1645526 L112.175803,23.9880675 L110.058008,23.9880675 L110.058008,30.6351334 L110.058008,31.2113594 C110.058008,31.3839123 110.058008,31.6156622 110.001276,31.8467824 L112.119695,31.8467824 C112.146502,31.7435025 112.170192,31.6087349 112.175803,31.4437391 L112.175803,30.8656238 C112.422682,31.2075809 112.793,31.5432404 113.341619,31.7995507 C113.675155,31.9431349 114.234372,32.0218543 114.521151,32.0218543 C115.380238,32.0218543 116.065389,31.7309074 116.580967,31.2113594 C117.039188,30.6899221 117.267987,29.9984509 117.267987,29.0733406 C117.267987,28.2049082 117.114,27.6148276 116.580967,26.9932592" id="Fill-12" fill="#EC6C00"></path>
                <path d="M106.625273,29.5356438 C106.625273,29.9405764 106.509938,30.286312 106.281762,30.4601244 C106.05234,30.6351964 105.850972,30.7454035 105.506214,30.803341 C105.423298,30.8228634 105.278662,30.8360883 105.133403,30.8360883 C104.845377,30.8360883 104.600369,30.7894864 104.422691,30.674871 C104.269327,30.5665531 104.165214,30.402187 104.165214,30.1710668 C104.165214,29.8820092 104.341022,29.6634841 104.668946,29.5677614 C104.84226,29.5161214 105.081034,29.465741 105.39462,29.437402 C105.689503,29.4128416 106.05234,29.4197689 106.509938,29.4197689 L106.625273,29.4197689 L106.625273,29.5356438 Z M108.685712,31.5577877 L108.685712,31.1534849 L108.685712,28.3221056 C108.685712,27.6262261 108.39831,27.1085674 107.940089,26.7609425 C107.483737,26.4152069 106.681382,26.242654 105.652097,26.242654 L105.423298,26.242654 C104.451369,26.242654 103.695771,26.3717538 103.248771,26.6463271 C102.733817,26.9341252 102.447662,27.3963655 102.334821,27.9757403 L104.451369,27.9757403 C104.509348,27.7421011 104.858469,27.335909 105.423298,27.340947 L105.652097,27.340947 C105.996854,27.340947 106.216302,27.4221855 106.396474,27.5714374 C106.558566,27.7087241 106.625273,27.9757403 106.625273,28.2635384 L106.625273,28.3221056 L106.625273,28.3800431 L105.652097,28.3800431 L105.423298,28.3800431 C104.678921,28.3800431 104.107235,28.4379806 103.766218,28.493399 C103.364105,28.5519663 103.091666,28.6514676 102.847281,28.7862352 C102.56175,28.9594179 102.374721,29.1754239 102.22011,29.4197689 C102.048043,29.707567 101.990687,29.9985139 101.990687,30.3436197 C101.990687,30.8656868 102.162754,31.2706194 102.56175,31.5577877 C102.962616,31.8468453 103.476946,32.0219173 104.165214,32.0219173 C104.622189,32.0219173 105.023055,31.9627203 105.423298,31.8468453 C105.893988,31.7076695 106.509938,31.3839753 106.681382,31.0363504 L106.681382,31.1534849 C106.681382,31.5092966 106.79734,31.7889079 106.854695,31.8468453 L108.798553,31.8468453 C108.741821,31.7889079 108.685712,31.6730329 108.685712,31.5577877 L108.685712,31.5577877 Z" id="Fill-13" fill="#EC6C00"></path>
                <path d="M122.671326,29.5356438 C122.671326,29.9405764 122.556615,30.286312 122.327815,30.4601244 C122.100263,30.6351964 121.897025,30.7454035 121.552891,30.803341 C121.471221,30.8228634 121.324715,30.8360883 121.178209,30.8360883 C120.891431,30.8360883 120.646422,30.7894864 120.468744,30.674871 C120.316627,30.5665531 120.211891,30.402187 120.211891,30.1710668 C120.211891,29.8820092 120.387075,29.6634841 120.715623,29.5677614 C120.888937,29.5161214 121.129581,29.465741 121.441297,29.437402 C121.736179,29.4128416 122.100263,29.4197689 122.556615,29.4197689 L122.671326,29.4197689 L122.671326,29.5356438 Z M124.733012,31.5577877 L124.733012,31.1534849 L124.733012,28.3221056 C124.733012,27.6262261 124.44561,27.1085674 123.988636,26.7609425 C123.528544,26.4152069 122.728058,26.242654 121.700021,26.242654 L121.471221,26.242654 C120.496799,26.242654 119.822246,26.3692348 119.297318,26.6463271 C118.781117,26.9341252 118.496209,27.3963655 118.381497,27.9757403 L120.496799,27.9757403 C120.554778,27.7421011 120.905769,27.335909 121.471221,27.340947 L121.700021,27.340947 C122.042908,27.340947 122.263602,27.4221855 122.443774,27.5714374 C122.606489,27.7087241 122.671326,27.9757403 122.671326,28.2635384 L122.671326,28.3221056 L122.671326,28.3800431 L121.700021,28.3800431 L121.471221,28.3800431 C120.726845,28.3800431 120.154535,28.4379806 119.813518,28.493399 C119.410782,28.5519663 119.137719,28.6514676 118.895205,28.7862352 C118.609673,28.9594179 118.423267,29.1754239 118.26741,29.4197689 C118.09659,29.707567 118.037987,29.9985139 118.037987,30.3436197 C118.037987,30.8656868 118.210054,31.2706194 118.609673,31.5577877 C119.011163,31.8468453 119.524246,32.0219173 120.211891,32.0219173 C120.669489,32.0219173 121.070355,31.9627203 121.471221,31.8468453 C121.940041,31.7076695 122.556615,31.3839753 122.728058,31.0363504 L122.728058,31.1534849 C122.728058,31.5092966 122.843393,31.7889079 122.900749,31.8468453 L124.846477,31.8468453 C124.789121,31.7889079 124.733012,31.6730329 124.733012,31.5577877 L124.733012,31.5577877 Z" id="Fill-14" fill="#EC6C00"></path>
                <path d="M137.348699,31.0952325 C136.207197,31.0952325 135.346862,30.1713817 135.346862,29.0730887 C135.346862,27.9168582 136.207197,26.9930073 137.348699,26.9930073 C138.435962,26.9930073 139.354276,27.9168582 139.354276,29.0730887 C139.354276,30.1713817 138.435962,31.0952325 137.348699,31.0952325 M137.348699,26.0678969 C135.747728,26.0678969 134.430418,27.3960506 134.430418,29.0730887 C134.430418,30.6896702 135.747728,32.0216024 137.348699,32.0216024 C138.950293,32.0216024 140.266356,30.6896702 140.266356,29.0730887 C140.266356,27.3960506 138.950293,26.0678969 137.348699,26.0678969" id="Fill-15" fill="#EC6C00"></path>
                <path d="M74.9064146,2.30792678 L74.9064146,4.66635992 L82.9792222,4.66635992 L82.9792222,19.0260375 L82.9792222,21.581584 C83.8807033,21.581584 85.8320423,20.6980375 85.8320423,18.8648202 L85.8320423,4.66635992 C86.4161971,4.66635992 86.8937452,2.95027706 86.8937452,2.30792678 L74.9064146,2.30792678 Z M78.2473812,15.7569784 L79.6787787,15.7569784 L79.6787787,8.41655202 L78.2473812,8.41655202 L78.2473812,15.7569784 Z M82.3314774,14.7921934 L82.3314774,6.16643676 L75.5946824,6.16643676 L75.5946824,17.9529347 L78.9362724,17.9529347 C79.4661887,17.9019245 80.1027117,17.6865482 80.6344983,17.3093249 C80.953695,17.0964676 81.2180297,16.8836104 81.4836113,16.6140752 C81.9592891,16.079413 82.3314774,15.4345437 82.3314774,14.7921934 L82.3314774,14.7921934 Z M71.7231762,8.68356821 C71.7231762,9.00537311 71.4575946,9.54129476 71.1396448,9.86309966 C71.0872766,9.91788836 70.9276782,10.0778462 70.9276782,10.0778462 C70.9008707,10.1017769 70.8740632,10.1313754 70.821695,10.1313754 L71.7231762,10.1313754 L71.7231762,15.7021897 L70.609105,15.7021897 L70.609105,4.66635992 L71.7231762,4.66635992 L71.7231762,8.68356821 Z M67.7986782,2.30792678 L67.7986782,21.581584 C69.123469,21.581584 70.6072347,20.364897 70.6072347,19.0260375 L70.6072347,18.0140209 L72.1919962,18.0140209 C73.2536992,17.9604918 74.4818582,16.4553769 74.4818582,15.7021897 L74.4818582,11.4173354 C74.4818582,10.6137678 73.5797536,10.024317 73.1533268,9.70251209 C73.5797536,9.32780776 74.4818582,8.68356821 74.4818582,7.88063036 L74.4818582,2.30792678 L67.7986782,2.30792678 Z" id="Fill-16" fill="#EC6C00"></path>
                <path d="M96.121895,6.99236068 L92.0795686,6.99236068 L92.0795686,4.48656482 L94.0739243,4.48656482 L96.121895,4.48656482 L96.121895,6.99236068 Z M92.0795686,11.6758499 L96.121895,11.6758499 L96.121895,9.17194335 L92.0795686,9.17194335 L92.0795686,11.6758499 Z M99.5202172,9.1713136 L100.975928,9.1713136 C101.191012,9.1713136 101.406096,9.1165249 101.621803,8.95341831 C101.892372,8.78779269 103.184744,7.15609702 103.34746,6.99236068 L99.5202172,6.99236068 L99.5202172,4.48656482 L103.671021,4.48656482 L103.671021,11.6758499 L99.5202172,11.6758499 L99.5202172,9.1713136 Z M99.5202172,19.3550846 L99.5202172,17.5583931 L105.182217,17.5583931 C105.997041,17.5583931 106.743912,16.1401844 107.175326,15.3800699 L99.5202172,15.3800699 L99.5202172,13.8541731 L103.777627,13.8541731 C104.990824,13.8541731 106.960242,12.1664292 107.013857,11.2942183 L107.013857,2.30824166 L88.7891,2.30824166 L88.7891,13.8541731 L96.121895,13.8541731 L96.121895,15.3800699 L88.7891,15.3800699 L88.7891,17.5583931 L96.121895,17.5583931 L96.121895,19.3550846 L88.5752632,19.3550846 L88.5752632,21.589456 L105.667246,21.589456 C106.370477,21.589456 107.013857,20.1725068 107.553125,19.3550846 L99.5202172,19.3550846 Z" id="Fill-17" fill="#EC6C00"></path>
                <path d="M113.004343,11.1807364 L117.043552,11.1807364 L117.043552,4.78935111 L113.004343,4.78935111 L113.004343,11.1807364 Z M120.37018,11.1807364 L124.217996,11.1807364 L124.217996,4.78935111 L120.37018,4.78935111 L120.37018,11.1807364 Z M112.976289,19.0898317 L112.976289,13.6607123 L124.626967,13.6607123 C125.681812,13.6607123 127.572678,11.8980276 127.625669,11.0151108 L127.625669,2.30811571 L109.540561,2.30811571 L109.540561,18.8971266 C109.540561,20.2202423 110.331071,21.5975168 111.803615,21.5975168 L125.60887,21.5975168 C126.64813,21.5975168 127.899979,19.9179598 128.116933,19.0898317 L112.976289,19.0898317 Z" id="Fill-18" fill="#EC6C00"></path>
                <path d="M133.849381,11.1807364 L137.887967,11.1807364 L137.887967,4.78935111 L133.849381,4.78935111 L133.849381,11.1807364 Z M141.216464,11.1807364 L145.063033,11.1807364 L145.063033,4.78935111 L141.216464,4.78935111 L141.216464,11.1807364 Z M133.82382,19.0898317 L133.82382,13.6607123 L145.471381,13.6607123 C146.527473,13.6607123 148.417715,11.8980276 148.472577,11.0151108 L148.472577,2.30811571 L130.385598,2.30811571 L130.385598,18.8971266 C130.385598,20.2202423 131.176732,21.5975168 132.648653,21.5975168 L146.453285,21.5975168 C147.493791,21.5975168 148.74564,19.9179598 148.963841,19.0898317 L133.82382,19.0898317 Z" id="Fill-19" fill="#EC6C00"></path>
                <path d="M8.15485105,32.8052698 C7.85747448,32.7725225 7.39738243,32.5067658 7.06883431,32.2403794 C3.94669205,29.1526897 7.95722343,25.5989812 12.5918092,23.5415711 L12.5918092,17.664066 C13.6753322,18.3618347 14.2675916,18.3939522 14.3006335,18.4940833 L17.8516962,14.9422641 L16.6659305,11.8873217 C27.0541607,8.26748896 31.2299013,6.873211 39.6767674,5.4442965 L38.1637004,4.01601175 L40.6299933,2.59024603 C46.3156837,4.48203058 51.6746962,4.98016693 50.7538887,9.79401552 C50.9833113,6.54070026 46.9740268,5.27804113 40.8606628,3.55251194 L39.6767674,4.28302795 L41.9441858,6.17418275 C31.8209138,7.93560798 25.6084243,9.92689386 18.2126628,12.5164472 L19.2319724,15.174014 L15.5163238,18.8599711 C16.1422485,19.0262264 22.6178259,21.2177745 29.3558678,16.4675311 C29.3558678,16.4675311 29.4880351,16.3699191 29.4880351,16.3365421 C29.2904075,16.0034016 28.8303155,15.6381436 28.2704745,15.1412667 C30.2436335,15.2728856 31.5247841,17.0317918 31.2947381,18.8599711 L30.3751774,18.8599711 C30.4406377,18.2610739 30.3084703,17.6319485 30.1108427,17.1980472 C24.8852444,21.0508893 18.8360937,21.6157797 13.6753322,19.78886 L13.6753322,24.3388411 C11.1778678,25.2337232 6.70786778,28.0247982 6.73966276,30.7151123 C6.9054954,32.009889 7.56134477,32.4733888 8.15485105,32.8052698" id="Fill-20" fill="#050101"></path>
                <path d="M29.2905946,31.6434974 C23.7027828,34.4994371 18.3425234,36.7904865 10.0926615,37.1223675 C-0.655911715,36.8880985 -2.33169414,29.6824398 2.76298368,22.1467893 C7.56090837,14.5424955 15.1892096,7.66871774 27.318059,3.38449326 C30.8348331,2.1249829 35.9949711,0.695438644 40.9917703,0.631203616 C48.1568623,0.563819812 55.1268205,2.82212188 54.666105,9.76265371 C54.4017703,15.0746386 46.809628,22.5800609 42.7997201,27.9562808 C41.0884021,30.317233 40.7941427,31.8425 43.7199042,31.7089919 C54.3388038,31.0124827 63.967695,27.2950379 72.9089418,23.441566 C66.8597912,27.5929121 35.6003393,43.2322522 35.4687954,32.5723863 C35.5018372,31.2108556 36.1265151,29.7844601 37.1458247,28.2573038 C38.131469,26.7301475 39.5123686,25.1349776 40.9250632,23.5089498 C43.0621845,21.0510153 48.3538665,15.17414 50.1293979,11.652549 C53.1212431,4.98029288 46.4156197,4.64652264 40.6295569,2.59037198 L38.163264,4.0161377 L39.676331,5.44442245 C31.2294649,6.87333695 27.0543477,8.26698516 16.6661176,11.8868179 L17.8512598,14.9417603 L14.3008205,18.4942093 C14.201695,18.3940782 13.6755192,18.3619607 12.5919962,17.6635622 L12.5919962,23.541697 C7.95678703,25.5991072 3.94687908,29.1528157 7.06839791,32.2405053 C7.39756946,32.5068918 7.85766151,32.7726484 8.15503808,32.8053957 C13.8413519,36.058711 29.3223895,31.6434974 29.2905946,31.6434974" id="Fill-21" fill="#EC6C00"></path>
                <path d="M67.2590364,33.9829749 L67.9155092,33.9829749 C68.0551577,33.9829749 68.1623879,33.9678608 68.2428105,33.9426706 C68.3207393,33.9118126 68.3805887,33.8614322 68.4198649,33.8022352 C68.4610113,33.7335919 68.4840782,33.6706163 68.4840782,33.5956755 C68.4840782,33.4823195 68.4404381,33.3922646 68.3643795,33.3204725 C68.2864506,33.2511994 68.1623879,33.2159331 67.9921912,33.2159331 L67.2590364,33.2159331 L67.2590364,33.9829749 Z M66.9485678,35.3035715 L66.9485678,32.9545847 L67.9790992,32.9545847 C68.1817142,32.9545847 68.3425594,32.9741071 68.4448021,33.0150412 C68.5563962,33.0597538 68.6386891,33.1315459 68.7041494,33.2411233 C68.7696096,33.3462924 68.8007812,33.4640566 68.8007812,33.5956755 C68.8007812,33.7606713 68.7452958,33.9023663 68.6393126,34.0182412 C68.5333293,34.1297079 68.3706138,34.1996107 68.1492958,34.2367663 C68.2322121,34.2758111 68.2908146,34.3117071 68.3332079,34.3507519 C68.4198649,34.4363986 68.5083921,34.5371595 68.5863209,34.6624808 L68.9890573,35.3035715 L68.603777,35.3035715 L68.3020364,34.8192898 C68.2110155,34.6719271 68.1355803,34.5686472 68.0769778,34.4930766 C68.0189987,34.4156167 67.967254,34.3671256 67.9211201,34.3362676 C67.8756096,34.3060393 67.8325929,34.2795896 67.782095,34.2701433 C67.7465594,34.265735 67.6923209,34.2581779 67.6118983,34.2581779 L67.2590364,34.2581779 L67.2590364,35.3035715 L66.9485678,35.3035715 Z" id="Fill-22" fill="#EC6C00"></path>
                <path d="M67.8921929,36.233531 C69.0405527,36.233531 69.976946,35.2888982 69.976946,34.1295189 C69.976946,32.9669909 69.0405527,32.0236176 67.8921929,32.0236176 C66.7425862,32.0236176 65.8068163,32.9669909 65.8068163,34.1295189 C65.8068163,35.2888982 66.7425862,36.233531 67.8921929,36.233531 M66.1316238,34.1295189 C66.1316238,33.1496199 66.920264,32.3523498 67.8921929,32.3523498 C68.8622515,32.3523498 69.6515151,33.1496199 69.6515151,34.1295189 C69.6515151,35.1087882 68.8622515,35.9060583 67.8921929,35.9060583 C66.920264,35.9060583 66.1316238,35.1087882 66.1316238,34.1295189" id="Fill-23" fill="#EC6C00"></path>
            </g>
        </g>
    </g>
</svg>